# This file uses centimeters as units for non-parametric coordinates.

mtllib 3D_ComputerTable.mtl
g default
v -0.150000 0.284174 -1.061941
v 0.150000 0.284174 -1.061941
v -0.150000 0.522089 -1.093509
v 0.150000 0.522089 -1.093509
v -0.150000 0.511566 -1.172814
v 0.150000 0.511566 -1.172814
v -0.150000 0.273651 -1.141246
v 0.150000 0.273651 -1.141246
v -0.120000 0.522089 -1.093509
v -0.120000 0.511566 -1.172814
v -0.120000 0.273651 -1.141246
v -0.120000 0.284174 -1.061941
v 0.120000 0.522089 -1.093509
v 0.120000 0.511566 -1.172814
v 0.120000 0.273651 -1.141246
v 0.120000 0.284174 -1.061941
v -0.150000 0.492349 -1.089563
v -0.150000 0.481826 -1.168868
v 0.150000 0.481826 -1.168868
v 0.150000 0.492349 -1.089563
v 0.120000 0.492349 -1.089563
v -0.120000 0.492349 -1.089563
v -0.150000 0.313913 -1.065887
v -0.150000 0.303390 -1.145192
v 0.150000 0.303390 -1.145192
v 0.150000 0.313913 -1.065887
v 0.120000 0.313913 -1.065887
v -0.120000 0.313913 -1.065887
v -0.120000 0.311282 -1.085713
v -0.120000 0.489718 -1.109389
v 0.120000 0.311282 -1.085713
v 0.120000 0.489718 -1.109389
v 0.140000 0.511566 -1.172814
v 0.140000 0.481826 -1.168868
v 0.140000 0.303390 -1.145192
v 0.140000 0.273651 -1.141246
v 0.140000 0.284174 -1.061941
v 0.140000 0.313913 -1.065887
v 0.140000 0.492349 -1.089563
v 0.140000 0.522089 -1.093509
v 0.130000 0.511566 -1.172814
v 0.130000 0.273651 -1.141246
v 0.130000 0.284174 -1.061941
v 0.130000 0.313913 -1.065887
v 0.130000 0.492349 -1.089563
v 0.130000 0.522089 -1.093509
v -0.140000 0.511566 -1.172814
v -0.140000 0.481826 -1.168868
v -0.140000 0.303390 -1.145192
v -0.140000 0.273651 -1.141246
v -0.140000 0.284174 -1.061941
v -0.140000 0.313913 -1.065887
v -0.140000 0.492349 -1.089563
v -0.140000 0.522089 -1.093509
v -0.130000 0.511566 -1.172814
v -0.130000 0.273651 -1.141246
v -0.130000 0.284174 -1.061941
v -0.130000 0.313913 -1.065887
v -0.130000 0.492349 -1.089563
v -0.130000 0.522089 -1.093509
v -0.140000 0.293477 -1.143876
v -0.150000 0.293477 -1.143876
v -0.150000 0.304000 -1.064571
v -0.140000 0.304000 -1.064571
v -0.130000 0.304000 -1.064571
v -0.120000 0.304000 -1.064571
v 0.120000 0.304000 -1.064571
v 0.130000 0.304000 -1.064571
v 0.140000 0.304000 -1.064571
v 0.150000 0.304000 -1.064571
v 0.150000 0.293477 -1.143876
v 0.140000 0.293477 -1.143876
v -0.120000 0.283564 -1.142561
v -0.130000 0.283564 -1.142561
v -0.140000 0.283564 -1.142561
v -0.150000 0.283564 -1.142561
v -0.150000 0.294087 -1.063256
v -0.140000 0.294087 -1.063256
v -0.130000 0.294087 -1.063256
v -0.120000 0.294087 -1.063256
v 0.120000 0.294087 -1.063256
v 0.130000 0.294087 -1.063256
v 0.140000 0.294087 -1.063256
v 0.150000 0.294087 -1.063256
v 0.150000 0.283564 -1.142561
v 0.140000 0.283564 -1.142561
v 0.130000 0.283564 -1.142561
v 0.120000 0.283564 -1.142561
v 0.150000 0.491739 -1.170183
v 0.140000 0.491739 -1.170183
v 0.130000 0.491739 -1.170183
v 0.120000 0.491739 -1.170183
v -0.120000 0.491739 -1.170183
v -0.130000 0.491739 -1.170183
v -0.140000 0.491739 -1.170183
v -0.150000 0.491739 -1.170183
v -0.150000 0.502262 -1.090878
v -0.140000 0.502262 -1.090878
v -0.130000 0.502262 -1.090878
v -0.120000 0.502262 -1.090878
v 0.120000 0.502262 -1.090878
v 0.130000 0.502262 -1.090878
v 0.140000 0.502262 -1.090878
v 0.150000 0.502262 -1.090878
v 0.120000 0.290847 -1.163702
v -0.120000 0.290847 -1.163702
v 0.130000 0.300760 -1.165018
v 0.130000 0.290847 -1.163702
v -0.120000 0.469282 -1.187379
v 0.120000 0.469282 -1.187379
v 0.130000 0.469282 -1.187379
v 0.140000 0.300760 -1.165018
v 0.140000 0.469282 -1.187379
v 0.140000 0.290847 -1.163702
v -0.140000 0.469282 -1.187379
v -0.140000 0.300760 -1.165018
v -0.130000 0.469282 -1.187379
v -0.130000 0.300760 -1.165018
v -0.140000 0.290847 -1.163702
v -0.130000 0.290847 -1.163702
v -0.130000 0.280933 -1.162387
v -0.120000 0.280933 -1.162387
v -0.140000 0.280933 -1.162387
v 0.130000 0.280933 -1.162387
v 0.140000 0.280933 -1.162387
v 0.120000 0.280933 -1.162387
v 0.130000 0.489109 -1.190010
v 0.140000 0.489109 -1.190010
v 0.120000 0.489109 -1.190010
v -0.120000 0.489109 -1.190010
v -0.130000 0.489109 -1.190010
v -0.140000 0.489109 -1.190010
v 0.120000 0.288216 -1.183529
v -0.120000 0.288216 -1.183529
v -0.110000 0.298129 -1.184844
v 0.110000 0.298129 -1.184844
v 0.130000 0.298129 -1.184844
v 0.130000 0.288216 -1.183529
v -0.120000 0.466652 -1.207205
v 0.120000 0.466652 -1.207205
v 0.130000 0.466652 -1.207205
v -0.130000 0.466652 -1.207205
v -0.130000 0.298129 -1.184844
v -0.130000 0.288216 -1.183529
v 0.110000 0.456739 -1.205890
v -0.110000 0.456739 -1.205890
v -0.130000 0.456739 -1.205890
v -0.130000 0.459369 -1.186064
v -0.140000 0.459369 -1.186064
v -0.140000 0.462000 -1.166237
v -0.150000 0.462000 -1.166237
v -0.150000 0.472523 -1.086932
v -0.140000 0.472523 -1.086932
v -0.130000 0.472523 -1.086932
v -0.120000 0.472523 -1.086932
v -0.120000 0.469892 -1.106759
v 0.120000 0.469892 -1.106759
v 0.120000 0.472523 -1.086932
v 0.130000 0.472523 -1.086932
v 0.140000 0.472523 -1.086932
v 0.150000 0.472523 -1.086932
v 0.150000 0.462000 -1.166237
v 0.140000 0.462000 -1.166237
v 0.140000 0.459369 -1.186064
v 0.130000 0.459369 -1.186064
v 0.130000 0.456739 -1.205890
v -0.110000 0.290237 -1.244323
v 0.110000 0.290237 -1.244323
v -0.110000 0.448846 -1.265369
v 0.110000 0.448846 -1.265369
v 0.020000 0.489109 -1.190010
v 0.020000 0.491739 -1.170183
v 0.020000 0.511566 -1.172814
v 0.020000 0.522089 -1.093509
v 0.020000 0.502262 -1.090878
v 0.020000 0.492349 -1.089563
v 0.020000 0.489718 -1.109389
v 0.020000 0.469892 -1.106759
v 0.020000 0.311282 -1.085713
v 0.020000 0.313913 -1.065887
v 0.020000 0.304000 -1.064571
v 0.020000 0.294087 -1.063256
v 0.020000 0.284174 -1.061941
v 0.020000 0.273651 -1.141246
v 0.020000 0.283564 -1.142561
v 0.020000 0.280933 -1.162387
v 0.020000 0.290847 -1.163702
v 0.020000 0.288216 -1.183529
v 0.020000 0.298129 -1.184844
v 0.020000 0.290237 -1.244323
v 0.020000 0.448846 -1.265369
v 0.020000 0.456739 -1.205890
v 0.020000 0.466652 -1.207205
v 0.020000 0.469282 -1.187379
v -0.020000 0.489109 -1.190010
v -0.020000 0.491739 -1.170183
v -0.020000 0.511566 -1.172814
v -0.020000 0.522089 -1.093509
v -0.020000 0.502262 -1.090878
v -0.020000 0.492349 -1.089563
v -0.020000 0.489718 -1.109389
v -0.020000 0.469892 -1.106759
v -0.020000 0.311282 -1.085713
v -0.020000 0.313913 -1.065887
v -0.020000 0.304000 -1.064571
v -0.020000 0.294087 -1.063256
v -0.020000 0.284174 -1.061941
v -0.020000 0.273651 -1.141246
v -0.020000 0.283564 -1.142561
v -0.020000 0.280933 -1.162387
v -0.020000 0.290847 -1.163702
v -0.020000 0.288216 -1.183529
v -0.020000 0.298129 -1.184844
v -0.020000 0.290237 -1.244323
v -0.020000 0.448846 -1.265369
v -0.020000 0.456739 -1.205890
v -0.020000 0.466652 -1.207205
v -0.020000 0.469282 -1.187379
v 0.020000 0.260000 -1.144622
v 0.020000 0.260000 -1.154898
v -0.020000 0.260000 -1.144622
v -0.020000 0.260000 -1.154898
v 0.020000 0.260000 -1.174285
v -0.020000 0.260000 -1.174285
v 0.020000 0.260000 -1.183979
v -0.020000 0.260000 -1.183979
v 0.070000 0.240000 -1.094622
v 0.070000 0.240000 -1.144041
v -0.070000 0.240000 -1.094622
v -0.070000 0.240000 -1.144041
v 0.070000 0.240000 -1.189594
v -0.070000 0.240000 -1.189594
v 0.070000 0.240000 -1.234622
v -0.070000 0.240000 -1.234622
v 0.070000 0.260000 -1.094621
v 0.070000 0.260000 -1.140129
v -0.070000 0.260000 -1.094621
v -0.070000 0.260000 -1.140129
v 0.070000 0.260000 -1.194050
v -0.070000 0.260000 -1.194050
v 0.070000 0.260000 -1.234622
v -0.070000 0.260000 -1.234622
vt 0.207408 0.029630
vt 0.207408 0.000001
vt 0.211112 0.000000
vt 0.211112 0.029630
vt 0.203704 0.029630
vt 0.203704 0.000001
vt 0.270371 0.000000
vt 0.270371 0.029630
vt 0.200001 0.029630
vt 0.200001 0.000001
vt 0.277778 0.000000
vt 0.277779 0.029630
vt 0.281482 0.000000
vt 0.281482 0.029630
vt 0.288889 0.000000
vt 0.288889 0.029630
vt 0.207408 0.000001
vt 0.207408 0.029630
vt 0.211112 0.029630
vt 0.211112 0.000000
vt 0.203704 0.000000
vt 0.203704 0.029630
vt 0.270371 0.029630
vt 0.270371 0.000000
vt 0.200001 0.000001
vt 0.200001 0.029630
vt 0.277778 0.029630
vt 0.277778 0.000000
vt 0.281482 0.029630
vt 0.281482 0.000000
vt 0.288889 0.029630
vt 0.288889 0.000000
vt 0.066667 0.081481
vt 0.059260 0.081481
vt 0.059260 0.074074
vt 0.066667 0.074074
vt 0.000000 0.081482
vt 0.000000 0.074074
vt 0.059259 0.074074
vt 0.066667 0.074075
vt 0.066667 0.081482
vt 0.059259 0.081482
vt 0.000000 0.074075
vt 0.000000 0.081482
vt 0.090741 0.877728
vt 0.083333 0.877728
vt 0.083333 0.870320
vt 0.087037 0.870320
vt 0.024074 0.877728
vt 0.024074 0.870320
vt 0.094445 0.877728
vt 0.094445 0.870320
vt 0.020371 0.877728
vt 0.020371 0.870320
vt 0.016667 0.877728
vt 0.016667 0.870320
vt 0.083333 0.855505
vt 0.090741 0.855505
vt 0.087037 0.862912
vt 0.083333 0.862913
vt 0.094444 0.855505
vt 0.094445 0.862913
vt 0.024075 0.855505
vt 0.024074 0.862912
vt 0.020371 0.855505
vt 0.020371 0.862912
vt 0.016667 0.855505
vt 0.016667 0.862912
vt 0.025926 0.870320
vt 0.022222 0.870320
vt 0.022222 0.862913
vt 0.025926 0.862913
vt 0.085185 0.862913
vt 0.085185 0.870320
vt 0.088889 0.870320
vt 0.088889 0.862913
vt 0.085185 0.885136
vt 0.088889 0.885136
vt 0.088889 0.892543
vt 0.085185 0.892543
vt 0.025926 0.885136
vt 0.025926 0.892543
vt 0.022222 0.885136
vt 0.022222 0.892543
vt 0.025926 0.716420
vt 0.085185 0.716420
vt 0.085185 0.738642
vt 0.025926 0.738642
vt 0.085185 0.716419
vt 0.025926 0.716420
vt 0.025926 0.694197
vt 0.085185 0.694197
vt 0.054786 0.830802
vt 0.047378 0.830802
vt 0.049283 0.822251
vt 0.053056 0.822752
vt 0.054786 0.834506
vt 0.060174 0.823696
vt 0.062193 0.834506
vt 0.063733 0.824168
vt 0.047378 0.838210
vt 0.054786 0.838209
vt 0.053056 0.846260
vt 0.049283 0.846761
vt 0.054786 0.834506
vt 0.060174 0.845316
vt 0.062193 0.834506
vt 0.063733 0.844844
vt 0.416855 0.007408
vt 0.400001 0.007408
vt 0.400001 0.000001
vt 0.418304 0.000001
vt 0.436826 0.007408
vt 0.435176 0.000001
vt 0.451853 0.007408
vt 0.451853 0.000001
vt 0.400001 0.007408
vt 0.416856 0.007408
vt 0.418304 0.000001
vt 0.400001 0.000001
vt 0.436826 0.007408
vt 0.435176 0.000001
vt 0.451853 0.007408
vt 0.451853 0.000001
vt 0.288889 0.029630
vt 0.292593 0.029630
vt 0.292593 0.000001
vt 0.288889 0.000001
vt 0.296297 0.029630
vt 0.296297 0.000001
vt 0.300001 0.029630
vt 0.300001 0.000001
vt 0.337038 0.029630
vt 0.337038 0.000001
vt 0.351853 0.029630
vt 0.351853 0.000001
vt 0.388890 0.029630
vt 0.388890 0.000001
vt 0.392593 0.029630
vt 0.392593 0.000001
vt 0.396297 0.029630
vt 0.396297 0.000001
vt 0.400001 0.029630
vt 0.400001 0.000001
vt 0.288889 0.000001
vt 0.292593 0.000001
vt 0.292593 0.029630
vt 0.288889 0.029630
vt 0.296297 0.000001
vt 0.296297 0.029630
vt 0.300001 0.000001
vt 0.300001 0.029630
vt 0.337038 0.000001
vt 0.337038 0.029630
vt 0.351852 0.000001
vt 0.351852 0.029630
vt 0.388889 0.000001
vt 0.388889 0.029630
vt 0.392593 0.000001
vt 0.392593 0.029630
vt 0.396297 0.000001
vt 0.396297 0.029630
vt 0.400001 0.000001
vt 0.400001 0.029630
vt 0.051852 0.066667
vt 0.088890 0.066667
vt 0.088890 0.074074
vt 0.051852 0.074074
vt 0.037037 0.066667
vt 0.037037 0.074074
vt 0.000000 0.066667
vt 0.000000 0.074074
vt 0.088890 0.074074
vt 0.051852 0.074074
vt 0.051852 0.066667
vt 0.088890 0.066667
vt 0.037037 0.074074
vt 0.037037 0.066667
vt 0.000000 0.074074
vt 0.000000 0.066667
vt 0.048405 0.776211
vt 0.046617 0.776211
vt 0.046617 0.760864
vt 0.048405 0.760864
vt 0.044830 0.776211
vt 0.044830 0.760864
vt 0.066282 0.760864
vt 0.066282 0.776211
vt 0.033334 0.936988
vt 0.037037 0.936988
vt 0.037037 0.944395
vt 0.033334 0.944395
vt 0.040741 0.936988
vt 0.040741 0.944395
vt 0.077778 0.936988
vt 0.077778 0.944395
vt 0.078795 0.791558
vt 0.080583 0.791558
vt 0.080583 0.806904
vt 0.078795 0.806904
vt 0.077008 0.791558
vt 0.077008 0.806904
vt 0.059131 0.791558
vt 0.059131 0.806904
vt 0.051980 0.791558
vt 0.051980 0.806904
vt 0.034104 0.791558
vt 0.034104 0.806904
vt 0.032316 0.791558
vt 0.032316 0.806904
vt 0.030528 0.791558
vt 0.030528 0.806904
vt 0.038889 0.899951
vt 0.075926 0.899951
vt 0.075926 0.907358
vt 0.038889 0.907358
vt 0.035185 0.899951
vt 0.035185 0.907358
vt 0.059131 0.776211
vt 0.077008 0.776211
vt 0.077008 0.791558
vt 0.059131 0.791558
vt 0.078796 0.776211
vt 0.078796 0.791558
vt 0.051980 0.776211
vt 0.051980 0.791557
vt 0.034103 0.776211
vt 0.034103 0.791558
vt 0.032316 0.776211
vt 0.032316 0.791558
vt 0.063600 0.806904
vt 0.065388 0.806904
vt 0.065388 0.822251
vt 0.063600 0.822251
vt 0.045723 0.822251
vt 0.045723 0.806904
vt 0.014815 0.738642
vt 0.048148 0.738642
vt 0.048148 0.760864
vt 0.014815 0.760864
vt 0.062963 0.738642
vt 0.062963 0.760864
vt 0.096296 0.738642
vt 0.096296 0.760864
vt 0.032536 0.670957
vt 0.032536 0.654868
vt 0.078576 0.654868
vt 0.078576 0.670957
vt 0.032536 0.678108
vt 0.078576 0.678108
vt 0.032536 0.694197
vt 0.078576 0.694197
vt 0.063178 0.551164
vt 0.081482 0.551164
vt 0.081482 0.603016
vt 0.063178 0.603016
vt 0.046307 0.551165
vt 0.046307 0.603016
vt 0.029630 0.551165
vt 0.029630 0.603016
vt 0.059157 0.636350
vt 0.062963 0.636350
vt 0.081482 0.654868
vt 0.064627 0.654868
vt 0.062963 0.621535
vt 0.081482 0.603016
vt 0.059157 0.621535
vt 0.064627 0.603016
vt 0.051977 0.636350
vt 0.044656 0.654868
vt 0.051977 0.621535
vt 0.044656 0.603016
vt 0.048386 0.636350
vt 0.029630 0.654868
vt 0.048386 0.621535
vt 0.029630 0.603016
vt 0.088889 0.007408
vt 0.092593 0.007408
vt 0.092593 0.011111
vt 0.088889 0.011111
vt 0.088889 0.003704
vt 0.092593 0.003704
vt 0.096297 0.007408
vt 0.096297 0.011111
vt 0.092593 0.070371
vt 0.088889 0.070371
vt 0.088889 0.000000
vt 0.092593 0.000000
vt 0.096297 0.003704
vt 0.100000 0.007408
vt 0.100000 0.011111
vt 0.096297 0.070371
vt 0.092593 0.077778
vt 0.088889 0.077778
vt 0.096297 0.000000
vt 0.100000 0.003704
vt 0.137037 0.007408
vt 0.137037 0.011111
vt 0.100000 0.070371
vt 0.096297 0.077778
vt 0.092593 0.081482
vt 0.088889 0.081482
vt 0.100000 0.000000
vt 0.137037 0.003704
vt 0.151852 0.007408
vt 0.151852 0.011111
vt 0.100000 0.077778
vt 0.096297 0.081482
vt 0.092593 0.088889
vt 0.088889 0.088889
vt 0.137037 0.000000
vt 0.151852 0.003704
vt 0.188889 0.007408
vt 0.188889 0.011111
vt 0.100000 0.081482
vt 0.096297 0.088889
vt 0.151852 0.000000
vt 0.188889 0.003704
vt 0.192593 0.007408
vt 0.192593 0.011111
vt 0.100000 0.088889
vt 0.137037 0.077778
vt 0.137037 0.081482
vt 0.188889 0.000000
vt 0.192593 0.003704
vt 0.196297 0.007408
vt 0.196297 0.011111
vt 0.192593 0.070371
vt 0.188889 0.070371
vt 0.137037 0.088889
vt 0.151852 0.077778
vt 0.151852 0.081482
vt 0.192593 0.000000
vt 0.196297 0.003704
vt 0.200001 0.007408
vt 0.200001 0.011111
vt 0.196297 0.070371
vt 0.188889 0.077778
vt 0.192593 0.077778
vt 0.151852 0.088889
vt 0.188889 0.081482
vt 0.196297 0.000000
vt 0.200001 0.003704
vt 0.200001 0.070371
vt 0.196297 0.077778
vt 0.192593 0.081482
vt 0.188889 0.088889
vt 0.200001 0.000000
vt 0.200001 0.077778
vt 0.196297 0.081482
vt 0.192593 0.088889
vt 0.200001 0.081482
vt 0.196297 0.088889
vt 0.200001 0.088889
vt 0.111111 0.259308
vt 0.107408 0.259308
vt 0.107408 0.255605
vt 0.111111 0.255605
vt 0.111111 0.318568
vt 0.107408 0.318568
vt 0.107408 0.251901
vt 0.111111 0.251901
vt 0.111111 0.325975
vt 0.107408 0.325975
vt 0.107408 0.248197
vt 0.111111 0.248197
vt 0.111111 0.329679
vt 0.107408 0.329679
vt 0.103704 0.251901
vt 0.103704 0.248197
vt 0.111112 0.337086
vt 0.107408 0.337086
vt 0.100000 0.251901
vt 0.100000 0.248197
vt 0.103704 0.337086
vt 0.103704 0.329679
vt 0.062963 0.251901
vt 0.062963 0.248197
vt 0.100000 0.337086
vt 0.100000 0.329679
vt 0.048148 0.251901
vt 0.048148 0.248197
vt 0.062963 0.337086
vt 0.062963 0.329679
vt 0.011111 0.251901
vt 0.011111 0.248197
vt 0.048148 0.337086
vt 0.048148 0.329679
vt 0.007408 0.251901
vt 0.007408 0.248197
vt 0.011111 0.329679
vt 0.011111 0.337086
vt 0.003704 0.251901
vt 0.003704 0.248197
vt 0.007408 0.329679
vt 0.007407 0.337086
vt 0.000000 0.251901
vt 0.000000 0.248197
vt 0.003704 0.329679
vt 0.003704 0.337086
vt 0.003704 0.255605
vt 0.000000 0.255605
vt 0.000000 0.329679
vt 0.000000 0.337086
vt 0.003704 0.259308
vt 0.000000 0.259308
vt 0.000000 0.325975
vt 0.003704 0.325975
vt 0.003704 0.318568
vt 0.000000 0.318568
vt 0.100022 0.481563
vt 0.062967 0.481563
vt 0.062967 0.477857
vt 0.096316 0.477857
vt 0.048145 0.481563
vt 0.048145 0.477857
vt 0.103727 0.477857
vt 0.103727 0.481563
vt 0.062967 0.491905
vt 0.048145 0.491905
vt 0.011090 0.481563
vt 0.014795 0.477857
vt 0.096316 0.418569
vt 0.103727 0.418569
vt 0.007384 0.481563
vt 0.007384 0.477857
vt 0.100022 0.414864
vt 0.103727 0.414864
vt 0.007384 0.418569
vt 0.014795 0.418569
vt 0.062967 0.418569
vt 0.062967 0.414864
vt 0.007384 0.414864
vt 0.011090 0.414864
vt 0.048145 0.418569
vt 0.048145 0.414864
vt 0.051852 0.066667
vt 0.051852 0.059260
vt 0.088889 0.059260
vt 0.088889 0.066667
vt 0.037037 0.066667
vt 0.037037 0.059260
vt 0.051852 0.000000
vt 0.088889 0.000000
vt 0.000000 0.066667
vt 0.000000 0.059259
vt 0.037037 0.000000
vt 0.000000 0.000000
vt 0.107407 0.348198
vt 0.103703 0.348197
vt 0.103704 0.344494
vt 0.107407 0.344494
vt 0.107407 0.407456
vt 0.103703 0.407456
vt 0.103703 0.337086
vt 0.107407 0.337086
vt 0.103703 0.411160
vt 0.107407 0.411160
vt 0.100000 0.344494
vt 0.100000 0.337086
vt 0.103703 0.414863
vt 0.107407 0.414864
vt 0.062963 0.344494
vt 0.062963 0.337086
vt 0.100000 0.414863
vt 0.100000 0.411160
vt 0.048148 0.344494
vt 0.048148 0.337086
vt 0.062963 0.414863
vt 0.062963 0.411160
vt 0.011112 0.344494
vt 0.011112 0.337086
vt 0.007408 0.337086
vt 0.007408 0.344494
vt 0.003704 0.337086
vt 0.003704 0.344494
vt 0.003704 0.348197
vt 0.007408 0.348197
vt 0.003704 0.407456
vt 0.007408 0.407456
vt 0.003704 0.411160
vt 0.007408 0.411160
vt 0.003704 0.414864
vt 0.007408 0.414864
vt 0.011112 0.411160
vt 0.011112 0.414864
vt 0.048148 0.411160
vt 0.048148 0.414864
vt 0.096297 0.551164
vt 0.062963 0.551164
vt 0.062963 0.491905
vt 0.096297 0.491905
vt 0.048148 0.551164
vt 0.048148 0.491905
vt 0.014815 0.551164
vt 0.014815 0.491905
vt 0.048134 0.846761
vt 0.062977 0.846761
vt 0.062977 0.855505
vt 0.048134 0.855505
vt 0.451852 0.007408
vt 0.400001 0.007408
vt 0.400001 0.000001
vt 0.451852 0.000001
vt 0.451853 0.007408
vt 0.400001 0.007408
vt 0.400001 0.000001
vt 0.451853 0.000001
vn 0.000000 0.131547 0.991310
vn 0.000000 0.131547 0.991310
vn 0.000000 0.131535 0.991312
vn 0.000000 0.131535 0.991312
vn 0.000000 0.991312 -0.131534
vn 0.000000 0.991312 -0.131534
vn 0.000000 0.991312 -0.131534
vn 0.000000 0.991312 -0.131534
vn 0.000000 -0.131537 -0.991311
vn 0.000000 -0.131537 -0.991311
vn 0.000000 -0.131536 -0.991311
vn 0.000000 -0.131536 -0.991311
vn 0.000000 -0.991312 0.131535
vn 0.000000 -0.991312 0.131535
vn 0.000000 -0.991312 0.131535
vn 0.000000 -0.991312 0.131535
vn 1.000000 -0.000000 0.000000
vn 1.000000 -0.000000 0.000000
vn 1.000000 -0.000000 0.000000
vn 1.000000 -0.000000 0.000000
vn -1.000000 -0.000000 0.000000
vn -1.000000 0.000000 -0.000000
vn -1.000000 -0.000000 0.000000
vn -1.000000 -0.000000 0.000000
vn 0.000000 0.991312 -0.131534
vn 0.000000 0.991312 -0.131534
vn 0.000000 0.991312 -0.131534
vn 0.000000 0.991312 -0.131534
vn 0.000000 -0.131558 -0.991308
vn 0.000000 -0.131558 -0.991308
vn 0.000000 -0.131558 -0.991308
vn 0.000000 -0.131543 -0.991310
vn 0.000000 -0.991312 0.131534
vn 0.000000 -0.991312 0.131534
vn 0.000000 -0.991312 0.131534
vn 0.000000 -0.991312 0.131534
vn 0.000000 0.131536 0.991311
vn 0.000000 0.131547 0.991310
vn 0.000000 0.131547 0.991310
vn 0.000000 0.131535 0.991312
vn 0.000000 0.991312 -0.131534
vn 0.000000 0.991312 -0.131534
vn 0.000000 -0.131538 -0.991311
vn 0.000000 -0.131558 -0.991309
vn 0.000000 -0.991312 0.131535
vn 0.000000 -0.991312 0.131535
vn 0.000000 0.131547 0.991310
vn 0.000000 0.131535 0.991312
vn -1.000000 0.000000 -0.000000
vn -1.000000 0.000000 -0.000000
vn -1.000000 0.000000 0.000000
vn -1.000000 0.000000 0.000000
vn 0.000000 -0.131536 -0.991311
vn 0.000000 -0.131536 -0.991311
vn 0.000000 -0.131538 -0.991311
vn 0.000000 -0.131540 -0.991311
vn 0.000000 -0.131536 -0.991311
vn 0.000000 -0.131536 -0.991311
vn 0.000000 -0.131536 -0.991311
vn 0.000000 -0.131536 -0.991311
vn 0.000000 -0.131536 -0.991311
vn 0.000000 -0.131536 -0.991311
vn 1.000000 -0.000000 0.000000
vn 1.000000 -0.000000 0.000000
vn 1.000000 -0.000000 0.000000
vn 1.000000 -0.000000 0.000000
vn 0.000000 0.131547 0.991310
vn 0.000000 0.131543 0.991310
vn 0.000000 0.131543 0.991310
vn 0.000000 0.131547 0.991310
vn 0.000000 0.131547 0.991310
vn 0.000000 0.131543 0.991310
vn 0.000000 0.131543 0.991310
vn 0.000000 0.131543 0.991310
vn 0.000000 0.131547 0.991310
vn 0.000000 0.131547 0.991310
vn -1.000000 -0.000000 0.000000
vn -1.000000 -0.000000 0.000000
vn -1.000000 0.000000 -0.000000
vn -1.000000 0.000000 -0.000000
vn 0.000000 -0.131540 -0.991311
vn 0.000000 -0.131540 -0.991311
vn 0.000000 -0.131535 -0.991311
vn 0.000000 -0.131535 -0.991311
vn 0.000000 -0.131533 -0.991312
vn 0.000000 -0.131525 -0.991313
vn 0.000000 -0.131525 -0.991313
vn 0.000000 -0.131525 -0.991313
vn 0.000000 -0.131536 -0.991311
vn 0.000000 -0.131525 -0.991313
vn 1.000000 0.000000 -0.000000
vn 1.000000 0.000000 -0.000000
vn 1.000000 0.000000 0.000000
vn 1.000000 0.000000 0.000000
vn 0.000000 0.131536 0.991311
vn 0.000000 0.131535 0.991312
vn 0.000000 0.131535 0.991312
vn 0.000000 0.131536 0.991311
vn 0.000000 0.131536 0.991311
vn 0.000000 0.131535 0.991311
vn 0.000000 0.131535 0.991311
vn 0.000000 0.131536 0.991311
vn 0.000000 0.131535 0.991312
vn 0.000000 0.131535 0.991312
vn 0.000000 0.131536 0.991311
vn 0.000000 0.131536 0.991311
vn 1.000000 0.000000 0.000000
vn 1.000000 -0.000000 0.000000
vn 1.000000 -0.000000 0.000000
vn 1.000000 0.000000 0.000000
vn 0.000000 0.991311 -0.131537
vn 0.000000 0.991311 -0.131537
vn 0.000000 0.991311 -0.131537
vn 0.000000 0.991311 -0.131537
vn -1.000000 -0.000000 -0.000000
vn -1.000000 0.000000 0.000000
vn -1.000000 0.000000 0.000000
vn -1.000000 -0.000000 -0.000000
vn 0.000000 -0.991311 0.131539
vn 0.000000 -0.991311 0.131539
vn 0.000000 -0.991311 0.131539
vn 0.000000 -0.991311 0.131539
vn 0.000000 -0.131540 -0.991311
vn 0.000000 -0.131538 -0.991311
vn 0.000000 -0.131536 -0.991311
vn 0.000000 -0.131536 -0.991311
vn 0.000000 -0.131535 -0.991311
vn 0.000000 -0.131535 -0.991311
vn 0.000000 -0.131540 -0.991311
vn 0.000000 -0.131540 -0.991311
vn 0.000000 -0.131536 -0.991311
vn 0.000000 -0.131537 -0.991311
vn 0.000000 -0.131537 -0.991311
vn 0.000000 -0.131536 -0.991311
vn 0.000000 -0.991312 0.131535
vn 0.000000 -0.991312 0.131535
vn 0.000000 -0.991312 0.131535
vn 0.000000 -0.991312 0.131535
vn 0.000000 0.131535 0.991312
vn 0.000000 0.131547 0.991310
vn 0.000000 0.131547 0.991310
vn 0.000000 0.131535 0.991312
vn 0.000000 0.131536 0.991311
vn 0.000000 0.131535 0.991312
vn 0.000000 0.131535 0.991312
vn 0.000000 0.131536 0.991311
vn 0.000000 0.131547 0.991310
vn 0.000000 0.131543 0.991310
vn 0.000000 0.131543 0.991310
vn 0.000000 0.131547 0.991310
vn 0.000000 0.991312 -0.131534
vn 0.000000 0.991312 -0.131534
vn 0.000000 0.991312 -0.131534
vn 0.000000 0.991312 -0.131534
vn 0.000000 -0.131535 -0.991311
vn 0.000000 -0.131535 -0.991311
vn 0.000000 -0.131534 -0.991312
vn 0.000000 -0.131532 -0.991312
vn 0.000000 -0.131540 -0.991311
vn 0.000000 -0.131537 -0.991311
vn 0.000000 -0.131537 -0.991311
vn 0.000000 -0.131541 -0.991311
vn 0.000000 -0.131536 -0.991311
vn 0.000000 -0.131536 -0.991311
vn 0.000000 -0.131535 -0.991311
vn 0.000000 -0.131532 -0.991312
vn 0.000000 -0.131534 -0.991312
vn 0.000000 -0.131535 -0.991311
vn 0.000000 -0.131541 -0.991311
vn 0.000000 -0.131537 -0.991311
vn 0.000000 -0.131537 -0.991311
vn 0.000000 -0.131540 -0.991311
vn 0.000000 -0.991312 0.131535
vn 0.000000 -0.991312 0.131535
vn 0.000000 0.131547 0.991310
vn 0.000000 0.131535 0.991312
vn 0.000000 0.131535 0.991312
vn 0.000000 0.131536 0.991311
vn 0.000000 0.131543 0.991310
vn 0.000000 0.131547 0.991310
vn 0.000000 0.991312 -0.131534
vn 0.000000 0.991312 -0.131534
vn 0.000000 -0.131536 -0.991311
vn 0.000000 -0.131536 -0.991311
vn 0.000000 -0.131536 -0.991311
vn 0.000000 -0.131525 -0.991313
vn 0.000000 -0.131525 -0.991313
vn 0.000000 -0.131533 -0.991312
vn 0.000000 -0.131558 -0.991308
vn 0.000000 -0.131538 -0.991311
vn 0.000000 -0.131543 -0.991310
vn 0.000000 -0.131558 -0.991308
vn 0.000000 -0.991312 0.131534
vn 0.000000 -0.991312 0.131534
vn 0.000000 0.131547 0.991310
vn 0.000000 0.131535 0.991312
vn 0.000000 0.131535 0.991312
vn 0.000000 0.131536 0.991311
vn 0.000000 0.131543 0.991310
vn 0.000000 0.131547 0.991310
vn 0.000000 0.991312 -0.131534
vn 0.000000 0.991312 -0.131534
vn 0.000000 -0.131536 -0.991311
vn 0.000000 -0.131536 -0.991311
vn 0.000000 -0.131536 -0.991311
vn 0.000000 -0.131536 -0.991311
vn 0.000000 -0.131529 -0.991312
vn 0.000000 -0.131525 -0.991313
vn -1.000000 0.000000 -0.000000
vn -1.000000 0.000000 -0.000000
vn 0.000000 0.131536 0.991311
vn 0.000000 0.131536 0.991311
vn 0.000000 0.131536 0.991311
vn 0.000000 0.131536 0.991311
vn 0.000000 0.131536 0.991311
vn 0.000000 0.131536 0.991311
vn 0.000000 0.131536 0.991311
vn 0.000000 0.131536 0.991311
vn 0.000000 0.131536 0.991311
vn 1.000000 0.000001 -0.000000
vn 1.000000 0.000001 -0.000000
vn 0.000000 -0.131529 -0.991312
vn 0.000000 -0.131525 -0.991313
vn 0.000000 -0.131536 -0.991311
vn 0.000000 -0.131536 -0.991311
vn 0.000000 -0.131536 -0.991311
vn 0.000000 -0.131536 -0.991311
vn 0.000000 -0.131536 -0.991311
vn 0.000000 -0.131536 -0.991311
vn 0.000000 -0.131536 -0.991311
vn 0.000000 -0.131536 -0.991311
vn 0.000000 -0.131536 -0.991311
vn 0.000000 -0.131536 -0.991311
vn 0.000000 -0.131536 -0.991311
vn 0.000000 -0.131536 -0.991311
vn -1.000000 0.000000 0.000000
vn -1.000000 0.000000 0.000000
vn 0.000000 0.131514 0.991314
vn 0.000000 0.131514 0.991314
vn 0.000000 0.131514 0.991314
vn 0.000000 0.131514 0.991314
vn 0.000000 0.131514 0.991314
vn 0.000000 0.131514 0.991314
vn 0.000000 0.131514 0.991314
vn 0.000000 0.131514 0.991314
vn 0.000000 0.131514 0.991314
vn 1.000000 0.000000 -0.000000
vn 1.000000 0.000000 -0.000000
vn 0.000000 -0.131536 -0.991311
vn 0.000000 -0.131536 -0.991311
vn 0.000000 -0.131536 -0.991311
vn 0.000000 -0.131536 -0.991311
vn 0.000000 -0.131536 -0.991311
vn 0.000000 -0.131536 -0.991311
vn 0.000000 -0.131536 -0.991311
vn 0.000000 -0.131536 -0.991311
vn 0.000000 -0.131536 -0.991311
vn 0.000000 -0.131536 -0.991311
vn 0.000000 -0.131536 -0.991311
vn 0.000000 -0.131536 -0.991311
vn 0.000000 -0.131536 -0.991311
vn 0.000000 -0.131536 -0.991311
vn 0.000000 -0.131536 -0.991311
vn 0.000000 -0.131536 -0.991311
vn 0.000000 -0.131536 -0.991311
vn 0.000000 -0.131536 -0.991311
vn 0.000000 0.131536 0.991311
vn 1.000000 0.000000 0.000000
vn 1.000000 0.000000 0.000000
vn 1.000000 0.000000 0.000000
vn 1.000000 0.000000 0.000000
vn 1.000000 0.000001 -0.000000
vn 1.000000 0.000001 -0.000000
vn 1.000000 0.000001 -0.000000
vn 1.000000 0.000001 -0.000000
vn -1.000000 0.000000 0.000000
vn -1.000000 0.000000 0.000000
vn -1.000000 0.000000 0.000000
vn -1.000000 0.000000 0.000000
vn -1.000000 0.000001 -0.000000
vn -1.000000 0.000001 -0.000000
vn -1.000000 0.000001 -0.000000
vn -1.000000 0.000001 -0.000000
vn 0.000000 -0.991311 0.131538
vn 0.000000 -0.991311 0.131538
vn 0.000000 -0.991311 0.131538
vn 0.000000 -0.991311 0.131538
vn -1.000000 0.000000 0.000000
vn -1.000000 0.000000 0.000000
vn -1.000000 0.000000 0.000000
vn -1.000000 0.000000 0.000000
vn 0.000000 -0.991311 0.131538
vn 0.000000 -0.991311 0.131538
vn 0.000000 -0.991311 0.131538
vn 0.000000 -0.991311 0.131538
vn 1.000000 0.000000 0.000000
vn 1.000000 0.000000 0.000000
vn 1.000000 0.000000 0.000000
vn 1.000000 0.000000 0.000000
vn 0.000000 -0.991311 0.131538
vn 0.000000 -0.991311 0.131538
vn 0.000000 -0.991311 0.131538
vn 0.000000 -0.991311 0.131538
vn 0.000000 -0.991311 0.131538
vn 0.000000 -0.991311 0.131538
vn 0.000000 -0.991311 0.131538
vn 0.000000 -0.991311 0.131538
vn 0.000000 -0.991311 0.131537
vn 0.000000 -0.991311 0.131537
vn 0.000000 -0.991311 0.131537
vn 0.000000 -0.991311 0.131537
vn 0.000000 0.991311 -0.131536
vn 0.000000 0.991311 -0.131536
vn 0.000000 0.991311 -0.131536
vn 0.000000 0.991311 -0.131536
vn 1.000000 -0.000001 0.000000
vn 1.000000 -0.000001 0.000000
vn 1.000000 -0.000001 0.000000
vn 1.000000 -0.000001 0.000000
vn 0.000000 0.991311 -0.131536
vn 0.000000 0.991311 -0.131536
vn 0.000000 0.991311 -0.131536
vn 0.000000 0.991311 -0.131536
vn 0.000000 0.991311 -0.131536
vn 0.000000 0.991311 -0.131536
vn 0.000000 0.991311 -0.131536
vn 0.000000 0.991311 -0.131536
vn 0.000000 0.991311 -0.131536
vn 0.000000 0.991311 -0.131536
vn 0.000000 0.991311 -0.131536
vn 0.000000 0.991311 -0.131536
vn 0.000000 0.991311 -0.131536
vn 0.000000 0.991311 -0.131536
vn 0.000000 0.991311 -0.131536
vn 0.000000 0.991311 -0.131536
vn -1.000000 -0.000001 0.000000
vn -1.000000 -0.000001 0.000000
vn -1.000000 -0.000001 0.000000
vn -1.000000 -0.000001 0.000000
vn 0.000000 -0.991311 0.131536
vn 0.000000 -0.991311 0.131536
vn 0.000000 -0.991311 0.131536
vn 0.000000 -0.991311 0.131536
vn 1.000000 -0.000001 0.000000
vn 1.000000 -0.000001 0.000000
vn 1.000000 -0.000001 0.000000
vn 1.000000 -0.000001 0.000000
vn 0.000000 -0.991311 0.131536
vn 0.000000 -0.991311 0.131536
vn 0.000000 -0.991311 0.131536
vn 0.000000 -0.991311 0.131536
vn 0.000000 0.991312 -0.131530
vn 0.000000 0.991312 -0.131530
vn 0.000000 0.991312 -0.131530
vn 0.000000 0.991312 -0.131530
vn 0.000000 0.991312 -0.131530
vn 0.000000 0.991312 -0.131530
vn 0.000000 0.991312 -0.131530
vn 0.000000 0.991312 -0.131530
vn 1.000000 0.000000 0.000000
vn 1.000000 -0.000000 0.000000
vn 1.000000 -0.000000 0.000000
vn 1.000000 0.000000 0.000000
vn -1.000000 0.000000 0.000000
vn -1.000000 0.000000 0.000000
vn -1.000000 0.000000 0.000000
vn -1.000000 0.000000 0.000000
vn 0.000000 0.991312 -0.131530
vn 0.000000 0.991312 -0.131530
vn 0.000000 0.991312 -0.131530
vn 0.000000 0.991312 -0.131530
vn -1.000000 -0.000001 0.000000
vn -1.000000 -0.000001 0.000000
vn -1.000000 -0.000001 0.000000
vn -1.000000 -0.000001 0.000000
vn 0.000000 -0.991311 0.131536
vn 0.000000 -0.991311 0.131536
vn 0.000000 -0.991311 0.131536
vn 0.000000 -0.991311 0.131536
vn 0.000000 -0.131537 -0.991311
vn 0.000000 -0.131537 -0.991311
vn 0.000000 -0.131537 -0.991311
vn 0.000000 -0.131537 -0.991311
vn -1.000000 0.000000 0.000000
vn -1.000000 0.000000 0.000000
vn -1.000000 0.000000 0.000000
vn -1.000000 0.000000 0.000000
vn 1.000000 -0.000000 0.000000
vn 1.000000 -0.000000 0.000000
vn 0.000000 0.131535 0.991312
vn 0.000000 0.131535 0.991312
vn -1.000000 -0.000000 -0.000000
vn -1.000000 -0.000000 -0.000000
vn 1.000000 0.000000 0.000000
vn 1.000000 0.000000 0.000000
vn 1.000000 -0.000000 0.000000
vn 1.000000 -0.000000 0.000000
vn 0.000000 -0.991311 0.131536
vn 0.000000 -0.991311 0.131536
vn 0.000000 -0.991311 0.131536
vn 0.000000 -0.991311 0.131536
vn -1.000000 0.000000 -0.000000
vn -1.000000 0.000000 -0.000000
vn -1.000000 0.000000 -0.000000
vn -1.000000 0.000000 -0.000000
vn 0.000000 0.991312 -0.131535
vn 0.000000 0.991312 -0.131535
vn 0.000000 0.991312 -0.131535
vn 0.000000 0.991312 -0.131535
vn 1.000000 0.000000 -0.000000
vn 1.000000 0.000000 -0.000000
vn 1.000000 0.000000 -0.000000
vn 1.000000 0.000000 -0.000000
vn 0.000000 0.991311 -0.131536
vn 0.000000 0.991311 -0.131536
vn 0.000000 -0.131536 -0.991311
vn 0.000000 -0.131536 -0.991311
vn 0.000000 0.991312 -0.131534
vn 0.000000 0.991312 -0.131534
vn 0.000000 0.131547 0.991310
vn 0.000000 0.131543 0.991310
vn 0.000000 0.131536 0.991311
vn 0.000000 -0.991311 0.131539
vn 0.000000 -0.991311 0.131539
vn 0.000000 0.131536 0.991311
vn 0.000000 0.131535 0.991311
vn 0.000000 0.131535 0.991312
vn 0.000000 0.991311 -0.131536
vn 0.000000 0.991311 -0.131536
vn 0.000000 0.131536 0.991311
vn 0.000000 0.131547 0.991310
vn 0.000000 0.131536 0.991311
vn 0.000000 0.131514 0.991314
vn 0.000000 -0.991312 0.131534
vn 0.000000 -0.991312 0.131534
vn 0.000000 -0.131536 -0.991311
vn 0.000000 -0.131536 -0.991311
vn 0.000000 -1.000000 0.000001
vn 0.000000 -1.000000 0.000001
vn 0.000000 -1.000000 0.000001
vn 0.000000 -1.000000 0.000001
vn 0.000000 -1.000000 -0.000001
vn 0.000000 -1.000000 -0.000001
vn 0.000000 -1.000000 -0.000001
vn 0.000000 -1.000000 -0.000001
vn 0.000000 -1.000000 -0.000000
vn 0.000000 -1.000000 -0.000000
vn 0.000000 -1.000000 -0.000000
vn 0.000000 -1.000000 -0.000000
vn 0.000000 -0.131558 -0.991308
vn 0.000000 -0.131558 -0.991308
vn 0.000000 -0.991311 0.131536
vn 0.000000 -0.991311 0.131536
vn 0.000000 -0.131537 -0.991311
vn 0.000000 -0.131537 -0.991311
vn 0.000000 0.991312 -0.131535
vn 0.000000 0.991312 -0.131535
vn 0.000000 -0.131525 -0.991313
vn 0.000000 -0.131525 -0.991313
vn 0.000000 0.991312 -0.131530
vn 0.000000 0.991312 -0.131530
vn 0.000000 -0.131536 -0.991311
vn 0.000000 -0.131536 -0.991311
vn 0.000000 0.991311 -0.131536
vn 0.000000 0.991311 -0.131536
vn 0.000000 -0.991311 0.131539
vn 0.000000 -0.991311 0.131539
vn 0.000000 0.131536 0.991311
vn 0.000000 0.131535 0.991311
vn 0.000000 0.131535 0.991312
vn 0.000000 0.991311 -0.131536
vn 0.000000 0.991311 -0.131536
vn 0.000000 -0.991311 0.131537
vn 0.000000 -0.991311 0.131537
vn 0.000000 -0.991311 0.131537
vn 0.000000 -0.991311 0.131537
vn 0.000000 -0.131536 -0.991311
vn 0.000000 -0.131536 -0.991311
vn 0.000000 -0.991311 0.131536
vn 0.000000 -0.991311 0.131536
vn 0.000000 -0.991311 0.131536
vn 0.000000 -0.991311 0.131536
vn 0.000000 -0.991311 0.131536
vn 0.000000 -0.991311 0.131536
vn 0.000000 -0.131537 -0.991311
vn 0.000000 -0.131537 -0.991311
vn 0.000000 0.991312 -0.131535
vn 0.000000 0.991312 -0.131535
vn 0.000000 0.991312 -0.131530
vn 0.000000 0.991312 -0.131530
vn 1.000000 0.000000 -0.000000
vn 1.000000 0.000000 -0.000000
vn 1.000000 0.000000 -0.000000
vn 1.000000 0.000000 -0.000000
vn 0.000000 -0.087116 0.996198
vn 0.000000 -0.087116 0.996198
vn 0.000000 -0.087116 0.996198
vn 0.000000 -0.087116 0.996198
vn -1.000000 0.000000 -0.000000
vn -1.000000 0.000000 -0.000000
vn -1.000000 0.000000 -0.000000
vn -1.000000 0.000000 -0.000000
vn 1.000000 0.000000 -0.000000
vn 1.000000 0.000000 -0.000000
vn 1.000000 0.000000 -0.000000
vn 1.000000 0.000000 -0.000000
vn -1.000000 0.000000 -0.000000
vn -1.000000 0.000000 -0.000000
vn -1.000000 0.000000 -0.000000
vn -1.000000 0.000000 -0.000000
vn 1.000000 0.000000 0.000000
vn 1.000000 0.000000 0.000000
vn 1.000000 0.000000 0.000000
vn 1.000000 0.000000 0.000000
vn -1.000000 0.000000 -0.000000
vn -1.000000 0.000000 -0.000000
vn -1.000000 0.000000 -0.000000
vn -1.000000 0.000000 -0.000000
vn 0.000000 0.015965 -0.999873
vn 0.000000 0.015965 -0.999873
vn 0.000000 0.015965 -0.999873
vn 0.000000 0.015965 -0.999873
vn 1.000000 -0.000000 0.000000
vn 1.000000 -0.000000 0.000000
vn 1.000000 -0.000000 0.000000
vn 1.000000 -0.000000 0.000000
vn 0.000000 -0.000007 1.000000
vn 0.000000 -0.000007 1.000000
vn 0.000000 -0.000007 1.000000
vn 0.000000 -0.000007 1.000000
vn -1.000000 -0.000000 0.000000
vn -1.000000 -0.000000 0.000000
vn -1.000000 -0.000000 0.000000
vn -1.000000 -0.000000 0.000000
vn 1.000000 0.000000 -0.000000
vn 1.000000 0.000000 -0.000000
vn 1.000000 0.000000 -0.000000
vn 1.000000 0.000000 -0.000000
vn -1.000000 0.000000 -0.000000
vn -1.000000 0.000000 -0.000000
vn -1.000000 0.000000 -0.000000
vn -1.000000 0.000000 -0.000000
vn 1.000000 0.000000 -0.000000
vn 1.000000 0.000000 -0.000000
vn 1.000000 0.000000 -0.000000
vn 1.000000 0.000000 -0.000000
vn -1.000000 0.000000 -0.000000
vn -1.000000 0.000000 -0.000000
vn -1.000000 0.000000 -0.000000
vn -1.000000 0.000000 -0.000000
vn 0.000000 0.000001 -1.000000
vn 0.000000 0.000001 -1.000000
vn 0.000000 0.000001 -1.000000
vn 0.000000 0.000001 -1.000000
vn 0.000000 1.000000 -0.000000
vn 0.000000 1.000000 -0.000000
vn 0.000000 1.000000 -0.000000
vn 0.000000 1.000000 -0.000000
vn 0.000000 1.000000 0.000000
vn 0.000000 1.000000 0.000000
vn 0.000000 1.000000 0.000000
vn 0.000000 1.000000 0.000000
vn -0.000000 1.000000 -0.000000
vn -0.000000 1.000000 -0.000000
vn -0.000000 1.000000 -0.000000
vn -0.000000 1.000000 -0.000000
vn -0.000001 1.000000 0.000001
vn -0.000001 1.000000 0.000001
vn -0.000001 1.000000 0.000001
vn -0.000001 1.000000 0.000001
vn 0.000001 1.000000 0.000001
vn 0.000001 1.000000 0.000001
vn 0.000001 1.000000 0.000001
vn 0.000001 1.000000 0.000001
vn 0.000000 1.000000 0.000001
vn 0.000000 1.000000 0.000001
vn 0.000000 1.000000 0.000001
vn 0.000000 1.000000 0.000001
vn -0.000000 1.000000 0.000001
vn -0.000000 1.000000 0.000001
vn -0.000000 1.000000 0.000001
vn -0.000000 1.000000 0.000001
vn 0.000000 1.000000 0.000001
vn 0.000000 1.000000 0.000001
vn 0.000000 1.000000 0.000001
vn 0.000000 1.000000 0.000001
s 1
g Computer_V3
usemtl blinn4SG
f 63/277/1 64/278/2 52/279/3 23/280/4
s 2
f 3/125/5 54/126/6 47/127/7 5/128/8
s 3
f 24/355/9 49/356/10 61/357/11 62/358/12
s 4
f 7/145/13 50/146/14 51/147/15 1/148/16
s 5
f 70/1/17 71/2/18 25/3/19 26/4/20
s 6
f 62/17/21 63/18/22 23/19/23 24/20/24
s 2
f 174/135/25 13/137/26 14/138/27 173/136/28
s 8
f 133/411/29 188/412/30 189/413/31 136/414/32
s 4
f 183/156/33 184/155/34 15/157/35 16/158/36
s 1
f 180/306/37 181/305/38 67/313/39 27/314/40
s 2
f 13/137/26 46/139/41 41/140/42 14/138/27
s 8
f 133/411/29 136/414/32 137/417/43 138/418/44
s 4
f 16/158/36 15/157/35 42/159/45 43/160/46
s 1
f 27/314/40 67/313/39 68/319/47 44/320/48
s 6
f 96/30/49 97/29/50 3/31/51 5/32/52
s 3
f 5/371/53 47/372/54 95/368/55 96/367/56
f 92/391/57 172/388/58 173/387/59 14/392/60
f 91/395/61 92/391/57 14/392/60 41/396/62
s 5
f 104/14/63 89/13/64 6/15/65 4/16/66
s 1
f 13/347/67 101/341/68 102/346/69 46/351/70
f 174/340/71 175/332/72 101/341/68 13/347/67
f 97/302/73 98/301/74 54/309/75 3/310/76
s 6
f 151/24/77 152/23/78 17/27/79 18/28/80
s 3
f 18/363/81 48/364/82 150/360/83 151/359/84
s 8
f 145/423/85 192/431/86 193/432/87 140/427/88
f 166/424/89 145/423/85 140/427/88 141/428/90
s 5
f 161/8/91 162/7/92 19/11/93 20/12/94
s 1
f 21/338/95 158/329/96 159/328/97 45/339/98
s 18
f 177/437/99 178/438/100 157/439/101 32/440/102
s 1
f 152/286/103 153/285/104 53/293/105 17/294/106
s 19
f 22/33/107 155/34/108 156/35/109 30/36/110
s 20
f 180/165/111 27/166/112 31/167/113 179/168/114
s 21
f 158/39/115 21/40/116 32/41/117 157/42/118
s 22
f 21/173/119 176/174/120 177/175/121 32/176/122
s 3
f 89/403/123 90/399/124 33/400/125 6/404/126
f 162/410/127 163/409/128 34/408/129 19/407/130
f 72/401/131 35/405/132 25/406/133 71/402/134
s 4
f 37/162/135 36/161/136 8/163/137 2/164/138
s 1
f 38/327/139 69/326/140 70/335/141 26/336/142
f 39/345/143 160/337/144 161/344/145 20/349/146
f 40/353/147 103/350/148 104/352/149 4/354/150
s 2
f 33/142/151 40/141/152 4/143/153 6/144/154
s 3
f 90/399/124 91/395/61 41/396/62 33/400/125
s 25
f 164/449/155 165/450/156 111/451/157 113/452/158
f 108/457/159 107/454/160 112/453/161 114/458/162
s 4
f 43/160/46 42/159/45 36/161/136 37/162/135
s 1
f 44/320/48 68/319/47 69/326/140 38/327/139
f 45/339/98 159/328/97 160/337/144 39/345/143
f 46/351/70 102/346/69 103/350/148 40/353/147
s 2
f 41/140/42 46/139/41 40/141/152 33/142/151
s 3
f 47/372/54 55/375/163 94/376/164 95/368/55
s 25
f 149/477/165 115/476/166 117/474/167 148/478/168
f 119/481/169 116/479/170 118/480/171 120/482/172
s 4
f 51/147/15 50/146/14 56/149/173 57/150/174
s 1
f 52/279/3 64/278/2 65/283/175 58/284/176
f 53/293/105 153/285/104 154/292/177 59/300/178
f 54/309/75 98/301/74 99/308/179 60/316/180
s 2
f 47/127/7 54/126/6 60/129/181 55/130/182
s 3
f 55/375/163 10/379/183 93/380/184 94/376/164
s 8
f 147/429/185 142/433/186 139/434/187 146/430/188
f 144/425/189 143/426/190 135/422/191 134/421/192
s 4
f 57/150/174 56/149/173 11/151/193 12/152/194
s 1
f 58/284/176 65/283/175 66/290/195 28/291/196
f 59/300/178 154/292/177 155/299/197 22/307/198
f 60/316/180 99/308/179 100/315/199 9/321/200
s 2
f 55/130/182 60/129/181 9/131/201 10/132/202
s 25
f 121/484/203 120/482/172 106/485/204 122/486/205
f 123/483/206 119/481/169 120/482/172 121/484/203
s 3
f 62/358/12 61/357/11 75/361/207 76/362/208
s 6
f 76/21/209 77/22/210 63/18/22 62/17/21
s 1
f 77/281/211 78/282/212 64/278/2 63/277/1
f 65/283/175 64/278/2 78/282/212 79/289/213
f 66/290/195 65/283/175 79/289/213 80/296/214
f 67/313/39 181/305/38 182/312/215 81/318/216
f 68/319/47 67/313/39 81/318/216 82/325/217
f 69/326/140 68/319/47 82/325/217 83/334/218
f 70/335/141 69/326/140 83/334/218 84/343/219
s 5
f 84/5/220 85/6/221 71/2/18 70/1/17
s 3
f 86/393/222 72/401/131 71/402/134 85/397/223
s 25
f 124/461/224 108/457/159 114/458/162 125/462/225
f 126/465/226 105/466/227 108/457/159 124/461/224
f 126/465/226 186/469/228 187/470/229 105/466/227
s 3
f 56/370/230 74/369/231 73/373/232 11/374/233
f 50/365/234 75/361/207 74/369/231 56/370/230
f 76/362/208 75/361/207 50/365/234 7/366/235
s 6
f 7/25/236 1/26/237 77/22/210 76/21/209
s 1
f 1/287/238 51/288/239 78/282/212 77/281/211
f 79/289/213 78/282/212 51/288/239 57/295/240
f 80/296/214 79/289/213 57/295/240 12/303/241
f 81/318/216 182/312/215 183/317/242 16/324/243
f 82/325/217 81/318/216 16/324/243 43/333/244
f 83/334/218 82/325/217 43/333/244 37/342/245
f 84/343/219 83/334/218 37/342/245 2/348/246
s 5
f 2/9/247 8/10/248 85/6/221 84/5/220
s 3
f 36/394/249 86/393/222 85/397/223 8/398/250
f 42/390/251 87/389/252 86/393/222 36/394/249
f 15/386/253 88/385/254 87/389/252 42/390/251
f 184/382/255 185/381/256 88/385/254 15/386/253
f 19/407/130 34/408/129 90/399/124 89/403/123
s 25
f 113/452/158 111/451/157 127/455/257 128/456/258
f 111/451/157 110/459/259 129/460/260 127/455/257
f 110/459/259 194/463/261 171/464/262 129/460/260
f 131/473/263 130/472/264 109/471/265 117/474/167
f 132/475/266 131/473/263 117/474/167 115/476/166
s 3
f 96/367/56 95/368/55 48/364/82 18/363/81
s 6
f 18/28/80 17/27/79 97/29/50 96/30/49
s 1
f 17/294/106 53/293/105 98/301/74 97/302/73
f 99/308/179 98/301/74 53/293/105 59/300/178
f 100/315/199 99/308/179 59/300/178 22/307/198
f 101/341/68 175/332/72 176/331/267 21/338/95
f 102/346/69 101/341/68 21/338/95 45/339/98
f 103/350/148 102/346/69 45/339/98 39/345/143
f 104/352/149 103/350/148 39/345/143 20/349/146
s 5
f 20/12/94 19/11/93 89/13/64 104/14/63
s 30
f 34/45/268 163/46/269 164/47/270 113/48/271
s off
f 35/49/272 72/53/273 114/54/274 112/50/275
s 31
f 150/57/276 48/58/277 115/59/278 149/60/279
s off
f 61/65/280 49/63/281 116/64/282 119/66/283
f 73/181/284 74/182/285 121/183/286 122/184/287
f 75/67/288 61/65/289 119/66/290 123/68/291
f 74/182/292 75/185/293 123/186/294 121/183/295
f 72/53/296 86/55/297 125/56/298 114/54/299
f 86/189/300 87/190/301 124/191/302 125/192/303
f 87/190/304 88/193/305 126/194/306 124/191/307
f 88/193/308 185/195/309 186/196/310 126/194/311
f 91/197/312 90/198/313 128/199/314 127/200/315
f 90/51/316 34/45/317 113/48/318 128/52/319
f 92/201/320 91/197/321 127/200/322 129/202/323
s 32
f 172/203/324 92/201/325 129/202/326 171/204/327
s off
f 94/209/328 93/207/329 130/208/330 131/210/331
f 95/211/332 94/209/333 131/210/334 132/212/335
f 48/58/336 95/61/337 132/62/338 115/59/339
f 105/213/340 187/214/341 188/215/342 133/216/343
f 107/69/344 108/70/345 138/71/346 137/72/347
f 108/217/348 105/213/349 133/216/350 138/218/351
s 33
f 194/219/352 110/220/353 140/221/354 193/222/355
s off
f 110/220/356 111/223/357 141/224/358 140/221/359
s 34
f 111/75/360 165/74/361 166/73/362 141/76/363
s 35
f 148/77/364 117/78/365 142/79/366 147/80/367
s off
f 117/229/368 109/227/369 139/228/370 142/230/371
f 120/83/372 118/81/373 143/82/374 144/84/375
f 106/231/376 120/232/377 144/233/378 134/234/379
s 36
f 168/489/380 190/490/381 191/491/382 170/492/383
s 8
f 143/426/190 147/429/185 146/430/188 135/422/191
s 35
f 118/81/384 148/77/364 147/80/367 143/82/385
s 25
f 116/479/170 149/477/165 148/478/168 118/480/171
s 31
f 49/63/386 150/57/276 149/60/279 116/64/387
s 3
f 151/359/84 150/360/83 49/356/10 24/355/9
s 6
f 24/20/24 23/19/23 152/23/78 151/24/77
s 1
f 23/280/4 52/279/3 153/285/104 152/286/103
f 154/292/177 153/285/104 52/279/3 58/284/176
f 155/299/197 154/292/177 58/284/176 28/291/196
s 19
f 156/35/109 155/34/108 28/37/388 29/38/389
s 18
f 157/439/101 178/438/100 179/443/390 31/444/391
s 21
f 27/43/392 158/39/115 157/42/118 31/44/393
s 1
f 159/328/97 158/329/96 27/314/40 44/320/48
f 160/337/144 159/328/97 44/320/48 38/327/139
f 161/344/145 160/337/144 38/327/139 26/336/142
s 5
f 26/4/20 25/3/19 162/7/92 161/8/91
s 3
f 25/406/133 35/405/132 163/409/128 162/410/127
s 30
f 164/47/270 163/46/269 35/49/394 112/50/395
s 25
f 112/453/161 107/454/160 165/450/156 164/449/155
s 34
f 166/73/362 165/74/361 107/69/396 137/72/397
s 8
f 137/417/43 136/414/32 145/423/85 166/424/89
s 37
f 136/237/398 189/238/399 190/239/400 168/240/401
s off
f 135/85/402 146/86/403 169/87/404 167/88/405
s 38
f 192/245/406 145/246/407 170/247/408 191/248/409
s off
f 145/89/410 136/90/411 168/91/412 170/92/413
s 32
f 196/205/414 172/203/324 171/204/327 195/206/415
s 3
f 173/387/59 172/388/58 196/384/416 197/383/417
s 2
f 198/133/418 174/135/25 173/136/28 197/134/419
s 1
f 198/330/420 199/323/421 175/332/72 174/340/71
f 176/331/267 175/332/72 199/323/421 200/322/422
s 22
f 177/175/121 176/174/120 200/177/423 201/178/424
s 18
f 201/441/425 202/442/426 178/438/100 177/437/99
f 179/443/390 178/438/100 202/442/426 203/447/427
s 20
f 204/169/428 180/165/111 179/168/114 203/170/429
s 1
f 204/298/430 205/297/431 181/305/38 180/306/37
f 182/312/215 181/305/38 205/297/431 206/304/432
f 183/317/242 182/312/215 206/304/432 207/311/433
s 4
f 207/154/434 208/153/435 184/155/34 183/156/33
s 3
f 208/378/436 209/377/437 185/381/256 184/382/255
s off
f 228/253/438 227/254/439 229/255/440 230/256/441
f 231/257/442 228/253/443 230/256/444 232/258/445
f 233/259/446 231/257/447 232/258/448 234/260/449
s 8
f 189/413/31 188/412/30 212/415/450 213/416/451
s 37
f 190/239/400 189/238/399 213/241/452 214/242/453
s 36
f 191/491/382 190/490/381 214/493/454 215/494/455
s 38
f 216/249/456 192/245/406 191/248/409 215/250/457
s 8
f 193/432/87 192/431/86 216/435/458 217/436/459
s 33
f 218/225/460 194/219/352 193/222/355 217/226/461
s 25
f 171/464/262 194/463/261 218/467/462 195/468/463
s 32
f 93/207/464 196/205/414 195/206/415 130/208/465
s 3
f 197/383/417 196/384/416 93/380/184 10/379/183
s 2
f 9/131/201 198/133/418 197/134/419 10/132/202
s 1
f 9/321/200 100/315/199 199/323/421 198/330/420
f 200/322/422 199/323/421 100/315/199 22/307/198
s 22
f 201/178/424 200/177/423 22/179/466 30/180/467
s 18
f 30/445/468 156/446/469 202/442/426 201/441/425
f 203/447/427 202/442/426 156/446/469 29/448/470
s 20
f 28/171/471 204/169/428 203/170/429 29/172/472
s 1
f 28/291/196 66/290/195 205/297/431 204/298/430
f 206/304/432 205/297/431 66/290/195 80/296/214
f 207/311/433 206/304/432 80/296/214 12/303/241
s 4
f 12/152/194 11/151/193 208/153/435 207/154/434
s 3
f 11/374/233 73/373/232 209/377/437 208/378/436
s off
f 210/187/473 209/188/474 73/181/475 122/184/476
s 25
f 211/487/477 210/488/478 122/486/205 106/485/204
s off
f 212/235/479 211/236/480 106/231/481 134/234/482
s 8
f 213/416/451 212/415/450 134/421/192 135/422/191
s 37
f 214/242/453 213/241/452 135/243/483 167/244/484
s 36
f 215/494/455 214/493/454 167/495/485 169/496/486
s 38
f 146/251/487 216/249/456 215/250/457 169/252/488
s 8
f 217/436/459 216/435/458 146/430/188 139/434/187
s 33
f 109/227/489 218/225/460 217/226/461 139/228/490
s 25
f 195/468/463 218/467/462 109/471/265 130/472/264
s off
f 186/93/491 185/94/492 219/95/493 220/96/494
f 185/497/495 209/498/496 221/499/497 219/500/498
f 209/101/499 210/102/500 222/103/501 221/104/502
f 187/97/503 186/93/504 220/96/505 223/98/506
f 210/102/507 211/105/508 224/106/509 222/103/510
f 188/99/511 187/97/512 223/98/513 225/100/514
f 211/105/515 212/107/516 226/108/517 224/106/518
f 212/415/519 188/412/520 225/419/521 226/420/522
f 236/109/523 235/110/524 227/111/525 228/112/526
f 235/501/527 237/502/528 229/503/529 227/504/530
f 237/117/531 238/118/532 230/119/533 229/120/534
f 239/113/535 236/109/536 228/112/537 231/114/538
f 238/118/539 240/121/540 232/122/541 230/119/542
f 241/115/543 239/113/544 231/114/545 233/116/546
f 240/121/547 242/123/548 234/124/549 232/122/550
f 242/505/551 241/506/552 233/507/553 234/508/554
f 220/261/555 219/262/556 235/263/557 236/264/558
f 219/262/559 221/265/560 237/266/561 235/263/562
f 221/265/563 222/267/564 238/268/565 237/266/566
f 223/269/567 220/261/568 236/264/569 239/270/570
f 222/267/571 224/271/572 240/272/573 238/268/574
f 225/273/575 223/269/576 239/270/577 241/274/578
f 224/271/579 226/275/580 242/276/581 240/272/582
f 226/275/583 225/273/584 241/274/585 242/276/586
g default
v -0.300000 0.210000 -0.945000
v 0.300000 0.210000 -0.945000
v -0.300000 0.240000 -0.945000
v 0.300000 0.240000 -0.945000
v -0.300000 0.240000 -1.280000
v 0.300000 0.240000 -1.280000
v -0.300000 0.210000 -1.280000
v 0.300000 0.210000 -1.280000
v -0.280000 0.240000 -1.280000
v -0.280000 0.210000 -1.280000
v -0.280000 0.210000 -0.945000
v -0.280000 0.240000 -0.945000
v -0.250000 0.240000 -1.280000
v -0.250000 0.210000 -1.280000
v -0.250000 0.210000 -0.945000
v -0.250000 0.240000 -0.945000
v 0.250000 0.240000 -1.280000
v 0.250000 0.210000 -1.280000
v 0.250000 0.210000 -0.945000
v 0.250000 0.240000 -0.945000
v 0.280000 0.240000 -1.280000
v 0.280000 0.210000 -1.280000
v 0.280000 0.210000 -0.945000
v 0.280000 0.240000 -0.945000
v 0.250000 0.240000 -1.260000
v -0.250000 0.240000 -1.260000
v -0.280000 0.240000 -1.260000
v -0.300000 0.240000 -1.260000
v -0.300000 0.210000 -1.260000
v 0.300000 0.210000 -1.260000
v 0.300000 0.240000 -1.260000
v 0.280000 0.240000 -1.260000
v 0.250000 0.240000 -1.230000
v -0.250000 0.240000 -1.230000
v -0.280000 0.240000 -1.230000
v -0.300000 0.240000 -1.230000
v -0.300000 0.210000 -1.230000
v 0.300000 0.210000 -1.230000
v 0.300000 0.240000 -1.230000
v 0.280000 0.240000 -1.230000
v 0.250000 0.240000 -0.995000
v -0.250000 0.240000 -0.995000
v -0.280000 0.240000 -0.995000
v -0.300000 0.240000 -0.995000
v -0.300000 0.210000 -0.995000
v 0.300000 0.210000 -0.995000
v 0.300000 0.240000 -0.995000
v 0.280000 0.240000 -0.995000
v 0.250000 0.240000 -0.965000
v -0.250000 0.240000 -0.965000
v -0.280000 0.240000 -0.965000
v -0.300000 0.240000 -0.965000
v -0.300000 0.210000 -0.965000
v 0.300000 0.210000 -0.965000
v 0.300000 0.240000 -0.965000
v 0.280000 0.240000 -0.965000
v 0.290000 0.240000 -1.280000
v 0.290000 0.210000 -1.280000
v 0.290000 0.210000 -1.260000
v 0.290000 0.210000 -1.230000
v 0.290000 0.210000 -0.995000
v 0.290000 0.210000 -0.965000
v 0.290000 0.210000 -0.945000
v 0.290000 0.240000 -0.945000
v 0.290000 0.240000 -0.965000
v 0.290000 0.240000 -0.995000
v 0.290000 0.240000 -1.230000
v 0.290000 0.240000 -1.260000
v -0.290000 0.240000 -1.280000
v -0.290000 0.210000 -1.280000
v -0.290000 0.210000 -1.260000
v -0.290000 0.210000 -1.230000
v -0.290000 0.210000 -0.995000
v -0.290000 0.210000 -0.965000
v -0.290000 0.210000 -0.945000
v -0.290000 0.240000 -0.945000
v -0.290000 0.240000 -0.965000
v -0.290000 0.240000 -0.995000
v -0.290000 0.240000 -1.230000
v -0.290000 0.240000 -1.260000
v -0.300000 0.240000 -1.270000
v -0.300000 0.210000 -1.270000
v -0.290000 0.210000 -1.270000
v -0.280000 0.210000 -1.270000
v -0.250000 0.210000 -1.270000
v 0.250000 0.210000 -1.270000
v 0.280000 0.210000 -1.270000
v 0.290000 0.210000 -1.270000
v 0.300000 0.210000 -1.270000
v 0.300000 0.240000 -1.270000
v 0.290000 0.240000 -1.270000
v 0.280000 0.240000 -1.270000
v 0.250000 0.240000 -1.270000
v -0.250000 0.240000 -1.270000
v -0.280000 0.240000 -1.270000
v -0.290000 0.240000 -1.270000
v -0.300000 0.240000 -0.955000
v -0.300000 0.210000 -0.955000
v -0.290000 0.210000 -0.955000
v -0.280000 0.210000 -0.955000
v -0.250000 0.210000 -0.955000
v 0.250000 0.210000 -0.955000
v 0.280000 0.210000 -0.955000
v 0.290000 0.210000 -0.955000
v 0.300000 0.210000 -0.955000
v 0.300000 0.240000 -0.955000
v 0.290000 0.240000 -0.955000
v 0.280000 0.240000 -0.955000
v 0.250000 0.240000 -0.955000
v -0.250000 0.240000 -0.955000
v -0.280000 0.240000 -0.955000
v -0.290000 0.240000 -0.955000
v -0.280000 0.200000 -1.260000
v -0.250000 0.200000 -1.260000
v -0.280000 0.200000 -1.270000
v -0.250000 0.200000 -1.270000
v 0.250000 0.200000 -1.260000
v 0.250000 0.200000 -1.270000
v 0.280000 0.200000 -1.260000
v 0.280000 0.200000 -1.270000
v 0.290000 0.200000 -1.260000
v 0.290000 0.200000 -1.270000
v -0.280000 0.200000 -1.230000
v -0.250000 0.200000 -1.230000
v 0.250000 0.200000 -1.230000
v 0.280000 0.200000 -1.230000
v 0.290000 0.200000 -1.230000
v -0.280000 0.200000 -0.995000
v -0.250000 0.200000 -0.995000
v 0.250000 0.200000 -0.995000
v 0.280000 0.200000 -0.995000
v 0.290000 0.200000 -0.995000
v -0.280000 0.200000 -0.965000
v -0.250000 0.200000 -0.965000
v 0.250000 0.200000 -0.965000
v 0.280000 0.200000 -0.965000
v 0.290000 0.200000 -0.965000
v -0.290000 0.200000 -1.270000
v -0.290000 0.200000 -1.260000
v -0.290000 0.200000 -1.230000
v -0.290000 0.200000 -0.995000
v -0.290000 0.200000 -0.965000
v -0.290000 0.200000 -0.955000
v -0.280000 0.200000 -0.955000
v -0.250000 0.200000 -0.955000
v 0.250000 0.200000 -0.955000
v 0.280000 0.200000 -0.955000
v 0.290000 0.200000 -0.955000
v -0.280000 0.000000 -1.230000
v -0.250000 0.000000 -1.230000
v -0.280000 0.000000 -1.260000
v -0.250000 0.000000 -1.260000
v 0.250000 0.000000 -1.230000
v 0.280000 0.000000 -1.230000
v 0.250000 0.000000 -1.260000
v 0.280000 0.000000 -1.260000
v -0.280000 0.000000 -0.965000
v -0.250000 0.000000 -0.965000
v -0.280000 0.000000 -0.995000
v -0.250000 0.000000 -0.995000
v 0.250000 0.000000 -0.965000
v 0.280000 0.000000 -0.965000
v 0.250000 0.000000 -0.995000
v 0.280000 0.000000 -0.995000
vt 0.701852 0.994444
vt 0.864817 0.837964
vt 0.888889 0.937963
vt 0.890741 0.937963
vt 0.890741 0.939815
vt 0.888889 0.939815
vt 0.700000 0.994444
vt 0.892593 0.939815
vt 0.866669 0.837964
vt 0.866669 0.836112
vt 0.864817 0.836112
vt 0.868518 0.900000
vt 0.868521 0.836112
vt 0.700000 0.994444
vt 0.892593 0.937963
vt 0.898148 0.937963
vt 0.898148 0.939815
vt 0.990741 0.937963
vt 0.868521 0.837964
vt 0.874076 0.837964
vt 0.874076 0.836112
vt 0.872222 0.900000
vt 0.870370 0.900000
vt 0.966667 0.837964
vt 0.990741 0.939815
vt 0.996296 0.939815
vt 0.996296 0.937963
vt 0.998148 0.937963
vt 0.998148 0.939815
vt 0.966667 0.836112
vt 0.870370 0.898148
vt 0.972222 0.837964
vt 0.898148 0.998148
vt 0.898148 0.996296
vt 0.990741 0.996296
vt 0.972222 0.836112
vt 0.872222 0.898148
vt 0.974074 0.837964
vt 0.990741 0.998148
vt 0.892593 0.998148
vt 0.892593 0.996296
vt 0.974074 0.836112
vt 0.877777 0.900000
vt 0.864817 0.896296
vt 0.888889 0.996296
vt 0.890741 0.996296
vt 0.890741 0.998148
vt 0.888889 0.998148
vt 0.996296 0.998148
vt 0.996296 0.996296
vt 0.998148 0.996296
vt 0.998148 0.998148
vt 0.898148 0.990741
vt 0.990741 0.990741
vt 0.892593 0.990741
vt 0.888889 0.990741
vt 0.866669 0.896296
vt 0.700000 1.000000
vt 0.872222 0.900000
vt 0.870370 0.900000
vt 1.000000 0.818424
vt 0.983333 0.818424
vt 0.764817 0.896296
vt 0.877778 0.900000
vt 1.000000 0.818424
vt 0.877778 0.898148
vt 0.994445 0.818424
vt 0.872222 0.898148
vt 0.870370 0.900000
vt 0.868518 0.900000
vt 0.890741 0.990741
vt 0.866669 0.894444
vt 0.701852 0.994444
vt 0.996296 0.990741
vt 0.998148 0.990741
vt 0.898148 0.947222
vt 0.990741 0.947222
vt 0.892593 0.947222
vt 0.888889 0.947222
vt 0.890741 0.947222
vt 0.996296 0.947222
vt 0.998148 0.947222
vt 0.898148 0.941667
vt 0.864817 0.894444
vt 0.870370 0.898148
vt 1.000000 0.857407
vt 0.988889 0.781387
vt 0.983333 0.781387
vt 1.000000 0.781387
vt 0.983333 0.818424
vt 0.994444 0.818424
vt 0.994444 0.857407
vt 0.983333 0.781387
vt 1.000000 0.781387
vt 0.994445 0.781387
vt 0.868518 0.898148
vt 0.988889 0.818424
vt 0.990741 0.941667
vt 0.866669 0.888889
vt 0.892593 0.941667
vt 0.888889 0.941667
vt 0.890741 0.941667
vt 0.996296 0.941667
vt 0.998148 0.941667
vt 1.000000 0.937963
vt 1.000000 0.939815
vt 0.864817 0.888889
vt 0.868518 0.898148
vt 1.000000 0.818424
vt 0.983333 0.818424
vt 0.988889 0.818424
vt 0.983333 0.818424
vt 1.000000 0.818424
vt 0.870370 0.898148
vt 1.000000 0.941667
vt 0.866669 0.845371
vt 1.000000 0.947222
vt 1.000000 0.990741
vt 1.000000 0.996296
vt 1.000000 0.998148
vt 0.998148 1.000000
vt 0.701852 1.000000
vt 1.000000 1.000000
vt 0.864817 0.845371
vt 0.862962 0.900000
vt 0.994444 0.862963
vt 0.988889 0.781387
vt 0.983333 0.781387
vt 1.000000 0.781387
vt 0.988889 0.818424
vt 0.994444 0.818424
vt 1.000000 0.862963
vt 0.988889 0.781387
vt 0.983333 0.781387
vt 1.000000 0.781387
vt 0.862962 0.900000
vt 0.994444 0.818424
vt 0.996296 1.000000
vt 0.866669 0.839816
vt 0.990741 1.000000
vt 0.898148 1.000000
vt 0.892593 1.000000
vt 0.864817 0.839816
vt 0.862962 0.898148
vt 0.819443 0.900000
vt 0.819443 0.898148
vt 0.813888 0.900000
vt 0.813888 0.898148
vt 0.759262 0.896296
vt 0.970370 0.900000
vt 0.759262 0.898148
vt 0.764817 0.898148
vt 0.857409 0.896296
vt 0.988889 0.818424
vt 0.970370 0.898148
vt 0.975925 0.900000
vt 0.975925 0.898148
vt 0.977777 0.900000
vt 0.857409 0.898148
vt 0.862962 0.898148
vt 0.862965 0.896296
vt 0.862965 0.898148
vt 0.864817 0.896296
vt 0.864817 0.898148
vt 0.857409 0.890741
vt 0.764817 0.890741
vt 0.864817 0.890741
vt 0.862965 0.890741
vt 1.000000 0.857407
vt 0.994444 0.781387
vt 0.994444 0.857407
vt 0.994444 0.862963
vt 0.977778 0.818424
vt 0.977778 0.781387
vt 0.764817 0.847222
vt 0.759262 0.847222
vt 0.977778 0.818424
vt 1.000000 0.862963
vt 0.988889 0.781387
vt 0.977778 0.781387
vt 1.000000 0.857407
vt 0.994444 0.857407
vt 0.994444 0.862962
vt 0.994444 0.781387
vt 1.000000 0.862962
vt 1.000000 0.857407
vt 0.994444 0.857407
vt 0.994444 0.781387
vt 0.994444 0.862963
vt 1.000000 0.862963
vt 0.977778 0.781387
vt 0.977778 0.781387
vt 0.977778 0.818424
vt 0.759262 0.890741
vt 0.977778 0.818424
vt 0.857409 0.847222
vt 0.862965 0.847222
vt 0.864817 0.847222
vt 0.857409 0.841667
vt 0.764817 0.841667
vt 0.864817 0.841667
vt 0.862965 0.841667
vt 0.757410 0.896296
vt 0.757410 0.898148
vt 0.701852 1.000000
vt 0.700000 1.000000
vt 0.758333 1.000000
vt 0.758333 0.994444
vt 0.760185 0.994444
vt 0.760185 1.000000
vt 0.762037 0.994444
vt 0.763889 0.994444
vt 0.763889 1.000000
vt 0.752778 1.000000
vt 0.762037 1.000000
vt 0.765741 1.000000
vt 0.765741 0.994444
vt 0.760185 0.994444
vt 0.890741 1.000000
vt 0.758333 0.994444
vt 0.758333 1.000000
vt 0.760185 1.000000
vt 0.752778 0.994444
vt 0.771296 0.994444
vt 0.762037 1.000000
vt 0.763889 1.000000
vt 0.763889 0.994444
vt 0.762037 0.994444
vt 0.765741 1.000000
vt 0.771297 1.000000
vt 0.771297 0.994444
vt 0.888889 1.000000
vt 0.877777 0.898148
vt 0.970370 0.900000
vt 0.970370 0.898148
vt 0.975926 0.900000
vt 0.757410 0.890741
vt 0.975926 0.898148
vt 0.757410 0.847222
vt 0.757410 0.841667
vt 0.759262 0.841667
vt 0.977777 0.898148
vt 0.759262 0.839815
vt 0.757410 0.839815
vt 0.764817 0.839815
vt 0.857409 0.839815
vt 0.819443 0.900000
vt 0.862965 0.839815
vt 0.819443 0.898148
vt 0.813888 0.900000
vt 0.813888 0.898148
vt 0.864817 0.839815
vt 0.765741 0.994444
vt 0.863889 1.000000
vt 0.863889 0.994444
vt 0.869445 1.000000
vt 0.869445 0.994444
vt 0.871297 1.000000
vt 0.975926 0.894444
vt 0.974074 0.894444
vt 0.974074 0.896296
vt 0.975926 0.896296
vt 0.752778 1.000000
vt 0.709259 0.994444
vt 0.975926 0.888889
vt 0.709259 1.000000
vt 0.703704 0.994444
vt 0.703704 1.000000
vt 0.871297 0.994444
vt 0.974074 0.888889
vt 0.975926 0.845371
vt 0.974074 0.845371
vt 0.975926 0.839816
vt 0.974074 0.839816
vt 0.771296 1.000000
vt 0.863889 0.994444
vt 0.863889 1.000000
vt 0.869445 0.994444
vt 0.869445 1.000000
vt 0.871297 0.994444
vt 0.975926 0.837964
vt 0.975926 0.836112
vt 0.864817 0.898148
vt 0.866669 0.898148
vt 0.868521 0.896296
vt 0.868521 0.898148
vt 0.874076 0.896296
vt 0.871297 1.000000
vt 0.874076 0.898148
vt 0.752778 0.994444
vt 0.709259 1.000000
vt 0.709259 0.994444
vt 0.703704 1.000000
vt 0.703704 0.994444
vt 0.966667 0.896296
vt 0.966667 0.898148
vt 0.972222 0.896296
vt 0.972222 0.898148
vt 0.974074 0.898148
vt 0.975926 0.898148
vt 0.870370 0.900000
vt 0.870370 0.898148
vt 0.762037 0.994444
vt 0.873149 1.000000
vt 0.812036 0.900000
vt 0.812036 0.898148
vt 0.873149 0.994444
vt 0.762037 0.994444
vt 0.977778 0.900000
vt 0.977778 0.898148
vt 0.873149 0.994444
vt 0.762037 1.000000
vt 0.812036 0.900000
vt 0.812036 0.898148
vt 0.762037 1.000000
vt 0.873149 1.000000
vn 0.000000 0.000000 1.000000
vn 0.000000 0.000000 1.000000
vn 0.000000 0.000000 1.000000
vn 0.000000 0.000000 1.000000
vn 0.000000 1.000000 0.000000
vn 0.000000 1.000000 0.000000
vn 0.000000 1.000000 0.000000
vn 0.000000 1.000000 0.000000
vn 0.000000 0.000000 -1.000000
vn 0.000000 0.000000 -1.000000
vn 0.000000 0.000000 -1.000000
vn 0.000000 0.000000 -1.000000
vn 0.000000 -1.000000 0.000000
vn 0.000000 -1.000000 0.000000
vn 0.000000 -1.000000 0.000000
vn 0.000000 -1.000000 0.000000
vn 1.000000 0.000000 0.000000
vn 1.000000 0.000000 0.000000
vn 1.000000 0.000000 0.000000
vn 1.000000 0.000000 0.000000
vn -1.000000 0.000000 0.000000
vn -1.000000 0.000000 0.000000
vn -1.000000 0.000000 0.000000
vn -1.000000 0.000000 0.000000
vn 0.000000 0.000000 -1.000000
vn 0.000000 0.000000 -1.000000
vn 0.000000 0.000000 -1.000000
vn 0.000000 0.000000 -1.000000
vn 0.000000 -1.000000 0.000000
vn 0.000000 -1.000000 0.000000
vn 0.000000 -1.000000 0.000000
vn 0.000000 -1.000000 0.000000
vn 0.000000 0.000000 1.000000
vn 0.000000 0.000000 1.000000
vn 0.000000 0.000000 1.000000
vn 0.000000 0.000000 1.000000
vn 0.000000 1.000000 0.000000
vn 0.000000 1.000000 0.000000
vn 0.000000 1.000000 0.000000
vn 0.000000 1.000000 0.000000
vn 0.000000 0.000000 -1.000000
vn 0.000000 0.000000 -1.000000
vn 0.000000 -1.000000 0.000000
vn 0.000000 -1.000000 0.000000
vn 0.000000 0.000000 1.000000
vn 0.000000 0.000000 1.000000
vn 0.000000 1.000000 0.000000
vn 0.000000 1.000000 0.000000
vn 0.000000 0.000000 -1.000000
vn 0.000000 0.000000 -1.000000
vn 0.000000 -1.000000 0.000000
vn 0.000000 -1.000000 0.000000
vn 0.000000 0.000000 1.000000
vn 0.000000 0.000000 1.000000
vn 0.000000 1.000000 0.000000
vn 0.000000 1.000000 0.000000
vn 0.000000 0.000000 -1.000000
vn 0.000000 0.000000 -1.000000
vn 0.000000 -1.000000 0.000000
vn 0.000000 -1.000000 0.000000
vn 0.000000 0.000000 1.000000
vn 0.000000 0.000000 1.000000
vn 0.000000 1.000000 0.000000
vn 0.000000 1.000000 0.000000
vn 0.000000 1.000000 0.000000
vn 0.000000 1.000000 0.000000
vn 0.000000 1.000000 0.000000
vn 0.000000 1.000000 0.000000
vn 0.000000 1.000000 0.000000
vn 0.000000 1.000000 0.000000
vn 0.000000 1.000000 0.000000
vn 0.000000 1.000000 0.000000
vn 0.000000 1.000000 0.000000
vn 0.000000 1.000000 0.000000
vn -1.000000 0.000000 0.000000
vn -1.000000 0.000000 0.000000
vn -1.000000 0.000000 0.000000
vn -1.000000 0.000000 0.000000
vn 0.000000 -1.000000 0.000000
vn 0.000000 -1.000000 0.000000
vn 0.000000 -1.000000 0.000000
vn 0.000000 -1.000000 0.000000
vn 0.000000 -1.000000 0.000000
vn 0.000000 -1.000000 0.000000
vn 0.000000 -1.000000 0.000000
vn 0.000000 -1.000000 0.000000
vn 0.000000 -1.000000 0.000000
vn 0.000000 -1.000000 0.000000
vn 0.000000 -1.000000 0.000000
vn 0.000000 -1.000000 0.000000
vn 0.000000 -1.000000 0.000000
vn 0.000000 -1.000000 0.000000
vn 1.000000 0.000000 0.000000
vn 1.000000 0.000000 0.000000
vn 1.000000 0.000000 0.000000
vn 1.000000 0.000000 0.000000
vn 0.000000 1.000000 0.000000
vn 0.000000 1.000000 0.000000
vn 0.000000 1.000000 0.000000
vn 0.000000 1.000000 0.000000
vn 0.000000 1.000000 0.000000
vn 0.000000 1.000000 0.000000
vn 0.000000 1.000000 0.000000
vn 0.000000 1.000000 0.000000
vn 0.000000 1.000000 0.000000
vn -1.000000 0.000000 0.000000
vn -1.000000 0.000000 0.000000
vn 0.000000 -1.000000 0.000000
vn 0.000000 -1.000000 0.000000
vn 0.000000 -1.000000 0.000000
vn 0.000000 -1.000000 0.000000
vn 0.000000 -1.000000 0.000000
vn 0.000000 -1.000000 0.000000
vn 0.000000 -1.000000 0.000000
vn 0.000000 -1.000000 0.000000
vn 0.000000 -1.000000 0.000000
vn 0.000000 -1.000000 0.000000
vn 0.000000 -1.000000 0.000000
vn 0.000000 -1.000000 0.000000
vn 0.000000 -1.000000 0.000000
vn 0.000000 -1.000000 0.000000
vn 1.000000 0.000000 0.000000
vn 1.000000 0.000000 0.000000
vn 0.000000 1.000000 0.000000
vn 0.000000 1.000000 0.000000
vn 0.000000 1.000000 0.000000
vn 0.000000 1.000000 0.000000
vn 0.000000 1.000000 0.000000
vn 0.000000 1.000000 0.000000
vn 0.000000 1.000000 0.000000
vn -1.000000 0.000000 0.000000
vn -1.000000 0.000000 0.000000
vn 0.000000 -1.000000 0.000000
vn 0.000000 -1.000000 0.000000
vn 0.000000 -1.000000 0.000000
vn 0.000000 -1.000000 0.000000
vn 0.000000 -1.000000 0.000000
vn 0.000000 -1.000000 0.000000
vn 0.000000 -1.000000 0.000000
vn 0.000000 -1.000000 0.000000
vn 1.000000 0.000000 0.000000
vn 1.000000 0.000000 0.000000
vn 0.000000 1.000000 0.000000
vn 0.000000 1.000000 0.000000
vn 0.000000 1.000000 0.000000
vn 0.000000 1.000000 0.000000
vn 0.000000 1.000000 0.000000
vn 0.000000 1.000000 0.000000
vn 0.000000 1.000000 0.000000
vn -1.000000 0.000000 0.000000
vn -1.000000 0.000000 0.000000
vn 0.000000 -1.000000 0.000000
vn 0.000000 -1.000000 0.000000
vn 0.000000 -1.000000 0.000000
vn 0.000000 -1.000000 0.000000
vn 0.000000 -1.000000 0.000000
vn 0.000000 -1.000000 0.000000
vn 0.000000 -1.000000 0.000000
vn 0.000000 -1.000000 0.000000
vn 0.000000 -1.000000 0.000000
vn 0.000000 -1.000000 0.000000
vn 0.000000 -1.000000 0.000000
vn 0.000000 -1.000000 0.000000
vn 0.000000 -1.000000 0.000000
vn 0.000000 -1.000000 0.000000
vn 1.000000 0.000000 0.000000
vn 1.000000 0.000000 0.000000
vn 0.000000 1.000000 0.000000
vn 0.000000 1.000000 0.000000
vn 0.000000 0.000000 -1.000000
vn 0.000000 0.000000 -1.000000
vn 0.000000 -1.000000 0.000000
vn 0.000000 -1.000000 0.000000
vn 0.000000 -1.000000 0.000000
vn 0.000000 -1.000000 0.000000
vn 0.000000 -1.000000 0.000000
vn 0.000000 -1.000000 0.000000
vn 0.000000 -1.000000 0.000000
vn 0.000000 -1.000000 0.000000
vn 0.000000 -1.000000 0.000000
vn 0.000000 -1.000000 0.000000
vn 0.000000 -1.000000 0.000000
vn 0.000000 -1.000000 0.000000
vn 0.000000 0.000000 1.000000
vn 0.000000 0.000000 1.000000
vn 0.000000 1.000000 0.000000
vn 0.000000 1.000000 0.000000
vn 0.000000 1.000000 0.000000
vn 0.000000 1.000000 0.000000
vn 0.000000 1.000000 0.000000
vn 0.000000 1.000000 0.000000
vn 0.000000 1.000000 0.000000
vn 0.000000 -1.000000 0.000000
vn 0.000000 -1.000000 0.000000
vn 0.000000 -1.000000 0.000000
vn 0.000000 -1.000000 0.000000
vn 0.000000 -1.000000 0.000000
vn 0.000000 -1.000000 0.000000
vn -1.000000 0.000000 0.000000
vn -1.000000 0.000000 0.000000
vn 0.000000 -1.000000 0.000000
vn 0.000000 -1.000000 0.000000
vn 0.000000 -1.000000 0.000000
vn 0.000000 -1.000000 0.000000
vn 0.000000 -1.000000 0.000000
vn 0.000000 -1.000000 0.000000
vn 0.000000 -1.000000 0.000000
vn 0.000000 -1.000000 0.000000
vn 0.000000 -1.000000 0.000000
vn 0.000000 -1.000000 0.000000
vn 0.000000 -1.000000 0.000000
vn 0.000000 -1.000000 0.000000
vn 1.000000 0.000000 0.000000
vn 1.000000 0.000000 0.000000
vn 0.000000 1.000000 0.000000
vn 0.000000 1.000000 0.000000
vn 0.000000 1.000000 0.000000
vn 0.000000 1.000000 0.000000
vn 0.000000 1.000000 0.000000
vn 0.000000 1.000000 0.000000
vn 0.000000 1.000000 0.000000
vn 0.000000 1.000000 0.000000
vn 0.000000 -1.000000 0.000000
vn 0.000000 -1.000000 0.000000
vn 0.000000 -1.000000 0.000000
vn 0.000000 -1.000000 0.000000
vn 0.000000 -1.000000 0.000000
vn 0.000000 -1.000000 0.000000
vn 0.000000 0.000000 -1.000000
vn 0.000000 0.000000 -1.000000
vn 0.000000 0.000000 -1.000000
vn 0.000000 0.000000 -1.000000
vn 0.000000 0.000000 -1.000000
vn 0.000000 0.000000 -1.000000
vn 0.000000 0.000000 -1.000000
vn 0.000000 0.000000 -1.000000
vn 0.000000 0.000000 -1.000000
vn 0.000000 0.000000 -1.000000
vn 0.000000 0.000000 -1.000000
vn 0.000000 0.000000 -1.000000
vn 0.000000 0.000000 -1.000000
vn 0.000000 0.000000 -1.000000
vn 0.000000 0.000000 -1.000000
vn 0.000000 0.000000 -1.000000
vn 1.000000 0.000000 0.000000
vn 1.000000 0.000000 0.000000
vn 1.000000 0.000000 0.000000
vn 1.000000 0.000000 0.000000
vn 1.000000 0.000000 0.000000
vn 1.000000 0.000000 0.000000
vn 1.000000 0.000000 0.000000
vn 1.000000 0.000000 0.000000
vn 1.000000 0.000000 0.000000
vn 1.000000 0.000000 0.000000
vn 1.000000 0.000000 0.000000
vn 1.000000 0.000000 0.000000
vn 1.000000 0.000000 0.000000
vn 1.000000 0.000000 0.000000
vn 1.000000 0.000000 0.000000
vn 1.000000 0.000000 0.000000
vn -1.000000 0.000000 0.000000
vn -1.000000 0.000000 0.000000
vn -1.000000 0.000000 0.000000
vn -1.000000 0.000000 0.000000
vn 0.000000 0.000000 -1.000000
vn 0.000000 0.000000 -1.000000
vn 0.000000 0.000000 -1.000000
vn 0.000000 0.000000 -1.000000
vn -1.000000 0.000000 0.000000
vn -1.000000 0.000000 0.000000
vn -1.000000 0.000000 0.000000
vn -1.000000 0.000000 0.000000
vn -1.000000 0.000000 0.000000
vn -1.000000 0.000000 0.000000
vn -1.000000 0.000000 0.000000
vn -1.000000 0.000000 0.000000
vn -1.000000 0.000000 0.000000
vn -1.000000 0.000000 0.000000
vn -1.000000 0.000000 0.000000
vn -1.000000 0.000000 0.000000
vn 0.000000 0.000000 1.000000
vn 0.000000 0.000000 1.000000
vn 0.000000 0.000000 1.000000
vn 0.000000 0.000000 1.000000
vn -1.000000 0.000000 -0.000002
vn -1.000000 0.000000 -0.000002
vn -1.000000 0.000000 -0.000002
vn -1.000000 0.000000 -0.000002
vn 0.000000 0.000000 1.000000
vn 0.000000 0.000000 1.000000
vn 0.000000 0.000000 1.000000
vn 0.000000 0.000000 1.000000
vn 0.000000 0.000000 1.000000
vn 0.000000 0.000000 1.000000
vn 0.000000 0.000000 1.000000
vn 0.000000 0.000000 1.000000
vn 0.000000 0.000000 1.000000
vn 0.000000 0.000000 1.000000
vn 0.000000 0.000000 1.000000
vn 0.000000 0.000000 1.000000
vn 0.000000 0.000000 1.000000
vn 0.000000 0.000000 1.000000
vn 0.000000 0.000000 1.000000
vn 0.000000 0.000000 1.000000
vn 1.000000 0.000000 0.000000
vn 1.000000 0.000000 0.000000
vn 1.000000 0.000000 0.000000
vn 1.000000 0.000000 0.000000
vn 0.000000 0.000000 1.000000
vn 0.000000 0.000000 1.000000
vn 0.000000 0.000000 1.000000
vn 0.000000 0.000000 1.000000
vn -1.000000 0.000000 0.000000
vn -1.000000 0.000000 0.000000
vn -1.000000 0.000000 0.000000
vn -1.000000 0.000000 0.000000
vn 0.000000 0.000000 -1.000000
vn 0.000000 0.000000 -1.000000
vn 0.000000 0.000000 -1.000000
vn 0.000000 0.000000 -1.000000
vn 1.000000 0.000000 0.000000
vn 1.000000 0.000000 0.000000
vn 1.000000 0.000000 0.000000
vn 1.000000 0.000000 0.000000
vn 0.000000 0.000000 1.000000
vn 0.000000 0.000000 1.000000
vn 0.000000 0.000000 1.000000
vn 0.000000 0.000000 1.000000
vn -1.000000 0.000000 0.000000
vn -1.000000 0.000000 0.000000
vn -1.000000 0.000000 0.000000
vn -1.000000 0.000000 0.000000
vn 0.000000 0.000000 -1.000000
vn 0.000000 0.000000 -1.000000
vn 0.000000 0.000000 -1.000000
vn 0.000000 0.000000 -1.000000
vn 1.000000 0.000000 0.000000
vn 1.000000 0.000000 0.000000
vn 1.000000 0.000000 0.000000
vn 1.000000 0.000000 0.000000
vn 0.000000 0.000000 1.000000
vn 0.000000 0.000000 1.000000
vn 0.000000 0.000000 1.000000
vn 0.000000 0.000000 1.000000
vn -1.000000 0.000000 0.000000
vn -1.000000 0.000000 0.000000
vn -1.000000 0.000000 0.000000
vn -1.000000 0.000000 0.000000
vn 0.000000 0.000000 -1.000000
vn 0.000000 0.000000 -1.000000
vn 0.000000 0.000000 -1.000000
vn 0.000000 0.000000 -1.000000
vn 1.000000 0.000000 0.000000
vn 1.000000 0.000000 0.000000
vn 1.000000 0.000000 0.000000
vn 1.000000 0.000000 0.000000
vn 0.000000 0.000000 1.000000
vn 0.000000 0.000000 1.000000
vn 0.000000 0.000000 1.000000
vn 0.000000 0.000000 1.000000
vn -1.000000 0.000000 0.000000
vn -1.000000 0.000000 0.000000
vn -1.000000 0.000000 0.000000
vn -1.000000 0.000000 0.000000
vn 0.000000 0.000000 -1.000000
vn 0.000000 0.000000 -1.000000
vn 0.000000 0.000000 -1.000000
vn 0.000000 0.000000 -1.000000
vn 1.000000 0.000000 0.000000
vn 1.000000 0.000000 0.000000
vn 1.000000 0.000000 0.000000
vn 1.000000 0.000000 0.000000
s 1
g Table
usemtl blinn5SG
f 243/719/587 317/720/588 318/721/589 245/723/590
s 2
f 245/511/591 318/512/592 354/513/593 339/514/594
s 3
f 247/733/595 311/734/596 312/735/597 249/736/598
s 4
f 340/510/599 341/517/600 317/518/601 243/519/602
s 5
f 244/522/603 347/581/604 348/713/605 246/714/606
s 6
f 340/509/607 243/515/608 245/566/609 339/630/610
s 3
f 251/737/611 255/738/612 256/739/613 252/761/614
s 4
f 253/521/615 342/527/616 343/528/617 257/529/618
s 1
f 254/724/619 253/725/620 257/732/621 258/783/622
s 2
f 353/516/623 254/523/624 258/524/625 352/525/626
s 3
f 255/738/612 259/762/627 260/763/628 256/739/613
s 4
f 257/529/618 343/528/617 344/532/629 261/538/630
s 1
f 258/783/622 257/732/621 261/784/631 262/785/632
s 2
f 352/525/626 258/524/625 262/526/633 351/533/634
s 3
f 259/762/627 263/764/635 264/765/636 260/763/628
s 4
f 261/538/630 344/532/629 345/540/637 265/544/638
s 1
f 262/785/632 261/784/631 265/786/639 266/787/640
s 2
f 350/534/641 351/533/634 262/526/633 266/535/642
s 3
f 263/764/635 299/766/643 300/777/644 264/765/636
s 4
f 265/544/638 345/540/637 346/546/645 305/550/646
s 1
f 266/787/640 265/786/639 305/788/647 306/796/648
s 2
f 350/534/641 266/535/642 306/536/649 349/537/650
f 336/541/651 268/542/652 267/543/653 335/547/654
f 337/548/655 269/549/656 268/542/652 336/541/651
f 270/553/657 322/554/658 338/555/659 323/556/660
s 6
f 324/726/661 271/728/662 270/729/663 323/730/664
s 4
f 324/552/665 325/565/666 313/580/667 271/592/668
s 12
f 356/571/669 355/657/670 357/659/671 358/660/672
f 359/661/673 356/571/669 358/660/672 360/667/674
f 361/669/675 359/661/673 360/667/674 362/670/676
f 363/671/677 361/669/675 362/670/676 364/672/678
s 5
f 273/715/679 272/716/680 331/717/681 332/718/682
s 2
f 334/557/683 274/558/684 310/559/685 333/560/686
f 335/547/654 267/543/653 274/558/684 334/557/683
f 268/542/652 276/561/687 275/562/688 267/543/653
f 269/549/656 277/563/689 276/561/687 268/542/652
f 278/564/690 321/579/691 322/554/658 270/553/657
s 6
f 271/728/662 279/731/692 278/771/693 270/729/663
s 4
f 271/592/668 313/580/667 314/607/694 279/615/695
s off
f 392/594/696 391/600/697 393/634/698 394/640/699
s 12
f 367/673/700 366/674/701 356/571/669 359/661/673
s off
f 396/677/702 395/679/703 397/680/704 398/686/705
s 12
f 369/675/706 368/676/707 361/669/675 363/671/677
s 5
f 281/722/708 280/798/709 272/716/680 273/715/679
s 2
f 274/558/684 282/582/710 309/583/711 310/559/685
f 274/558/684 267/543/653 275/562/688 282/582/710
f 276/561/687 284/584/712 283/585/713 275/562/688
f 277/563/689 285/586/714 284/584/712 276/561/687
f 286/587/715 320/588/716 321/579/691 278/564/690
s 6
f 279/731/692 287/772/717 286/774/718 278/771/693
s 4
f 279/615/695 314/607/694 315/624/719 287/632/720
s 12
f 371/683/721 370/684/722 365/702/723 366/674/701
f 372/704/724 371/683/721 366/674/701 367/673/700
f 373/705/725 372/704/724 367/673/700 368/676/707
f 374/706/726 373/705/725 368/676/707 369/675/706
s 5
f 289/799/727 288/800/728 280/798/709 281/722/708
s 2
f 282/582/710 290/589/729 308/590/730 309/583/711
f 282/582/710 275/562/688 283/585/713 290/589/729
f 284/584/712 292/591/731 291/606/732 283/585/713
f 285/586/714 293/608/733 292/591/731 284/584/712
f 294/609/734 319/610/735 320/588/716 286/587/715
s 6
f 287/772/717 295/775/736 294/776/737 286/774/718
s 4
f 287/632/720 315/624/719 316/647/738 295/651/739
s off
f 400/689/740 399/690/741 401/691/742 402/693/743
s 12
f 377/707/744 376/708/745 371/683/721 372/704/724
s off
f 404/694/746 403/695/747 405/697/748 406/698/749
s 12
f 379/709/750 378/710/751 373/705/725 374/706/726
s 5
f 297/801/752 296/802/753 288/800/728 289/799/727
s 2
f 290/589/729 298/611/754 307/612/755 308/590/730
f 290/589/729 283/585/713 291/606/732 298/611/754
s 3
f 299/766/643 248/812/756 250/815/757 300/777/644
s 4
f 272/767/758 301/768/759 330/769/760 331/770/761
f 280/773/762 302/778/763 301/768/759 272/767/758
f 288/779/764 303/780/765 302/778/763 280/773/762
f 296/781/766 304/782/767 303/780/765 288/779/764
f 305/550/646 346/546/645 347/789/768 244/790/769
s 1
f 306/796/648 305/788/647 244/819/770 246/824/771
s 2
f 349/537/650 306/536/649 246/613/772 348/614/773
f 308/590/730 307/612/755 297/623/774 289/625/775
f 309/583/711 308/590/730 289/625/775 281/626/776
f 310/559/685 309/583/711 281/626/776 273/627/777
f 333/560/686 310/559/685 273/627/777 332/628/778
s 3
f 311/734/596 251/737/611 252/761/614 312/735/597
s 12
f 381/711/779 380/712/780 357/659/671 355/657/670
f 382/745/781 381/711/779 355/657/670 365/702/723
f 383/747/782 382/745/781 365/702/723 370/684/722
f 384/748/783 383/747/782 370/684/722 375/749/784
s 4
f 317/518/601 341/517/600 342/527/616 253/521/615
s 1
f 318/721/589 317/720/588 253/725/620 254/724/619
s 2
f 354/513/593 318/512/592 254/523/624 353/516/623
f 320/588/716 319/610/735 293/608/733 285/586/714
f 321/579/691 320/588/716 285/586/714 277/563/689
f 322/554/658 321/579/691 277/563/689 269/549/656
f 338/555/659 322/554/658 269/549/656 337/548/655
s 6
f 249/816/785 324/726/661 323/730/664 247/820/786
s 4
f 249/791/787 312/792/788 325/565/666 324/552/665
f 326/793/789 325/565/666 312/792/788 252/794/790
f 327/795/791 326/793/789 252/794/790 256/797/792
f 328/803/793 327/795/791 256/797/792 260/804/794
f 329/805/795 328/803/793 260/804/794 264/806/796
f 330/769/760 329/805/795 264/806/796 300/807/797
f 331/770/761 330/769/760 300/807/797 250/808/798
s 5
f 332/718/682 331/717/681 250/811/799 248/823/800
s 2
f 299/629/801 333/560/686 332/628/778 248/631/802
f 263/646/803 334/557/683 333/560/686 299/629/801
f 259/648/804 335/547/654 334/557/683 263/646/803
f 255/649/805 336/541/651 335/547/654 259/648/804
f 251/650/806 337/548/655 336/541/651 255/649/805
f 311/727/807 338/555/659 337/548/655 251/650/806
f 323/556/660 338/555/659 311/727/807 247/740/808
s 6
f 295/775/736 340/509/607 339/630/610 294/776/737
s 4
f 295/651/739 316/647/738 341/517/600 340/510/599
s 12
f 386/751/809 385/752/810 384/748/783 375/749/784
f 387/753/811 386/751/809 375/749/784 376/708/745
f 388/754/812 387/753/811 376/708/745 377/707/744
f 389/756/813 388/754/812 377/707/744 378/710/751
f 390/760/814 389/756/813 378/710/751 379/709/750
s 4
f 347/789/768 346/546/645 304/782/767 296/781/766
s 5
f 348/713/605 347/581/604 296/802/753 297/801/752
s 2
f 307/612/755 349/537/650 348/614/773 297/623/774
f 298/611/754 350/534/641 349/537/650 307/612/755
f 298/611/754 291/606/732 351/533/634 350/534/641
f 292/591/731 352/525/626 351/533/634 291/606/732
f 293/608/733 353/516/623 352/525/626 292/591/731
f 319/610/735 354/513/593 353/516/623 293/608/733
f 339/514/594 354/513/593 319/610/735 294/609/734
s off
f 326/567/815 327/572/816 358/574/817 357/576/818
f 327/572/819 328/658/820 360/663/821 358/574/822
f 328/658/823 329/664/824 362/665/825 360/663/826
f 329/664/827 330/666/828 364/750/829 362/665/830
f 330/577/831 301/578/832 363/604/833 364/622/834
f 301/578/835 302/644/836 369/652/837 363/604/838
f 302/644/839 303/653/840 374/654/841 369/652/842
f 303/653/843 304/655/844 379/656/845 374/654/846
f 313/520/847 325/568/848 380/593/849 381/616/850
f 325/809/851 326/567/852 357/576/853 380/810/854
f 314/633/855 313/520/856 381/616/857 382/668/858
f 315/755/859 314/633/860 382/668/861 383/757/862
f 316/758/863 315/755/864 383/757/865 384/759/866
f 342/530/867 341/531/868 385/539/869 386/545/870
f 341/813/871 316/758/872 384/759/873 385/814/874
f 343/551/875 342/530/876 386/545/877 387/741/878
f 344/742/879 343/551/880 387/741/881 388/743/882
f 345/744/883 344/742/884 388/743/885 389/746/886
f 346/817/887 345/744/888 389/746/889 390/818/890
f 304/655/891 346/821/892 390/822/893 379/656/894
f 366/599/895 365/619/896 391/595/897 392/696/898
f 365/619/899 355/570/900 393/596/901 391/595/902
f 355/570/903 356/703/904 394/700/905 393/596/906
f 356/569/907 366/599/908 392/696/909 394/597/910
f 368/605/911 367/598/912 395/601/913 396/687/914
f 367/598/915 359/685/916 397/688/917 395/601/918
f 359/573/919 361/575/920 398/603/921 397/602/922
f 361/575/923 368/605/924 396/687/925 398/603/926
f 376/639/927 375/662/928 399/635/929 400/692/930
f 375/662/931 370/618/932 401/636/933 399/635/934
f 370/618/935 371/701/936 402/699/937 401/636/938
f 371/617/939 376/639/940 400/692/941 402/637/942
f 378/645/943 377/638/944 403/641/945 404/678/946
f 377/638/947 372/620/948 405/642/949 403/641/950
f 372/620/951 373/681/952 406/682/953 405/642/954
f 373/621/955 378/645/956 404/678/957 406/643/958
