# This file uses centimeters as units for non-parametric coordinates.

mtllib 3D_House_Back.mtl
g default
v 0.950000 0.010000 -1.290000
v 0.940000 0.010000 -1.290000
v 0.940000 0.800000 -1.290000
v 0.950000 0.800000 -1.290000
v 0.950000 0.010000 -1.280000
v 0.950000 0.800000 -1.280000
v 0.000000 1.280000 -1.290000
v 0.000000 1.280000 -1.280000
v 0.940000 0.800000 -1.280000
v 0.940000 0.000000 0.000000
v 0.940000 0.000000 -1.280000
v 0.950000 0.000000 -1.280000
v 0.950000 0.000000 0.000000
v 0.950000 0.010000 0.000000
v 0.000000 0.010000 0.000000
v 0.000000 0.000000 0.000000
v 0.940000 0.010000 0.000000
v 0.940000 0.680000 -0.956324
v 0.942421 0.300000 -0.956324
v 0.950000 0.300000 -0.956324
v 0.950000 0.680000 -0.956324
v 0.942421 0.300000 -0.316324
v 0.950000 0.300000 -0.316324
v 0.940000 0.680000 -0.316324
v 0.950000 0.680000 -0.316324
v 0.940000 0.800000 0.000000
v 0.950000 0.800000 0.000000
v 0.940000 0.010000 -1.280000
v 0.000000 0.010000 -1.280000
v 0.000000 0.000000 -1.280000
v 0.000000 0.010000 -1.290000
v 0.950000 0.000000 -1.290000
v 0.940000 0.000000 -1.290000
v -0.940000 0.010000 0.000000
v -0.940000 0.000000 0.000000
v -0.950000 0.010000 0.000000
v -0.940000 0.800000 0.000000
v -0.950000 0.800000 0.000000
v -0.940000 0.800000 -1.290000
v -0.940000 0.800000 -1.280000
v -0.950000 0.300000 -0.316324
v -0.950000 0.680000 -0.316324
v -0.940000 0.680000 -0.316324
v -0.940000 0.300000 -0.316324
v -0.950000 0.800000 -1.280000
v 0.000000 0.000000 -1.290000
v -0.950000 0.680000 -0.956324
v -0.940000 0.680000 -0.956324
v -0.950000 0.000000 0.000000
v -0.940000 0.010000 -1.280000
v -0.940000 0.000000 -1.280000
v -0.940000 0.010000 -1.290000
v -0.950000 0.300000 -0.956324
v -0.940000 0.300000 -0.956324
v -0.950000 0.800000 -1.290000
v -0.950000 0.000000 -1.280000
v -0.950000 0.010000 -1.280000
v -0.940000 0.000000 -1.290000
v -0.950000 0.010000 -1.290000
v -0.950000 0.000000 -1.290000
v 0.940000 0.652859 -0.930000
v 0.942421 0.327141 -0.930000
v 0.950000 0.327141 -0.930000
v 0.950000 0.652859 -0.930000
v 0.942421 0.327141 -0.350000
v 0.950000 0.327141 -0.350000
v 0.940000 0.652859 -0.350000
v 0.950000 0.652859 -0.350000
v -0.950000 0.327141 -0.350000
v -0.950000 0.652859 -0.350000
v -0.940000 0.652859 -0.350000
v -0.940000 0.327141 -0.350000
v -0.950000 0.652859 -0.930000
v -0.940000 0.652859 -0.930000
v -0.950000 0.327141 -0.930000
v -0.940000 0.327141 -0.930000
v 0.950000 0.800000 -0.630000
v 0.940000 0.800000 -0.630000
v 0.940000 0.680000 -0.630000
v 0.940000 0.652859 -0.630000
v 0.950000 0.652859 -0.630000
v 0.950000 0.680000 -0.630000
v 0.950000 0.800000 -0.650000
v 0.940000 0.800000 -0.650000
v 0.940000 0.680000 -0.650000
v 0.940000 0.652859 -0.650000
v 0.950000 0.652859 -0.650000
v 0.950000 0.680000 -0.650000
v 0.950000 0.327141 -0.630000
v 0.942421 0.327141 -0.630000
v 0.942421 0.300000 -0.630000
v 0.940000 0.010000 -0.630000
v 0.000000 0.010000 -0.630000
v -0.940000 0.010000 -0.630000
v -0.940000 0.300000 -0.630000
v -0.940000 0.327141 -0.630000
v -0.950000 0.327141 -0.630000
v -0.950000 0.300000 -0.630000
v -0.950000 0.010000 -0.630000
v -0.950000 0.000000 -0.630000
v -0.940000 0.000000 -0.630000
v 0.000000 0.000000 -0.630000
v 0.940000 0.000000 -0.630000
v 0.950000 0.000000 -0.630000
v 0.950000 0.010000 -0.630000
v 0.950000 0.300000 -0.630000
v 0.950000 0.327141 -0.650000
v 0.942421 0.327141 -0.650000
v 0.942421 0.300000 -0.650000
v 0.940000 0.010000 -0.650000
v 0.000000 0.010000 -0.650000
v -0.940000 0.010000 -0.650000
v -0.940000 0.300000 -0.650000
v -0.940000 0.327141 -0.650000
v -0.950000 0.327141 -0.650000
v -0.950000 0.300000 -0.650000
v -0.950000 0.010000 -0.650000
v -0.950000 0.000000 -0.650000
v -0.940000 0.000000 -0.650000
v 0.000000 0.000000 -0.650000
v 0.940000 0.000000 -0.650000
v 0.950000 0.000000 -0.650000
v 0.950000 0.010000 -0.650000
v 0.950000 0.300000 -0.650000
v -0.950000 0.680000 -0.650000
v -0.950000 0.652859 -0.650000
v -0.940000 0.652859 -0.650000
v -0.940000 0.680000 -0.650000
v -0.940000 0.800000 -0.650000
v -0.950000 0.800000 -0.650000
v -0.950000 0.680000 -0.630000
v -0.950000 0.652859 -0.630000
v -0.940000 0.652859 -0.630000
v -0.940000 0.680000 -0.630000
v -0.940000 0.800000 -0.630000
v -0.950000 0.800000 -0.630000
v 0.950000 0.540000 0.000000
v 0.940000 0.540000 0.000000
v 0.940000 0.540000 -0.316324
v 0.940000 0.540000 -0.350000
v 0.950000 0.540000 -0.350000
v 0.950000 0.540000 -0.316324
v 0.950000 0.520000 0.000000
v 0.940000 0.520000 0.000000
v 0.940000 0.520001 -0.316324
v 0.940000 0.520001 -0.350000
v 0.950000 0.520001 -0.350000
v 0.950000 0.520001 -0.316324
v -0.940000 0.540000 -0.350000
v -0.950000 0.540000 -0.350000
v -0.950000 0.540000 -0.316324
v -0.950000 0.540000 0.000000
v -0.940000 0.540000 0.000000
v -0.940000 0.540000 -0.316324
v -0.940000 0.520001 -0.350000
v -0.950000 0.520001 -0.350000
v -0.950000 0.520001 -0.316324
v -0.950000 0.519999 0.000000
v -0.940000 0.519999 0.000000
v -0.940000 0.520001 -0.316324
v 0.950000 0.539999 -0.956324
v 0.950000 0.539999 -0.930000
v 0.940000 0.539999 -0.930000
v 0.940000 0.539999 -0.956324
v 0.940000 0.539999 -1.280000
v 0.000000 0.540001 -1.280000
v -0.940000 0.539999 -1.280000
v -0.940000 0.539999 -0.956324
v -0.940000 0.539999 -0.930000
v -0.950000 0.539999 -0.930000
v -0.950000 0.539999 -0.956324
v -0.950000 0.539999 -1.280000
v -0.950000 0.539999 -1.290000
v -0.940000 0.539999 -1.290000
v 0.000000 0.540001 -1.290000
v 0.940000 0.539999 -1.290000
v 0.950000 0.539999 -1.290000
v 0.950000 0.539999 -1.280000
v 0.950000 0.519999 -0.956324
v 0.950000 0.519999 -0.930000
v 0.940000 0.519999 -0.930000
v 0.940000 0.519999 -0.956324
v 0.940000 0.519999 -1.280000
v -0.000001 0.520000 -1.280000
v -0.940000 0.519999 -1.280000
v -0.940000 0.519999 -0.956324
v -0.940000 0.519999 -0.930000
v -0.950000 0.519999 -0.930000
v -0.950000 0.519999 -0.956324
v -0.950000 0.519999 -1.280000
v -0.950000 0.519999 -1.290000
v -0.940000 0.519999 -1.290000
v 0.000000 0.520000 -1.290000
v 0.940000 0.519999 -1.290000
v 0.950000 0.519999 -1.290000
v 0.950000 0.519999 -1.280000
v -0.950000 0.540000 -0.650000
v -0.940000 0.540000 -0.650000
v -0.940000 0.540000 -0.630000
v -0.950000 0.540000 -0.630000
v -0.950000 0.520000 -0.650000
v -0.940000 0.520000 -0.650000
v -0.940000 0.520000 -0.630000
v -0.950000 0.520000 -0.630000
v 0.940000 0.540000 -0.650000
v 0.940000 0.540000 -0.630000
v 0.950000 0.540000 -0.630000
v 0.950000 0.540000 -0.650000
v 0.940000 0.520000 -0.650000
v 0.940000 0.520000 -0.630000
v 0.950000 0.520000 -0.630000
v 0.950000 0.520000 -0.650000
v 0.970000 0.300000 -0.956324
v 0.970000 0.519999 -0.956324
v 0.970000 0.519999 -0.930000
v 0.970000 0.327141 -0.930000
v 0.970000 0.300000 -0.316324
v 0.970000 0.300000 -0.630000
v 0.970000 0.327142 -0.630000
v 0.970000 0.327142 -0.350000
v 0.970000 0.680000 -0.630000
v 0.970000 0.680000 -0.316324
v 0.970000 0.652859 -0.350000
v 0.970000 0.652859 -0.630000
v 0.970000 0.520001 -0.316324
v 0.970000 0.520001 -0.350000
v 0.970000 0.680000 -0.650000
v 0.970000 0.652859 -0.650000
v 0.970000 0.680000 -0.956324
v 0.970000 0.652859 -0.930000
v 0.970000 0.300000 -0.650000
v 0.970000 0.327141 -0.650000
v 0.970000 0.540000 -0.630000
v 0.970000 0.540000 -0.650000
v 0.970000 0.540000 -0.316324
v 0.970000 0.540000 -0.350000
v 0.970000 0.539999 -0.956324
v 0.970000 0.539999 -0.930000
v 0.970000 0.520000 -0.630000
v 0.970000 0.520000 -0.650000
v -0.970000 0.540000 -0.316324
v -0.970000 0.680000 -0.316324
v -0.970000 0.652859 -0.350000
v -0.970000 0.540000 -0.350000
v -0.970000 0.680000 -0.630000
v -0.970000 0.652859 -0.630000
v -0.970000 0.300000 -0.630000
v -0.970000 0.300000 -0.316324
v -0.970000 0.327141 -0.350000
v -0.970000 0.327141 -0.630000
v -0.970000 0.519999 -0.956324
v -0.970000 0.300000 -0.956324
v -0.970000 0.327141 -0.930000
v -0.970000 0.519999 -0.930000
v -0.970000 0.300000 -0.650000
v -0.970000 0.327141 -0.650000
v -0.970000 0.680000 -0.650000
v -0.970000 0.680000 -0.956324
v -0.970000 0.652859 -0.930000
v -0.970000 0.652859 -0.650000
v -0.970000 0.520000 -0.630000
v -0.970000 0.520000 -0.650000
v -0.970000 0.520001 -0.316324
v -0.970000 0.520001 -0.350000
v -0.970000 0.539999 -0.956324
v -0.970000 0.539999 -0.930000
v -0.970000 0.540000 -0.630000
v -0.970000 0.540000 -0.650000
v 0.930000 0.519999 -0.956324
v 0.930000 0.300000 -0.956324
v 0.930000 0.327141 -0.930000
v 0.930000 0.519999 -0.930000
v 0.930000 0.300000 -0.630000
v 0.930000 0.300000 -0.316324
v 0.930000 0.327141 -0.350000
v 0.930000 0.327141 -0.630000
v 0.930000 0.680000 -0.316324
v 0.930000 0.680000 -0.630000
v 0.930000 0.652859 -0.630000
v 0.930000 0.652859 -0.350000
v 0.930000 0.520001 -0.316324
v 0.930000 0.520001 -0.350000
v 0.930000 0.680000 -0.650000
v 0.930000 0.652859 -0.650000
v 0.930000 0.680000 -0.956324
v 0.930000 0.652859 -0.930000
v 0.930000 0.300000 -0.650000
v 0.930000 0.327141 -0.650000
v 0.930000 0.540000 -0.650000
v 0.930000 0.540000 -0.630000
v 0.930000 0.540000 -0.316324
v 0.930000 0.540000 -0.350000
v 0.930000 0.539999 -0.956324
v 0.930000 0.539999 -0.930000
v 0.930000 0.520000 -0.650000
v 0.930000 0.520000 -0.630000
v -0.930000 0.680000 -0.316324
v -0.930000 0.540000 -0.316324
v -0.930000 0.539999 -0.350000
v -0.930000 0.652858 -0.350000
v -0.930000 0.680000 -0.630000
v -0.930000 0.652859 -0.630000
v -0.930000 0.300000 -0.316324
v -0.930000 0.300000 -0.630000
v -0.930000 0.327141 -0.630000
v -0.930000 0.327141 -0.350000
v -0.930000 0.300000 -0.956324
v -0.930000 0.519999 -0.956324
v -0.930000 0.519998 -0.930000
v -0.930000 0.327141 -0.930000
v -0.930000 0.300000 -0.650000
v -0.930000 0.327141 -0.650000
v -0.930000 0.680000 -0.956324
v -0.930000 0.680000 -0.650000
v -0.930000 0.652858 -0.650000
v -0.930000 0.652858 -0.930000
v -0.930000 0.519999 -0.650000
v -0.930000 0.519999 -0.630000
v -0.930000 0.520001 -0.316324
v -0.930000 0.520000 -0.350000
v -0.930000 0.539999 -0.956324
v -0.930000 0.539998 -0.930000
v -0.930000 0.539999 -0.650000
v -0.930000 0.539999 -0.630000
vt 0.950002 0.001852
vt 0.951854 0.001852
vt 0.951854 0.096296
vt 0.950002 0.096296
vt 0.950002 0.000000
vt 0.951854 0.000000
vt 0.951854 0.100000
vt 0.950002 0.100000
vt 0.890062 0.096296
vt 0.890062 0.055555
vt 0.833336 0.001852
vt 0.833336 0.000000
vt 0.951854 0.148148
vt 0.950002 0.148148
vt 0.890062 0.100000
vt 0.833336 0.055555
vt 0.829632 0.001852
vt 0.829632 0.000000
vt 0.890062 0.125926
vt 0.829632 0.055555
vt 0.712965 0.000000
vt 0.712965 0.001852
vt 0.833335 0.148148
vt 0.833336 0.125926
vt 0.771544 0.055556
vt 0.829632 0.148148
vt 0.829632 0.125926
vt 0.771544 0.096296
vt 0.712965 0.096296
vt 0.771544 0.125926
vt 0.712965 0.148148
vt 0.771544 0.100000
vt 0.712965 0.100000
vt 0.357408 0.146298
vt 0.357408 0.124075
vt 0.415497 0.124075
vt 0.474076 0.146298
vt 0.353705 0.146298
vt 0.353705 0.124075
vt 0.415497 0.098149
vt 0.474076 0.098149
vt 0.237037 0.146298
vt 0.296978 0.124075
vt 0.415497 0.094445
vt 0.474076 0.094445
vt 0.237037 0.098149
vt 0.296978 0.098149
vt 0.415497 0.053704
vt 0.474076 0.000000
vt 0.237037 0.094445
vt 0.296978 0.094445
vt 0.357409 0.053704
vt 0.357409 0.000000
vt 0.237037 0.000000
vt 0.296978 0.053704
vt 0.353705 0.053704
vt 0.353705 0.000000
vt 0.596298 0.000000
vt 0.712965 0.000000
vt 0.712965 0.001852
vt 0.596298 0.001852
vt 0.654387 0.055556
vt 0.596298 0.055556
vt 0.592594 0.000000
vt 0.592594 0.001852
vt 0.712965 0.096296
vt 0.654387 0.096296
vt 0.592595 0.055556
vt 0.475928 0.000000
vt 0.475928 0.001852
vt 0.712965 0.100000
vt 0.654387 0.100000
vt 0.535868 0.055556
vt 0.474076 0.000000
vt 0.474076 0.001852
vt 0.654386 0.125926
vt 0.712965 0.148148
vt 0.535868 0.096296
vt 0.475928 0.096296
vt 0.474076 0.096296
vt 0.596298 0.148148
vt 0.596298 0.125926
vt 0.535868 0.100000
vt 0.475928 0.100000
vt 0.474076 0.100000
vt 0.592595 0.148148
vt 0.592594 0.125926
vt 0.535868 0.125926
vt 0.475928 0.148148
vt 0.474076 0.148148
vt 0.000000 0.000000
vt 0.116667 0.000000
vt 0.116667 0.053704
vt 0.058579 0.053704
vt 0.120370 0.000000
vt 0.120370 0.053704
vt 0.058579 0.094445
vt 0.000000 0.094444
vt 0.237037 0.000000
vt 0.177097 0.053704
vt 0.058579 0.098148
vt 0.000000 0.098148
vt 0.237037 0.094444
vt 0.177097 0.094444
vt 0.058579 0.124074
vt 0.000000 0.146296
vt 0.237037 0.098148
vt 0.177097 0.098148
vt 0.116667 0.124074
vt 0.116667 0.146296
vt 0.237037 0.146296
vt 0.177097 0.124074
vt 0.120370 0.124074
vt 0.120370 0.146296
vt 0.958910 0.866128
vt 0.918169 0.866128
vt 0.923195 0.861254
vt 0.958910 0.861254
vt 0.918169 0.809402
vt 0.923195 0.809402
vt 0.962613 0.866128
vt 0.962613 0.861254
vt 0.918169 0.805698
vt 0.923195 0.805698
vt 0.962613 0.809402
vt 0.958910 0.809402
vt 0.988539 0.866128
vt 0.983513 0.861254
vt 0.918169 0.747610
vt 0.923195 0.753846
vt 0.958910 0.805698
vt 0.962613 0.805698
vt 0.983513 0.809402
vt 0.988539 0.809402
vt 0.958910 0.747610
vt 0.958910 0.753846
vt 0.983513 0.805698
vt 0.962613 0.753846
vt 0.988539 0.805698
vt 0.962613 0.747610
vt 0.988539 0.747610
vt 0.983513 0.753846
vt 0.246000 0.404447
vt 0.286741 0.404447
vt 0.286741 0.409321
vt 0.251026 0.409321
vt 0.290444 0.404447
vt 0.290444 0.409321
vt 0.251026 0.461173
vt 0.246000 0.461173
vt 0.316370 0.404447
vt 0.311344 0.409321
vt 0.290444 0.461173
vt 0.286741 0.461173
vt 0.251026 0.464877
vt 0.246000 0.464877
vt 0.316370 0.461173
vt 0.311344 0.461173
vt 0.290444 0.464877
vt 0.286741 0.464877
vt 0.246000 0.522965
vt 0.251026 0.516729
vt 0.316370 0.464877
vt 0.311344 0.464877
vt 0.290444 0.516729
vt 0.286741 0.516729
vt 0.286741 0.522965
vt 0.316370 0.522965
vt 0.311344 0.516729
vt 0.290444 0.522965
vt 0.376198 0.404447
vt 0.402124 0.404447
vt 0.397098 0.410683
vt 0.376198 0.410683
vt 0.402124 0.462535
vt 0.397098 0.462535
vt 0.372495 0.404447
vt 0.372495 0.410683
vt 0.402124 0.466239
vt 0.397098 0.466239
vt 0.376198 0.462535
vt 0.372495 0.462535
vt 0.331754 0.404447
vt 0.336780 0.410683
vt 0.402124 0.522965
vt 0.397098 0.518091
vt 0.376198 0.466239
vt 0.372495 0.466239
vt 0.331754 0.462535
vt 0.336780 0.462535
vt 0.376198 0.522965
vt 0.376198 0.518091
vt 0.336780 0.466239
vt 0.372494 0.518091
vt 0.331754 0.466239
vt 0.372494 0.522965
vt 0.331754 0.522965
vt 0.336780 0.518091
vt 0.487878 0.522965
vt 0.461952 0.522965
vt 0.461952 0.516729
vt 0.482852 0.516729
vt 0.458249 0.522965
vt 0.458248 0.516729
vt 0.487878 0.464877
vt 0.482852 0.464877
vt 0.417508 0.522965
vt 0.422534 0.516729
vt 0.461952 0.464877
vt 0.458248 0.464877
vt 0.487878 0.461173
vt 0.482852 0.461173
vt 0.417508 0.464877
vt 0.422534 0.464877
vt 0.458248 0.461173
vt 0.461952 0.461173
vt 0.487878 0.404447
vt 0.482852 0.409322
vt 0.417508 0.461173
vt 0.422534 0.461173
vt 0.458248 0.409322
vt 0.461952 0.409322
vt 0.461952 0.404447
vt 0.417508 0.404447
vt 0.422534 0.409322
vt 0.458248 0.404447
vt 0.628452 0.744479
vt 0.626553 0.744479
vt 0.626553 0.565956
vt 0.628452 0.565956
vt 0.628452 0.923003
vt 0.626553 0.923003
vt 0.626553 0.564057
vt 0.628452 0.564057
vt 0.626553 0.924902
vt 0.628452 0.924902
vt 0.506904 0.565956
vt 0.506904 0.564057
vt 0.506904 0.924902
vt 0.506904 0.923003
vt 0.503105 0.565956
vt 0.503105 0.564057
vt 0.503105 0.924902
vt 0.503105 0.923003
vt 0.383457 0.565956
vt 0.383457 0.564057
vt 0.383457 0.924902
vt 0.383457 0.923003
vt 0.900201 0.570405
vt 0.783534 0.570405
vt 0.783534 0.568553
vt 0.900201 0.568553
vt 0.900201 0.744479
vt 0.783534 0.744479
vt 0.779831 0.570405
vt 0.779831 0.568553
vt 0.900201 0.918554
vt 0.783534 0.918554
vt 0.779831 0.744479
vt 0.663164 0.570405
vt 0.663164 0.568553
vt 0.783534 0.920405
vt 0.900201 0.920405
vt 0.779831 0.918554
vt 0.663164 0.744479
vt 0.661312 0.570405
vt 0.661312 0.568553
vt 0.779831 0.920405
vt 0.663164 0.918554
vt 0.661312 0.744479
vt 0.663164 0.920405
vt 0.661312 0.918554
vt 0.661312 0.920405
vt 0.673384 0.452395
vt 0.673384 0.400546
vt 0.674788 0.400546
vt 0.674788 0.452395
vt 0.671084 0.452395
vt 0.671084 0.400546
vt 0.678491 0.400546
vt 0.678491 0.452395
vt 0.688527 0.452397
vt 0.688527 0.400544
vt 0.690379 0.400544
vt 0.690379 0.452397
vt 0.686676 0.452397
vt 0.686676 0.400544
vt 0.694083 0.400544
vt 0.694083 0.452397
vt 0.174074 0.879630
vt 0.174074 0.762963
vt 0.348148 0.762963
vt 0.348148 0.879629
vt 0.000000 0.879630
vt 0.000000 0.762963
vt 0.174074 0.883333
vt 0.348148 0.883333
vt 0.000000 0.883333
vt 0.174074 1.000000
vt 0.348148 1.000000
vt 0.000000 1.000000
vt 0.705971 0.452396
vt 0.705971 0.400544
vt 0.707823 0.400544
vt 0.707823 0.452396
vt 0.702267 0.452396
vt 0.702267 0.400544
vt 0.709675 0.400544
vt 0.709675 0.452396
vt 0.721563 0.452395
vt 0.721563 0.400546
vt 0.723414 0.400546
vt 0.723414 0.452395
vt 0.717859 0.452395
vt 0.717859 0.400546
vt 0.725266 0.400546
vt 0.725266 0.452395
vt 0.737154 0.452395
vt 0.735302 0.452395
vt 0.735302 0.400546
vt 0.737154 0.400546
vt 0.733451 0.452395
vt 0.733451 0.400546
vt 0.740858 0.400546
vt 0.740858 0.452395
vt 0.751342 0.452397
vt 0.751342 0.400544
vt 0.752746 0.400544
vt 0.752746 0.452397
vt 0.749042 0.452397
vt 0.749042 0.400544
vt 0.756449 0.400544
vt 0.756449 0.452397
vt 0.768337 0.452398
vt 0.768337 0.400543
vt 0.770189 0.400543
vt 0.770189 0.452398
vt 0.764633 0.452398
vt 0.764633 0.400543
vt 0.772041 0.400543
vt 0.772041 0.452398
vt 0.785781 0.452397
vt 0.783929 0.452397
vt 0.783929 0.400544
vt 0.785781 0.400544
vt 0.780225 0.452397
vt 0.780225 0.400544
vt 0.787633 0.400544
vt 0.787633 0.452397
vt 0.799521 0.400542
vt 0.801373 0.400542
vt 0.801373 0.452399
vt 0.799521 0.452399
vt 0.803225 0.400542
vt 0.803225 0.452399
vt 0.795817 0.452399
vt 0.795817 0.400542
vt 0.810545 0.514308
vt 0.808693 0.514308
vt 0.808693 0.462460
vt 0.810545 0.462460
vt 0.804990 0.514308
vt 0.804990 0.462460
vt 0.812397 0.462460
vt 0.812397 0.514308
vt 0.796135 0.514308
vt 0.794283 0.514308
vt 0.794283 0.462460
vt 0.796135 0.462460
vt 0.790580 0.514308
vt 0.790580 0.462460
vt 0.797986 0.462460
vt 0.797986 0.514308
vt 0.779873 0.462460
vt 0.781725 0.462460
vt 0.781725 0.514308
vt 0.779873 0.514308
vt 0.783577 0.462460
vt 0.783577 0.514308
vt 0.776170 0.514308
vt 0.776170 0.462460
vt 0.763612 0.462458
vt 0.765463 0.462458
vt 0.765464 0.514310
vt 0.763612 0.514310
vt 0.769167 0.462458
vt 0.769167 0.514310
vt 0.761760 0.514310
vt 0.761760 0.462458
vt 0.751053 0.514310
vt 0.749202 0.514310
vt 0.749202 0.462458
vt 0.751053 0.462458
vt 0.747350 0.514310
vt 0.747350 0.462458
vt 0.754757 0.462458
vt 0.754757 0.514310
vt 0.736644 0.514310
vt 0.734792 0.514310
vt 0.734792 0.462458
vt 0.736644 0.462458
vt 0.732940 0.514310
vt 0.732940 0.462458
vt 0.740347 0.462458
vt 0.740347 0.514310
vt 0.720382 0.462458
vt 0.722234 0.462458
vt 0.722234 0.514310
vt 0.720382 0.514310
vt 0.725937 0.462458
vt 0.725937 0.514310
vt 0.718530 0.514310
vt 0.718530 0.462458
vt 0.499359 0.522964
vt 0.499359 0.464877
vt 0.503063 0.464877
vt 0.503063 0.522964
vt 0.499359 0.461173
vt 0.503063 0.461173
vt 0.499359 0.404448
vt 0.503063 0.404448
vt 0.511053 0.462535
vt 0.511053 0.404445
vt 0.514757 0.404445
vt 0.514757 0.462535
vt 0.511053 0.466239
vt 0.514757 0.466239
vt 0.511053 0.522967
vt 0.514757 0.522967
vt 0.526451 0.404446
vt 0.526451 0.462535
vt 0.522747 0.462535
vt 0.522747 0.404446
vt 0.526451 0.466239
vt 0.522747 0.466239
vt 0.526451 0.522966
vt 0.522747 0.522966
vt 0.538144 0.464877
vt 0.538144 0.522968
vt 0.534441 0.522968
vt 0.534441 0.464877
vt 0.538144 0.461173
vt 0.534441 0.461173
vt 0.538144 0.404444
vt 0.534441 0.404444
vt 0.548352 0.464877
vt 0.548352 0.522967
vt 0.546052 0.522967
vt 0.546052 0.464877
vt 0.548352 0.461173
vt 0.546052 0.461173
vt 0.548352 0.404445
vt 0.546052 0.404445
vt 0.557623 0.404440
vt 0.557623 0.462535
vt 0.555771 0.462535
vt 0.555771 0.404440
vt 0.557623 0.466239
vt 0.555771 0.466239
vt 0.557623 0.522972
vt 0.555771 0.522972
vt 0.565516 0.462535
vt 0.565516 0.404457
vt 0.567367 0.404457
vt 0.567367 0.462535
vt 0.565516 0.466238
vt 0.567367 0.466238
vt 0.565516 0.522955
vt 0.567367 0.522955
vt 0.575260 0.522963
vt 0.575260 0.464877
vt 0.577112 0.464877
vt 0.577112 0.522963
vt 0.575260 0.461173
vt 0.577112 0.461173
vt 0.575260 0.404449
vt 0.577112 0.404449
vt 0.357408 0.150000
vt 0.359260 0.150000
vt 0.359260 0.244444
vt 0.357408 0.244444
vt 0.357408 0.148148
vt 0.359260 0.148148
vt 0.533334 0.150000
vt 0.533334 0.244445
vt 0.359260 0.248148
vt 0.357408 0.248148
vt 0.533334 0.148148
vt 0.707408 0.150000
vt 0.707408 0.244444
vt 0.533334 0.248148
vt 0.359260 0.296296
vt 0.357408 0.296296
vt 0.707408 0.148148
vt 0.709260 0.150000
vt 0.709260 0.244444
vt 0.707408 0.248148
vt 0.533334 0.385185
vt 0.709260 0.148148
vt 0.709260 0.248148
vt 0.707408 0.296296
vt 0.709260 0.296296
vt 0.367269 0.799568
vt 0.365417 0.799568
vt 0.365417 0.625494
vt 0.367269 0.625494
vt 0.367269 0.973643
vt 0.365417 0.973643
vt 0.365417 0.623642
vt 0.367269 0.623642
vt 0.365417 0.975495
vt 0.367269 0.975495
vt 0.461714 0.623642
vt 0.461714 0.625494
vt 0.461714 0.973643
vt 0.461714 0.975495
vt 0.465418 0.623642
vt 0.465418 0.625494
vt 0.465418 0.973643
vt 0.465418 0.975495
vt 0.513566 0.623642
vt 0.513566 0.625494
vt 0.513566 0.973643
vt 0.513566 0.975495
vt 0.705972 0.497225
vt 0.706420 0.461516
vt 0.707824 0.461516
vt 0.707824 0.497225
vt 0.704120 0.497225
vt 0.704120 0.461516
vt 0.711527 0.461516
vt 0.711527 0.497225
vt 0.692010 0.497230
vt 0.691562 0.461512
vt 0.693414 0.461512
vt 0.693414 0.497230
vt 0.689710 0.497230
vt 0.689710 0.461512
vt 0.697118 0.461512
vt 0.697118 0.497230
vt 0.176967 0.149734
vt 0.351041 0.149734
vt 0.351041 0.244179
vt 0.176967 0.244179
vt 0.351041 0.247882
vt 0.176967 0.247883
vt 0.002893 0.149734
vt 0.002893 0.244179
vt 0.351041 0.296031
vt 0.176967 0.384919
vt 0.002893 0.247882
vt 0.002893 0.296031
vt 0.592545 0.502231
vt 0.592545 0.481335
vt 0.594396 0.481335
vt 0.594396 0.502231
vt 0.588842 0.502231
vt 0.588842 0.481335
vt 0.596248 0.481335
vt 0.596248 0.502231
vt 0.679004 0.497227
vt 0.679004 0.461514
vt 0.680856 0.461514
vt 0.680856 0.497227
vt 0.675300 0.497227
vt 0.675300 0.461514
vt 0.682707 0.461514
vt 0.682708 0.497227
vt 0.578135 0.535116
vt 0.578135 0.556019
vt 0.576283 0.556019
vt 0.576283 0.535116
vt 0.581839 0.535116
vt 0.581839 0.556019
vt 0.574430 0.556019
vt 0.574430 0.535116
vt 0.563725 0.535118
vt 0.563725 0.556017
vt 0.561873 0.556017
vt 0.561873 0.535118
vt 0.567429 0.535118
vt 0.567429 0.556017
vt 0.560021 0.556017
vt 0.560021 0.535118
vt 0.664594 0.517913
vt 0.664594 0.482200
vt 0.666446 0.482200
vt 0.666446 0.517913
vt 0.660890 0.517913
vt 0.660890 0.482200
vt 0.668297 0.482200
vt 0.668297 0.517913
vt 0.650184 0.517915
vt 0.650184 0.482200
vt 0.652036 0.482200
vt 0.652036 0.517915
vt 0.646480 0.517915
vt 0.646480 0.482200
vt 0.653888 0.482200
vt 0.653888 0.517915
vt 0.549315 0.556017
vt 0.547463 0.556017
vt 0.547463 0.535117
vt 0.549315 0.535117
vt 0.545611 0.556017
vt 0.545611 0.535117
vt 0.553019 0.535117
vt 0.553019 0.556017
vt 0.635774 0.517914
vt 0.635774 0.482201
vt 0.637626 0.482201
vt 0.637626 0.517914
vt 0.632071 0.517914
vt 0.632071 0.482201
vt 0.639478 0.482201
vt 0.639478 0.517914
vt 0.533053 0.556017
vt 0.533053 0.535118
vt 0.534905 0.535118
vt 0.534905 0.556017
vt 0.531201 0.556017
vt 0.531201 0.535118
vt 0.538609 0.535118
vt 0.538609 0.556017
vt 0.520495 0.556016
vt 0.520495 0.535119
vt 0.522347 0.535119
vt 0.522347 0.556016
vt 0.516792 0.556016
vt 0.516792 0.535119
vt 0.524199 0.535118
vt 0.524199 0.556016
vt 0.506085 0.556019
vt 0.506085 0.535116
vt 0.507938 0.535116
vt 0.507938 0.556019
vt 0.502381 0.556019
vt 0.502381 0.535116
vt 0.509790 0.535116
vt 0.509790 0.556019
vt 0.491675 0.556017
vt 0.491675 0.535117
vt 0.493527 0.535117
vt 0.493527 0.556017
vt 0.487972 0.556017
vt 0.487972 0.535117
vt 0.495379 0.535117
vt 0.495379 0.556017
vt 0.621364 0.482199
vt 0.621364 0.517916
vt 0.619512 0.517916
vt 0.619961 0.482199
vt 0.625068 0.482199
vt 0.625068 0.517916
vt 0.617660 0.517916
vt 0.617660 0.482199
vt 0.605102 0.482198
vt 0.606955 0.482198
vt 0.606955 0.517916
vt 0.605551 0.517916
vt 0.610658 0.482198
vt 0.610658 0.517916
vt 0.603251 0.517916
vt 0.603251 0.482198
vt 0.585113 0.471997
vt 0.585113 0.431258
vt 0.588817 0.431258
vt 0.588817 0.471997
vt 0.585113 0.427555
vt 0.588817 0.427555
vt 0.585113 0.401630
vt 0.588817 0.401630
vt 0.596807 0.442369
vt 0.596807 0.401633
vt 0.600511 0.401633
vt 0.600511 0.442369
vt 0.596807 0.446072
vt 0.600511 0.446072
vt 0.596807 0.471995
vt 0.600511 0.471995
vt 0.612205 0.446074
vt 0.612205 0.472001
vt 0.608501 0.472001
vt 0.608501 0.446074
vt 0.612205 0.442370
vt 0.608501 0.442370
vt 0.612205 0.401626
vt 0.608501 0.401626
vt 0.623898 0.431258
vt 0.623898 0.472002
vt 0.620194 0.472002
vt 0.620194 0.431258
vt 0.623898 0.427554
vt 0.620194 0.427554
vt 0.623898 0.401625
vt 0.620194 0.401625
vt 0.633658 0.431258
vt 0.634106 0.471997
vt 0.631806 0.471997
vt 0.631806 0.431258
vt 0.633658 0.427555
vt 0.631806 0.427555
vt 0.633658 0.401630
vt 0.631806 0.401630
vt 0.643851 0.401619
vt 0.643403 0.442371
vt 0.641550 0.442371
vt 0.641550 0.401619
vt 0.643403 0.446076
vt 0.641550 0.446076
vt 0.643403 0.472008
vt 0.641550 0.472008
vt 0.651269 0.471994
vt 0.651269 0.446072
vt 0.653121 0.446072
vt 0.653121 0.471994
vt 0.651269 0.442369
vt 0.653121 0.442369
vt 0.651269 0.401634
vt 0.653121 0.401634
vt 0.661014 0.471995
vt 0.661014 0.431259
vt 0.662866 0.431259
vt 0.662866 0.471995
vt 0.661014 0.427555
vt 0.662866 0.427555
vt 0.661014 0.401632
vt 0.662866 0.401632
vn 0.000000 0.000000 -1.000000
vn 0.000000 0.000000 -1.000000
vn 0.000000 0.000000 -1.000000
vn 0.000000 0.000000 -1.000000
vn 1.000000 -0.000000 -0.000000
vn 1.000000 0.000000 0.000000
vn 1.000000 0.000000 0.000000
vn 1.000000 0.000000 -0.000000
vn 0.000000 1.000000 0.000000
vn 0.000000 1.000000 0.000000
vn 0.290677 0.956821 0.000000
vn 0.450965 0.892542 0.000000
vn 0.000000 -1.000000 0.000000
vn 0.000000 -1.000000 0.000000
vn 0.000000 -1.000000 0.000000
vn 0.000000 -1.000000 0.000000
vn 1.000000 0.000000 0.000000
vn 1.000000 0.000000 0.000000
vn 1.000000 0.000000 0.000000
vn 1.000000 0.000000 0.000000
vn 0.000000 1.000000 0.000000
vn 0.000000 1.000000 0.000000
vn 0.000000 0.000000 1.000000
vn 0.000000 0.000000 1.000000
vn 0.000000 0.000000 1.000000
vn 0.000000 0.000000 1.000000
vn 0.000000 -0.000000 1.000000
vn 0.000000 -0.000000 1.000000
vn 0.000000 -0.000000 1.000000
vn 0.000000 -0.000000 1.000000
vn 0.000000 1.000000 0.000000
vn 0.000000 1.000000 0.000000
vn -0.000001 1.000000 0.000000
vn -0.000001 1.000000 0.000000
vn 0.000000 0.000000 1.000000
vn 0.000000 0.000000 1.000000
vn 0.000000 -1.000000 0.000000
vn 0.000000 -1.000000 0.000000
vn 0.000004 -1.000000 0.000000
vn 0.000004 -1.000000 0.000000
vn 0.000000 1.000000 0.000000
vn 0.000000 1.000000 0.000000
vn 0.000000 1.000000 0.000000
vn 0.000000 1.000000 0.000000
vn 0.000000 -0.000000 -1.000000
vn 0.000000 -0.000000 -1.000000
vn -0.000001 -0.000000 -1.000000
vn -0.000001 -0.000000 -1.000000
vn 0.000000 0.000000 1.000000
vn 0.000000 0.000000 1.000000
vn -1.000000 0.000000 0.000000
vn -1.000000 0.000000 0.000000
vn -1.000000 0.000000 0.000000
vn -1.000000 0.000000 0.000000
vn 1.000000 -0.000001 0.000000
vn 1.000000 -0.000001 0.000000
vn 1.000000 -0.000001 0.000000
vn 1.000000 -0.000000 0.000000
vn -0.999982 -0.003145 -0.005070
vn -0.999992 0.003117 -0.002399
vn -0.999993 0.002689 -0.002595
vn -0.999982 -0.003145 -0.005070
vn 1.000000 0.000000 0.000000
vn 1.000000 0.000000 0.000000
vn 1.000000 0.000000 0.000000
vn 0.000000 1.000000 0.000000
vn 0.000000 1.000000 0.000000
vn 0.000000 1.000000 0.000000
vn 0.000000 1.000000 0.000000
vn 0.000000 -1.000000 0.000000
vn 0.000000 -1.000000 0.000000
vn 0.000000 0.000000 1.000000
vn 0.000000 0.000000 1.000000
vn 0.000000 0.000000 1.000000
vn 0.000000 0.000000 1.000000
vn 0.000000 0.000000 -1.000000
vn 0.000000 0.000000 -1.000000
vn 1.000000 0.000000 0.000000
vn 1.000000 0.000000 0.000000
vn 0.000000 0.000000 -1.000000
vn 0.000000 0.000000 -1.000000
vn 0.000000 -1.000000 0.000000
vn 0.000000 -1.000000 0.000000
vn 0.000000 -1.000000 0.000000
vn 0.000000 -1.000000 0.000000
vn 0.000000 0.000000 1.000000
vn 0.000000 0.000000 1.000000
vn 0.000000 0.000000 1.000000
vn 0.000000 0.000000 1.000000
vn 0.000000 0.000000 1.000000
vn 0.000000 0.000000 1.000000
vn -0.450965 0.892542 0.000000
vn -0.290677 0.956821 0.000000
vn 0.000000 -0.000000 -1.000000
vn 0.000000 -0.000000 -1.000000
vn -0.000000 -0.000000 -1.000000
vn -0.000000 -0.000000 -1.000000
vn 0.000000 1.000000 -0.000000
vn 0.000000 1.000000 -0.000000
vn 0.000000 1.000000 -0.000000
vn 0.000000 1.000000 -0.000000
vn 0.000000 0.000000 -1.000000
vn 0.000000 -1.000000 0.000000
vn 0.000000 -1.000000 0.000000
vn 0.000000 -1.000000 0.000000
vn 0.000000 -1.000000 0.000000
vn -0.000003 -1.000000 0.000000
vn -0.000003 -1.000000 -0.000000
vn 0.000000 0.000000 1.000000
vn 0.000000 0.000000 1.000000
vn 0.000000 1.000000 0.000000
vn 0.000000 1.000000 0.000000
vn 0.000000 -1.000000 0.000000
vn 0.000000 -1.000000 0.000000
vn 0.000000 0.000000 1.000000
vn 0.000000 0.000000 1.000000
vn 0.000000 0.000000 -1.000000
vn 0.000000 0.000000 -1.000000
vn -0.000001 1.000000 0.000000
vn -0.000001 1.000000 0.000000
vn 0.000004 1.000000 -0.000000
vn 0.000004 1.000000 -0.000000
vn 0.000000 -0.000000 1.000000
vn 0.000000 -0.000000 1.000000
vn 0.000001 -0.000000 1.000000
vn 0.000001 -0.000000 1.000000
vn 0.000000 1.000000 0.000000
vn 0.000000 1.000000 0.000000
vn -1.000000 0.000000 0.000000
vn -1.000000 0.000000 0.000000
vn -1.000000 0.000000 -0.000000
vn -1.000000 0.000000 0.000000
vn 0.000000 -1.000000 0.000000
vn 0.000000 -1.000000 0.000000
vn 0.000000 0.000000 -1.000000
vn 0.000000 -1.000000 0.000000
vn 0.000000 -1.000000 0.000000
vn 0.000000 0.000000 -1.000000
vn 0.000000 0.000000 -1.000000
vn -1.000000 0.000000 0.000000
vn -1.000000 -0.000000 -0.000000
vn -1.000000 0.000000 -0.000000
vn -1.000000 0.000000 0.000000
vn -1.000000 0.000000 0.000000
vn -1.000000 0.000000 0.000000
vn 0.000000 0.000000 -1.000000
vn 0.000000 -1.000000 0.000000
vn 0.000000 -1.000000 0.000000
vn 1.000000 0.000000 -0.000000
vn 1.000000 -0.000000 -0.000000
vn 1.000000 -0.000000 -0.000000
vn 1.000000 -0.000000 -0.000000
vn -1.000000 0.000000 0.000000
vn -1.000000 0.000000 -0.000000
vn -1.000000 0.000000 -0.000000
vn -1.000000 0.000000 -0.000000
vn 1.000000 0.000000 0.000000
vn 1.000000 0.000000 0.000000
vn 1.000000 -0.000000 0.000000
vn 1.000000 -0.000000 0.000000
vn -1.000000 0.000000 0.000000
vn -1.000000 0.000000 0.000000
vn 1.000000 0.000000 -0.000000
vn 1.000000 -0.000000 -0.000000
vn 1.000000 0.000000 0.000000
vn -0.999993 0.002514 0.002614
vn -0.999993 0.003057 0.002371
vn -0.999983 -0.003145 0.004955
vn -0.999983 -0.003145 0.004955
vn -0.999965 0.008350 0.000000
vn -0.999965 0.008350 0.000000
vn -1.000000 -0.000000 -0.000000
vn -1.000000 0.000000 -0.000000
vn -1.000000 0.000000 -0.000000
vn -1.000000 0.000000 0.000000
vn 1.000000 0.000000 0.000000
vn 1.000000 0.000000 0.000000
vn 1.000000 0.000000 0.000000
vn 1.000000 0.000000 0.000000
vn 1.000000 -0.000000 -0.000000
vn 1.000000 -0.000000 -0.000000
vn -1.000000 0.000000 0.000000
vn -1.000000 0.000000 0.000000
vn -1.000000 0.000000 0.000000
vn -1.000000 0.000000 0.000000
vn 1.000000 0.000000 0.000000
vn 1.000000 0.000000 0.000000
vn 1.000000 0.000000 0.000000
vn 1.000000 0.000000 0.000000
vn -1.000000 0.000003 0.000000
vn -1.000000 0.000004 0.000000
vn -1.000000 0.000004 0.000000
vn -1.000000 0.000003 0.000000
vn 1.000000 0.000002 0.000000
vn 1.000000 0.000002 0.000000
vn 1.000000 0.000002 0.000000
vn 1.000000 0.000002 0.000000
vn -1.000000 -0.000003 0.000000
vn -1.000000 -0.000003 0.000000
vn -1.000000 -0.000003 0.000000
vn -1.000000 -0.000003 0.000000
vn 1.000000 0.000003 0.000000
vn 1.000000 0.000004 0.000000
vn 1.000000 0.000004 0.000000
vn 1.000000 0.000003 0.000000
vn -1.000000 0.000001 0.000000
vn -1.000000 0.000000 0.000000
vn -1.000000 0.000000 0.000000
vn -1.000000 0.000001 0.000000
vn 1.000000 0.000000 0.000000
vn 1.000000 0.000000 0.000000
vn 1.000000 0.000000 0.000000
vn 1.000000 0.000000 0.000000
vn -1.000000 0.000001 -0.000000
vn -1.000000 0.000001 -0.000000
vn -1.000000 0.000001 -0.000000
vn -1.000000 0.000001 -0.000000
vn 1.000000 0.000001 -0.000000
vn 1.000000 -0.000000 -0.000000
vn 1.000000 -0.000000 -0.000000
vn 1.000000 0.000001 -0.000000
vn -1.000000 0.000001 0.000000
vn -1.000000 0.000001 0.000000
vn -1.000000 0.000001 0.000000
vn -1.000000 0.000001 0.000000
vn 1.000000 0.000000 0.000000
vn 1.000000 0.000000 0.000000
vn 1.000000 0.000000 0.000000
vn 1.000000 0.000000 0.000000
vn -1.000000 -0.000003 0.000000
vn -1.000000 -0.000004 0.000000
vn -1.000000 -0.000004 0.000000
vn -1.000000 -0.000003 0.000000
vn 1.000000 0.000000 -0.000000
vn 1.000000 0.000000 -0.000000
vn 1.000000 0.000000 -0.000000
vn 1.000000 0.000000 -0.000000
vn -1.000000 0.000000 -0.000000
vn -1.000000 0.000000 -0.000000
vn -1.000000 0.000000 -0.000000
vn -1.000000 -0.000000 -0.000000
vn 1.000000 -0.000000 -0.000001
vn 1.000000 -0.000000 -0.000001
vn 1.000000 -0.000000 -0.000001
vn 1.000000 -0.000000 -0.000001
vn 0.000000 1.000000 0.000000
vn 0.000000 1.000000 0.000000
vn -1.000000 0.000000 0.000000
vn -1.000000 0.000000 0.000000
vn -1.000000 -0.000004 0.000000
vn -1.000000 -0.000004 0.000000
vn 1.000000 -0.000001 0.000000
vn 1.000000 -0.000001 0.000000
vn 1.000000 0.000000 0.000000
vn 1.000000 0.000000 0.000000
vn -1.000000 0.000000 0.000000
vn -1.000000 0.000000 0.000000
vn -1.000000 -0.000004 0.000000
vn -1.000000 -0.000004 0.000000
vn 0.000000 -1.000000 0.000000
vn 0.000000 -1.000000 0.000000
vn 0.000000 -1.000000 0.000000
vn 0.000000 -1.000000 0.000000
vn 1.000000 -0.000001 0.000000
vn 1.000000 -0.000001 0.000000
vn 1.000000 0.000000 0.000000
vn 1.000000 0.000000 0.000000
vn -1.000000 -0.000002 0.000000
vn -1.000000 -0.000002 0.000000
vn -0.999965 0.008350 0.000000
vn -0.999965 0.008350 0.000000
vn 0.000000 1.000000 0.000000
vn 0.000000 1.000000 0.000000
vn 0.000000 1.000000 0.000000
vn 1.000000 -0.000000 0.000000
vn 1.000000 -0.000000 0.000000
vn 1.000000 0.000004 0.000000
vn 1.000000 0.000004 0.000000
vn -1.000000 0.000001 0.000000
vn -1.000000 0.000001 0.000000
vn -1.000000 -0.000000 0.000000
vn -1.000000 -0.000000 0.000000
vn -1.000000 0.000000 0.000000
vn 0.000000 -1.000000 0.000000
vn 0.000000 -1.000000 0.000000
vn 0.000000 -1.000000 0.000000
vn 0.000000 -1.000000 0.000000
vn 0.000000 -1.000000 0.000000
vn 1.000000 0.000000 0.000000
vn 1.000000 -0.000000 0.000000
vn 1.000000 -0.000000 0.000000
vn 1.000000 0.000000 0.000000
vn 1.000000 0.000000 0.000000
vn 0.000000 1.000000 0.000000
vn 0.000000 1.000000 0.000000
vn 0.000000 1.000000 0.000000
vn 0.000000 1.000000 0.000000
vn -1.000000 -0.000002 0.000000
vn -1.000000 -0.000002 0.000000
vn 0.000000 1.000000 0.000000
vn 0.000000 1.000000 0.000000
vn 0.000000 1.000000 0.000000
vn 1.000000 0.000004 0.000000
vn 1.000000 0.000004 0.000000
vn 0.000000 1.000000 0.000000
vn 0.000000 1.000000 0.000000
vn 0.000001 1.000000 0.000000
vn 0.000001 1.000000 0.000000
vn -1.000000 0.000001 0.000000
vn -1.000000 0.000001 0.000000
vn 1.000000 0.000000 0.000000
vn 1.000000 0.000000 0.000000
vn -1.000000 0.000000 -0.000000
vn -1.000000 0.000000 -0.000000
vn -1.000000 0.000000 -0.000000
vn -1.000000 0.000000 -0.000000
vn -0.000009 -1.000000 -0.000000
vn 0.000000 -1.000000 -0.000000
vn 0.000000 -1.000000 -0.000000
vn -0.000009 -1.000000 -0.000000
vn 1.000000 -0.000002 -0.000000
vn 1.000000 -0.000002 -0.000000
vn 1.000000 -0.000002 -0.000000
vn 1.000000 -0.000002 -0.000000
vn 1.000000 0.000000 -0.000000
vn 1.000000 0.000000 -0.000000
vn 1.000000 0.000000 -0.000000
vn 1.000000 0.000000 -0.000000
vn 0.000000 1.000000 0.000000
vn 0.000000 1.000000 0.000000
vn -1.000000 0.000000 -0.000000
vn -1.000000 0.000000 -0.000000
vn -1.000000 0.000000 -0.000000
vn -1.000000 0.000000 -0.000000
vn 1.000000 0.000000 0.000000
vn 1.000000 0.000000 0.000000
vn 1.000000 0.000000 0.000000
vn 1.000000 0.000000 0.000000
vn -1.000000 0.000000 0.000000
vn -1.000000 0.000000 0.000000
vn -1.000000 0.000000 0.000000
vn -1.000000 0.000000 0.000000
vn -0.000000 0.000000 1.000000
vn -0.000000 0.000000 1.000000
vn 0.000000 0.000000 1.000000
vn 0.000000 0.000000 1.000000
vn -0.000001 -0.000001 -1.000000
vn -0.000001 -0.000001 -1.000000
vn -0.000003 -0.000001 -1.000000
vn -0.000003 -0.000001 -1.000000
vn -1.000000 -0.000000 0.000000
vn -1.000000 -0.000000 0.000000
vn -1.000000 -0.000000 0.000000
vn -1.000000 -0.000000 0.000000
vn 1.000000 -0.000001 -0.000000
vn 1.000000 -0.000001 -0.000000
vn 1.000000 -0.000001 -0.000000
vn 1.000000 -0.000001 -0.000000
vn 0.000001 0.000000 1.000000
vn 0.000001 0.000000 1.000000
vn -0.000001 -0.000000 1.000000
vn -0.000001 -0.000000 1.000000
vn 0.000002 -0.000000 -1.000000
vn 0.000002 -0.000000 -1.000000
vn 0.000002 -0.000000 -1.000000
vn 0.000002 -0.000000 -1.000000
vn 0.000000 0.000000 1.000000
vn 0.000000 0.000000 1.000000
vn 0.000000 0.000000 1.000000
vn 0.000000 0.000000 1.000000
vn -1.000000 0.000000 0.000000
vn -1.000000 0.000000 0.000000
vn -1.000000 0.000000 0.000000
vn -1.000000 0.000000 0.000000
vn -1.000000 0.000000 0.000000
vn -1.000000 0.000000 0.000000
vn 0.000001 -0.000000 -1.000000
vn 0.000002 -0.000000 -1.000000
vn 0.000002 -0.000000 -1.000000
vn 0.000001 -0.000000 -1.000000
vn 1.000000 0.000000 0.000000
vn 1.000000 0.000000 0.000000
vn 1.000000 0.000000 0.000000
vn 1.000000 0.000000 0.000000
vn 1.000000 -0.000000 0.000000
vn 1.000000 -0.000000 0.000000
vn -1.000000 0.000000 -0.000000
vn -1.000000 0.000000 -0.000000
vn -1.000000 0.000000 -0.000000
vn -1.000000 0.000000 -0.000000
vn 0.000000 0.000000 1.000000
vn 0.000000 0.000000 1.000000
vn 1.000000 0.000000 0.000000
vn 1.000000 -0.000000 0.000000
vn 1.000000 -0.000000 -0.000001
vn 1.000000 -0.000000 -0.000001
vn 0.000000 0.000000 -1.000000
vn 0.000000 0.000000 -1.000000
vn 0.000002 0.000000 -1.000000
vn 0.000002 0.000000 -1.000000
vn -1.000000 0.000000 -0.000000
vn -1.000000 0.000000 -0.000000
vn 1.000000 0.000000 -0.000001
vn 1.000000 0.000000 -0.000001
vn 1.000000 0.000000 0.000000
vn 1.000000 0.000000 0.000000
vn 1.000000 0.000000 0.000000
vn 1.000000 0.000000 0.000000
vn 0.000000 0.000001 1.000000
vn 0.000000 0.000001 1.000000
vn 0.000002 0.000001 1.000000
vn 0.000002 0.000001 1.000000
vn -1.000000 0.000000 0.000000
vn -1.000000 0.000000 0.000000
vn -1.000000 0.000000 0.000000
vn -1.000000 0.000000 0.000000
vn -1.000000 0.000000 0.000000
vn -1.000000 0.000000 0.000000
vn -0.000000 0.000000 1.000000
vn 0.000000 0.000000 1.000000
vn 0.000000 0.000000 1.000000
vn -0.000000 0.000000 1.000000
vn -0.000000 0.000000 1.000000
vn -0.000000 0.000000 1.000000
vn 1.000000 0.000000 0.000000
vn 1.000000 0.000000 0.000000
vn 1.000000 0.000000 -0.000001
vn 1.000000 0.000000 -0.000001
vn 1.000000 0.000000 -0.000001
vn 1.000000 0.000000 -0.000001
vn -0.000001 0.000001 1.000000
vn -0.000001 0.000001 1.000000
vn 0.000004 0.000001 1.000000
vn 0.000004 0.000001 1.000000
vn -1.000000 0.000000 0.000000
vn -1.000000 -0.000000 0.000000
vn -1.000000 -0.000000 0.000000
vn -1.000000 0.000000 0.000000
vn -1.000000 0.000000 -0.000000
vn -1.000000 0.000000 -0.000000
vn -1.000000 0.000000 0.000000
vn -1.000000 0.000000 0.000000
vn -0.000000 0.000000 -1.000000
vn 0.000000 0.000000 -1.000000
vn 0.000000 0.000000 -1.000000
vn 0.000000 0.000000 -1.000000
vn 0.000000 0.000000 -1.000000
vn 0.000000 0.000000 -1.000000
vn 0.000000 0.000000 -1.000000
vn 0.000000 0.000000 -1.000000
vn 0.000000 0.000000 -1.000000
vn 0.000000 0.000000 -1.000000
vn 1.000000 0.000000 -0.000000
vn 1.000000 0.000000 0.000000
vn 1.000000 0.000000 0.000000
vn 1.000000 0.000000 -0.000000
vn 0.000000 -0.000001 -1.000000
vn 0.000000 -0.000001 -1.000000
vn -0.000001 -0.000001 -1.000000
vn -0.000001 -0.000001 -1.000000
vn 1.000000 -0.000001 0.000000
vn 1.000000 -0.000001 0.000000
vn 1.000000 0.000000 0.000000
vn 1.000000 0.000000 0.000000
vn 0.000000 0.000000 1.000000
vn 0.000000 0.000000 1.000000
vn -0.000003 0.000000 1.000000
vn -0.000003 0.000000 1.000000
vn -1.000000 0.000000 0.000000
vn -1.000000 0.000000 0.000000
vn -1.000000 0.000000 0.000000
vn -1.000000 0.000000 0.000000
vn -1.000000 0.000000 0.000000
vn -1.000000 0.000000 0.000000
vn 1.000000 0.000000 0.000000
vn 1.000000 0.000000 0.000000
vn -1.000000 0.000000 0.000000
vn -1.000000 0.000000 0.000000
vn 0.000001 0.000000 1.000000
vn 0.000001 0.000000 1.000000
vn 0.000000 0.000000 1.000000
vn 0.000000 0.000000 1.000000
vn 1.000000 0.000000 0.000000
vn 1.000000 0.000000 0.000000
vn 0.000000 -0.000000 -1.000000
vn 0.000000 -0.000000 -1.000000
vn 0.000000 -0.000000 -1.000000
vn 0.000000 -0.000000 -1.000000
vn 0.000000 1.000000 0.000001
vn 0.000042 1.000000 0.000001
vn 0.000042 1.000000 0.000001
vn 0.000000 1.000000 0.000001
vn -0.000040 -1.000000 0.000002
vn 0.000000 -1.000000 0.000002
vn 0.000000 -1.000000 0.000002
vn -0.000040 -1.000000 0.000002
vn 1.000000 0.000000 0.000000
vn 1.000000 0.000000 0.000000
vn 1.000000 0.000000 0.000000
vn 1.000000 0.000000 0.000000
vn -1.000000 0.000000 -0.000000
vn -1.000000 0.000000 -0.000000
vn -1.000000 0.000000 -0.000000
vn -1.000000 0.000000 -0.000000
vn 0.000039 1.000000 -0.000005
vn -0.000002 1.000000 -0.000005
vn -0.000002 1.000000 -0.000005
vn 0.000039 1.000000 -0.000005
vn 0.000002 -1.000000 0.000003
vn -0.000040 -1.000000 0.000003
vn -0.000040 -1.000000 0.000003
vn 0.000002 -1.000000 0.000003
vn 1.000000 0.000000 0.000000
vn 1.000000 0.000000 0.000000
vn 1.000000 0.000000 0.000000
vn 1.000000 0.000000 0.000000
vn -1.000000 0.000000 0.000000
vn -1.000000 0.000000 0.000000
vn -1.000000 0.000000 0.000000
vn -1.000000 0.000000 0.000000
vn 1.000000 0.000000 0.000000
vn 1.000000 0.000000 0.000000
vn 1.000000 0.000000 0.000000
vn 1.000000 0.000000 0.000000
vn 0.000000 1.000000 -0.000001
vn 0.000000 1.000000 -0.000001
vn 0.000000 1.000000 -0.000001
vn 0.000000 1.000000 -0.000001
vn 0.000000 -1.000000 0.000003
vn 0.000000 -1.000000 0.000003
vn 0.000000 -1.000000 0.000003
vn 0.000000 -1.000000 0.000003
vn -1.000000 0.000000 0.000000
vn -1.000000 0.000000 0.000000
vn -1.000000 0.000000 0.000000
vn -1.000000 0.000000 0.000000
vn 1.000000 0.000000 0.000000
vn 1.000000 0.000000 0.000000
vn 1.000000 0.000000 0.000000
vn 1.000000 0.000000 0.000000
vn 0.000006 1.000000 -0.000004
vn 0.000000 1.000000 -0.000004
vn 0.000000 1.000000 -0.000004
vn 0.000006 1.000000 -0.000004
vn 0.000000 -1.000000 0.000002
vn -0.000006 -1.000000 0.000002
vn -0.000006 -1.000000 0.000002
vn 0.000000 -1.000000 0.000002
vn -1.000000 0.000000 0.000000
vn -1.000000 0.000000 0.000000
vn -1.000000 0.000000 0.000000
vn -1.000000 0.000000 0.000000
vn -0.000003 0.000000 -1.000000
vn -0.000003 0.000000 -1.000000
vn -0.000003 0.000000 -1.000000
vn -0.000003 0.000000 -1.000000
vn 0.000001 -0.000000 1.000000
vn 0.000001 -0.000000 1.000000
vn 0.000001 -1.000000 0.000000
vn 0.000001 -1.000000 0.000000
vn 0.000001 -1.000000 0.000000
vn 0.000001 -1.000000 0.000000
vn -0.000001 1.000000 0.000000
vn -0.000001 1.000000 0.000000
vn -0.000004 1.000000 -0.000000
vn -0.000004 1.000000 0.000000
vn -0.000004 1.000000 0.000000
vn -0.000004 1.000000 -0.000000
vn 0.000006 -1.000000 0.000000
vn 0.000006 -1.000000 0.000000
vn 0.000000 -0.000000 1.000000
vn 0.000000 -0.000000 1.000000
vn 0.000000 -0.000000 1.000000
vn 0.000000 -0.000000 1.000000
vn -0.000001 0.000000 -1.000000
vn -0.000001 0.000000 -1.000000
vn 0.000001 1.000000 -0.000000
vn 0.000001 1.000000 -0.000000
vn 0.000001 1.000000 0.000000
vn 0.000001 1.000000 0.000000
vn 0.000000 -1.000000 0.000000
vn 0.000000 -1.000000 0.000000
vn 0.000000 -1.000000 0.000000
vn 0.000000 -1.000000 0.000000
vn 0.000000 -1.000000 0.000000
vn 0.000000 -1.000000 0.000000
vn 0.000000 1.000000 0.000000
vn 0.000000 1.000000 0.000000
vn -0.000000 0.000000 1.000000
vn -0.000000 0.000000 1.000000
vn 0.000002 -0.000001 -1.000000
vn 0.000002 -0.000001 -1.000000
vn 0.000001 0.000000 1.000000
vn 0.000001 0.000000 1.000000
vn 0.000001 0.000000 1.000000
vn 0.000001 0.000000 1.000000
vn 0.000000 0.000000 -1.000000
vn 0.000000 0.000000 -1.000000
vn -0.000002 0.000000 -1.000000
vn -0.000002 0.000000 -1.000000
vn -0.000002 0.000000 -1.000000
vn -0.000002 0.000000 -1.000000
vn 0.000003 0.000001 1.000000
vn 0.000003 0.000001 1.000000
vn 0.000002 0.000000 1.000000
vn 0.000002 0.000000 1.000000
vn 0.000000 -0.000000 -1.000000
vn 0.000000 -0.000000 -1.000000
vn 0.000000 -1.000000 0.000003
vn 0.000000 -1.000000 0.000003
vn 0.000000 1.000000 -0.000001
vn 0.000000 1.000000 -0.000001
vn 0.000009 1.000000 -0.000004
vn 0.000009 1.000000 -0.000004
vn -0.000009 -1.000000 0.000002
vn -0.000009 -1.000000 0.000002
vn 0.000000 0.000000 1.000000
vn 0.000000 0.000000 1.000000
vn 0.000000 0.000000 1.000000
vn 0.000000 0.000000 1.000000
vn 0.000000 -0.000000 -1.000000
vn 0.000000 -0.000000 -1.000000
vn 0.000000 1.000000 0.000000
vn 0.000000 1.000000 0.000000
vn 0.000000 1.000000 0.000000
vn 0.000000 1.000000 0.000000
vn 0.000000 -1.000000 0.000000
vn 0.000000 -1.000000 0.000000
vn 0.000001 -1.000000 0.000000
vn 0.000001 -1.000000 0.000000
vn 0.000001 -1.000000 0.000000
vn 0.000001 -1.000000 0.000000
vn -0.000001 1.000000 0.000000
vn -0.000001 1.000000 0.000000
vn -0.000001 0.000000 -1.000000
vn -0.000001 0.000000 -1.000000
vn -0.000001 0.000000 -1.000000
vn -0.000001 0.000000 -1.000000
vn 0.000000 -0.000000 1.000000
vn 0.000000 -0.000000 1.000000
vn 0.000000 -1.000000 0.000000
vn 0.000000 -1.000000 0.000000
vn 0.000000 -1.000000 0.000000
vn 0.000000 -1.000000 0.000000
vn 0.000000 1.000000 0.000000
vn 0.000000 1.000000 0.000000
vn 0.000000 1.000000 0.000000
vn 0.000000 1.000000 0.000000
vn 0.000000 1.000000 0.000000
vn 0.000000 1.000000 0.000000
vn 0.000000 -1.000000 0.000000
vn 0.000000 -1.000000 0.000000
vn 0.000001 0.000000 1.000000
vn 0.000001 0.000000 1.000000
vn 0.000002 -0.000000 -1.000000
vn 0.000002 -0.000000 -1.000000
vn -0.000001 0.000000 1.000000
vn -0.000001 0.000000 1.000000
vn -0.000001 0.000000 1.000000
vn -0.000001 0.000000 1.000000
vn 0.000000 0.000000 -1.000000
vn 0.000000 0.000000 -1.000000
vn 0.000000 0.000000 -1.000000
vn -0.000000 0.000000 -1.000000
vn -0.000000 0.000000 -1.000000
vn 0.000000 0.000000 -1.000000
vn -0.000002 0.000001 1.000000
vn -0.000002 0.000001 1.000000
vn 0.000000 0.000000 1.000000
vn 0.000000 0.000000 1.000000
vn 0.000000 -0.000001 -1.000000
vn 0.000000 -0.000001 -1.000000
vn 0.000003 -1.000000 0.000003
vn 0.000003 -1.000000 0.000003
vn -0.000003 1.000000 -0.000005
vn -0.000003 1.000000 -0.000005
vn 0.000000 1.000000 0.000001
vn 0.000000 1.000000 0.000001
vn 0.000000 -1.000000 0.000002
vn 0.000000 -1.000000 0.000002
vn 0.000000 0.000000 -1.000000
vn 0.000000 0.000000 -1.000000
vn 0.000000 0.000000 -1.000000
vn 0.000000 0.000000 -1.000000
vn 0.000000 -0.000000 1.000000
vn 0.000000 -0.000000 1.000000
vn 0.000000 -1.000000 0.000000
vn 0.000000 -1.000000 0.000000
vn 0.000000 -1.000000 0.000000
vn 0.000000 -1.000000 0.000000
vn 0.000000 1.000000 0.000000
vn 0.000000 1.000000 0.000000
vn 0.000000 1.000000 0.000000
vn 0.000000 1.000000 0.000000
vn 0.000000 1.000000 0.000000
vn 0.000000 1.000000 0.000000
vn 0.000000 -1.000000 0.000000
vn 0.000000 -1.000000 0.000000
vn 0.000000 0.000000 1.000000
vn 0.000000 0.000000 1.000000
vn 0.000000 0.000000 1.000000
vn 0.000000 0.000000 1.000000
vn 0.000000 -0.000000 -1.000000
vn 0.000000 -0.000000 -1.000000
vn 0.000000 1.000000 0.000000
vn 0.000000 1.000000 0.000000
vn 0.000000 1.000000 0.000000
vn 0.000000 1.000000 0.000000
vn 0.000000 -1.000000 0.000000
vn 0.000000 -1.000000 0.000000
vn 0.000000 -1.000000 0.000000
vn 0.000000 -1.000000 0.000000
vn 0.000000 -1.000000 0.000000
vn 0.000000 -1.000000 0.000000
vn 0.000000 1.000000 0.000000
vn 0.000000 1.000000 0.000000
vn 0.000000 -0.000001 -1.000000
vn 0.000000 -0.000001 -1.000000
vn 0.000000 0.000000 1.000000
vn 0.000000 0.000000 1.000000
vn 0.000000 0.000000 1.000000
vn 0.000000 0.000000 1.000000
vn 0.000000 0.000000 1.000000
vn 0.000000 0.000000 1.000000
vn 0.000000 0.000000 -1.000000
vn 0.000000 0.000000 -1.000000
vn 0.000000 0.000000 -1.000000
vn 0.000000 0.000000 -1.000000
vn 0.000000 0.000000 -1.000000
vn 0.000000 0.000000 -1.000000
vn 0.000000 0.000001 1.000000
vn 0.000000 0.000001 1.000000
vn 0.000000 -0.000000 -1.000000
vn 0.000000 -0.000000 -1.000000
vn 0.000000 0.000000 1.000000
vn 0.000000 0.000000 1.000000
vn 0.000000 1.000000 -0.000001
vn 0.000000 1.000000 -0.000001
vn 0.000000 -1.000000 0.000003
vn 0.000000 -1.000000 0.000003
vn 0.000000 1.000000 -0.000004
vn 0.000000 1.000000 -0.000004
vn 0.000000 -1.000000 0.000002
vn 0.000000 -1.000000 0.000002
vn 0.000000 -0.000000 1.000000
vn 0.000000 -0.000000 1.000000
vn 0.000000 0.000000 1.000000
vn 0.000000 -0.000000 1.000000
vn -0.000000 -0.000000 -1.000000
vn -0.000000 -0.000000 -1.000000
vn 0.000006 1.000000 -0.000000
vn 0.000006 1.000000 0.000000
vn 0.000006 1.000000 0.000000
vn 0.000006 1.000000 0.000000
vn -0.000006 -1.000000 -0.000000
vn -0.000006 -1.000000 -0.000000
vn -0.000006 -1.000000 0.000000
vn -0.000006 -1.000000 -0.000000
vn -0.000006 -1.000000 -0.000000
vn -0.000006 -1.000000 0.000000
vn 0.000009 1.000000 -0.000000
vn 0.000009 1.000000 -0.000000
vn 0.000000 -0.000000 -1.000000
vn 0.000000 -0.000000 -1.000000
vn 0.000000 -0.000000 -1.000000
vn 0.000000 -0.000000 -1.000000
vn 0.000003 -0.000000 1.000000
vn 0.000003 -0.000000 1.000000
vn -0.000000 -1.000000 -0.000000
vn -0.000000 -1.000000 -0.000000
vn 0.000000 -1.000000 0.000000
vn 0.000000 -1.000000 0.000000
vn 0.000003 1.000000 0.000000
vn 0.000003 1.000000 0.000000
vn 0.000018 1.000000 0.000000
vn 0.000017 1.000000 -0.000000
vn 0.000017 1.000000 -0.000000
vn 0.000018 1.000000 0.000000
vn -0.000018 -1.000000 0.000000
vn -0.000018 -1.000000 0.000000
vn 0.000005 -0.000000 -1.000000
vn 0.000005 -0.000000 -1.000000
vn -0.000002 -0.000000 1.000000
vn -0.000002 -0.000000 1.000000
vn -0.000000 0.000000 1.000000
vn -0.000000 0.000000 1.000000
vn 0.000000 -0.000000 1.000000
vn 0.000000 -0.000000 1.000000
vn 0.000003 0.000000 -1.000000
vn 0.000003 0.000000 -1.000000
vn 0.000000 -0.000000 -1.000000
vn 0.000000 -0.000000 -1.000000
vn 0.000000 -0.000000 -1.000000
vn 0.000000 -0.000000 -1.000000
vn 0.000009 0.000001 1.000000
vn 0.000009 0.000001 1.000000
vn -0.000003 -0.000001 -1.000000
vn -0.000003 -0.000001 -1.000000
vn -0.000007 0.000000 1.000000
vn -0.000007 0.000000 1.000000
vn 0.000083 1.000000 0.000001
vn 0.000083 1.000000 0.000001
vn -0.000080 -1.000000 0.000002
vn -0.000080 -1.000000 0.000002
vn 0.000077 1.000000 -0.000005
vn 0.000077 1.000000 -0.000005
vn -0.000080 -1.000000 0.000003
vn -0.000080 -1.000000 0.000003
s 1
g HouseBack
usemtl blinn1SG
f 1/478/1 2/479/2 194/480/3 195/481/4
s 2
f 5/1/5 1/2/6 195/3/7 196/4/8
s 3
f 7/227/9 8/228/10 9/229/11 3/230/12
s 4
f 10/249/13 103/250/14 104/251/15 13/252/16
s 2
f 13/21/17 104/18/18 105/17/19 14/22/20
s 3
f 3/230/12 9/229/11 6/233/21 4/234/22
s 6
f 15/503/23 16/504/24 10/505/25 17/506/26
s 7
f 181/525/27 62/526/28 63/527/29 180/528/30
s 8
f 90/274/31 65/275/32 66/276/33 89/277/34
s 6
f 17/506/26 10/505/25 13/509/35 14/510/36
s 9
f 67/282/37 80/283/38 81/284/39 68/285/40
s 3
f 78/241/41 26/245/42 27/246/43 77/242/44
s 11
f 65/533/45 146/534/46 147/535/47 66/536/48
s 6
f 17/506/26 14/510/36 143/513/49 144/514/50
s 12
f 78/34/51 79/35/52 24/36/53 26/37/54
s 2
f 25/30/55 82/27/56 77/26/57 27/31/58
s 12
f 145/44/59 22/48/60 17/49/61 144/45/62
s 2
f 14/22/20 23/25/63 148/28/64 143/29/65
s 15
f 93/290/66 15/291/67 17/292/68 92/293/69
s 4
f 16/253/70 102/254/71 103/250/14 10/249/13
s 16
f 29/541/72 28/542/73 183/543/74 184/544/75
s 1
f 2/479/2 31/484/76 193/485/77 194/480/3
s 2
f 5/1/5 12/5/78 32/6/79 1/2/6
s 1
f 2/479/2 1/478/1 32/482/80 33/483/81
s 4
f 12/261/82 11/260/83 33/266/84 32/267/85
s 6
f 34/507/86 35/508/87 16/504/24 15/503/23
f 152/520/88 153/519/89 37/523/90 38/524/91
s 3
f 39/231/92 40/232/93 8/228/10 7/227/9
s 19
f 150/553/94 70/554/95 71/555/96 149/556/97
s 3
f 38/247/98 37/248/99 135/244/100 136/243/101
s 1
f 31/484/76 2/479/2 33/483/81 46/488/102
s 4
f 11/260/83 30/265/103 46/270/104 33/266/84
s 21
f 70/302/105 132/303/106 133/304/107 71/305/108
s 6
f 49/511/109 35/508/87 34/507/86 36/512/110
s 15
f 94/294/111 34/295/112 15/291/67 93/290/66
s 4
f 35/257/113 101/258/114 102/254/71 16/253/70
s 16
f 50/547/115 29/541/72 184/544/75 185/548/116
s 1
f 193/485/77 31/484/76 52/489/117 192/490/118
s 22
f 97/310/119 69/311/120 72/312/121 96/313/122
s 23
f 188/561/123 75/562/124 76/563/125 187/564/126
s 3
f 45/235/127 40/232/93 39/231/92 55/236/128
s 24
f 100/58/129 49/59/130 36/60/131 99/61/132
s 4
f 100/262/133 101/258/114 35/257/113 49/263/134
s 1
f 52/489/117 31/484/76 46/488/102 58/494/135
s 4
f 46/270/104 30/265/103 51/269/136 58/272/137
s 1
f 52/489/117 59/495/138 191/496/139 192/490/118
s 24
f 59/75/140 57/70/141 190/79/142 191/80/143
f 60/74/144 56/69/145 57/70/141 59/75/140
s 1
f 59/495/138 52/489/117 58/494/135 60/499/146
s 4
f 60/273/147 58/272/137 51/269/136 56/271/148
s 26
f 34/91/149 94/92/150 95/93/151 44/94/152
s 24
f 42/76/153 151/72/154 152/71/155 38/77/156
s 26
f 185/103/157 186/104/158 54/100/159 50/99/160
s 24
f 136/81/161 131/82/162 42/76/153 38/77/156
s 2
f 196/4/8 179/9/163 20/10/164 5/1/5
f 14/22/20 105/17/19 106/20/165 23/25/63
s 12
f 28/54/166 19/55/167 182/51/168 183/50/169
f 17/49/61 22/48/60 91/52/170 92/53/171
s 24
f 57/70/141 53/73/172 189/78/173 190/79/142
f 36/60/131 41/62/174 98/63/175 99/61/132
s 26
f 43/105/176 134/109/177 135/110/178 37/106/179
f 153/102/180 154/101/181 43/105/176 37/106/179
s 31
f 269/115/182 270/116/183 271/117/184 272/118/185
s 32
f 213/143/186 214/144/187 215/145/188 216/146/189
s 33
f 273/123/190 274/129/191 275/130/192 276/124/193
s 34
f 217/161/194 218/156/195 219/155/196 220/162/197
s 35
f 277/141/198 278/139/199 279/137/200 280/142/201
s 36
f 221/163/202 222/168/203 223/169/204 224/164/205
s 37
f 274/129/206 281/135/207 282/136/208 275/130/209
s 38
f 225/167/210 217/161/211 220/162/212 226/166/213
s 39
f 241/171/214 242/172/215 243/173/216 244/174/217
s 40
f 297/199/218 298/200/219 299/201/220 300/202/221
s 41
f 242/172/222 245/175/223 246/176/224 243/173/225
s 42
f 301/205/226 297/199/227 300/202/228 302/206/229
s 43
f 247/189/230 248/183/231 249/184/232 250/190/233
s 44
f 303/207/234 304/213/235 305/214/236 306/208/237
s 45
f 251/196/238 252/197/239 253/198/240 254/194/241
s 46
f 307/224/242 308/226/243 309/221/244 310/225/245
s 3
f 84/237/246 78/241/41 77/242/44 83/238/247
s 12
f 84/38/248 85/39/249 79/35/52 78/34/51
s 35
f 279/137/200 278/139/199 283/134/250 284/133/251
s 36
f 227/157/252 221/163/202 224/164/205 228/158/253
s 2
f 77/26/57 82/27/56 88/24/254 83/23/255
s 3
f 9/229/11 84/237/246 83/238/247 6/233/21
s 12
f 9/42/256 18/43/257 85/39/249 84/38/248
s 35
f 284/133/251 283/134/250 285/127/258 286/128/259
s 47
f 87/318/260 86/319/261 61/320/262 64/321/263
s 36
f 229/151/264 227/157/252 228/158/253 230/152/265
s 2
f 83/23/255 88/24/254 21/19/266 6/14/267
s 33
f 287/119/268 273/123/190 276/124/193 288/120/269
s 12
f 92/53/171 91/52/170 109/56/270 110/57/271
s 15
f 111/296/272 93/290/66 92/293/69 110/297/273
f 112/298/274 94/294/111 93/290/66 111/296/272
s 26
f 95/93/151 94/92/150 112/95/275 113/96/276
s 44
f 305/214/236 304/213/235 311/219/277 312/220/278
s 43
f 255/195/279 247/189/230 250/190/233 256/193/280
s 24
f 99/61/132 98/63/175 116/68/281 117/65/282
f 118/64/283 100/58/129 99/61/132 117/65/282
s 4
f 118/268/284 119/264/285 101/258/114 100/262/133
f 102/254/71 101/258/114 119/264/285 120/259/286
f 103/250/14 102/254/71 120/259/286 121/255/287
f 104/251/15 103/250/14 121/255/287 122/256/288
s 2
f 105/17/19 104/18/18 122/12/289 123/11/290
f 106/20/165 105/17/19 123/11/290 124/16/291
s 34
f 219/155/196 218/156/195 231/150/292 232/149/293
s 48
f 62/326/294 108/327/295 107/328/296 63/329/297
s 33
f 270/116/298 287/119/268 288/120/269 271/117/299
s 12
f 110/57/271 109/56/270 19/55/167 28/54/166
s 15
f 29/299/300 111/296/272 110/297/273 28/300/301
f 50/301/302 112/298/274 111/296/272 29/299/300
s 26
f 113/96/276 112/95/275 50/99/160 54/100/159
s 44
f 312/220/278 311/219/277 307/224/303 310/225/304
s 49
f 75/334/305 115/335/306 114/336/307 76/337/308
s 43
f 252/197/309 255/195/279 256/193/280 253/198/310
s 24
f 117/65/282 116/68/281 53/73/172 57/70/141
f 56/69/145 118/64/283 117/65/282 57/70/141
s 4
f 56/271/148 51/269/136 119/264/285 118/268/284
f 120/259/286 119/264/285 51/269/136 30/265/103
f 121/255/287 120/259/286 30/265/103 11/260/83
f 122/256/288 121/255/287 11/260/83 12/261/82
s 2
f 123/11/290 122/12/289 12/5/78 5/1/5
f 124/16/291 123/11/290 5/1/5 20/10/164
s 34
f 232/149/293 231/150/292 213/143/311 216/146/312
s 41
f 257/179/313 258/185/314 259/186/315 260/180/316
s 50
f 127/342/317 126/343/318 73/344/319 74/345/320
s 42
f 313/217/321 314/211/322 315/212/323 316/218/324
s 26
f 129/114/325 128/113/326 48/112/327 40/111/328
s 3
f 130/239/329 129/240/330 40/232/93 45/235/127
s 24
f 45/89/331 47/88/332 125/87/333 130/86/334
s 41
f 245/175/223 257/179/313 260/180/316 246/176/224
s 42
f 314/211/322 301/205/226 302/206/229 315/212/323
s 26
f 135/110/178 134/109/177 128/113/326 129/114/325
s 3
f 136/243/101 135/244/100 129/240/330 130/239/329
s 24
f 130/86/334 125/87/333 131/82/162 136/81/161
s 52
f 228/158/335 224/164/336 233/159/337 234/153/338
s 53
f 279/137/339 284/133/340 289/125/341 290/132/342
s 54
f 207/569/343 81/570/344 80/571/345 206/572/346
s 55
f 87/577/347 208/578/348 205/579/349 86/580/350
s 56
f 256/193/351 250/190/352 261/182/353 262/188/354
s 57
f 305/214/355 312/220/356 317/215/357 318/210/358
s 58
f 204/585/359 97/586/360 96/587/361 203/588/362
s 59
f 115/593/363 201/594/364 202/595/365 114/596/366
s 6
f 138/518/367 137/517/368 27/521/369 26/522/370
s 12
f 24/36/53 139/40/371 138/41/372 26/37/54
s 37
f 292/138/373 291/140/374 277/141/375 280/142/376
s 60
f 141/601/377 140/602/378 67/603/379 68/604/380
s 38
f 222/168/381 235/170/382 236/165/383 223/169/384
s 2
f 137/33/385 142/32/386 25/30/55 27/31/58
s 6
f 144/514/50 143/513/49 137/517/368 138/518/367
s 12
f 139/40/371 145/44/59 144/45/62 138/41/372
s 37
f 282/136/208 281/135/207 291/140/374 292/138/373
s 38
f 235/170/382 225/167/210 226/166/213 236/165/383
s 2
f 143/29/65 148/28/64 142/32/386 137/33/385
s 39
f 263/177/387 241/171/214 244/174/217 264/178/388
s 24
f 152/71/155 151/72/154 157/67/389 158/66/390
s 6
f 158/516/391 159/515/392 153/519/89 152/520/88
s 26
f 159/98/393 160/97/394 154/101/181 153/102/180
s 40
f 299/201/220 298/200/219 319/203/395 320/204/396
s 61
f 69/609/397 156/610/398 155/611/399 72/612/400
s 39
f 248/183/401 263/177/387 264/178/388 249/184/402
s 24
f 158/66/390 157/67/389 41/62/174 36/60/131
s 6
f 36/512/110 34/507/86 159/515/392 158/516/391
s 26
f 34/91/149 44/94/152 160/97/394 159/98/393
s 40
f 320/204/396 319/203/395 303/207/403 306/208/404
s 32
f 237/147/405 229/151/406 230/152/407 238/148/408
s 62
f 61/617/409 163/618/410 162/619/411 64/620/412
s 31
f 285/127/413 293/121/414 294/122/415 286/128/416
s 12
f 165/46/417 164/47/418 18/43/257 9/42/256
s 16
f 166/546/419 165/545/420 9/549/421 8/550/422
f 167/551/423 166/546/419 8/550/422 40/552/424
s 26
f 40/111/328 48/112/327 168/108/425 167/107/426
s 46
f 322/222/427 321/223/428 313/217/429 316/218/430
s 63
f 73/625/431 170/626/432 169/627/433 74/628/434
s 45
f 258/185/435 265/191/436 266/192/437 259/186/438
s 24
f 172/84/439 171/83/440 47/88/332 45/89/331
f 173/85/441 172/84/439 45/89/331 55/90/442
s 1
f 174/497/443 173/500/444 55/502/445 39/501/446
f 7/498/447 175/491/448 174/497/443 39/501/446
f 176/486/449 175/491/448 7/498/447 3/492/450
f 177/487/451 176/486/449 3/492/450 4/493/452
s 2
f 178/8/453 177/7/454 4/13/455 6/14/267
f 6/14/267 21/19/266 161/15/456 178/8/453
s 32
f 214/144/187 237/147/405 238/148/408 215/145/188
s 31
f 293/121/414 269/115/182 272/118/185 294/122/415
s 12
f 183/50/169 182/51/168 164/47/418 165/46/417
s 16
f 184/544/75 183/543/74 165/545/420 166/546/419
f 185/548/116 184/544/75 166/546/419 167/551/423
s 26
f 167/107/426 168/108/425 186/104/158 185/103/157
s 46
f 309/221/244 308/226/243 321/223/428 322/222/427
s 45
f 265/191/436 251/196/238 254/194/241 266/192/437
s 24
f 190/79/142 189/78/173 171/83/440 172/84/439
f 191/80/143 190/79/142 172/84/439 173/85/441
s 1
f 192/490/118 191/496/139 173/500/444 174/497/443
f 175/491/448 193/485/77 192/490/118 174/497/443
f 194/480/3 193/485/77 175/491/448 176/486/449
f 195/481/4 194/480/3 176/486/449 177/487/451
s 2
f 196/4/8 195/3/7 177/7/454 178/8/453
f 178/8/453 161/15/456 179/9/163 196/4/8
s 64
f 197/633/457 126/634/458 127/635/459 198/636/460
s 57
f 324/209/461 323/216/462 315/212/463 302/206/464
s 65
f 132/641/465 200/642/466 199/643/467 133/644/468
s 56
f 268/187/469 267/181/470 246/176/471 260/180/472
s 57
f 318/210/358 317/215/357 323/216/462 324/209/461
s 56
f 262/188/354 261/182/353 267/181/470 268/187/469
s 53
f 290/132/342 289/125/341 295/126/473 296/131/474
s 52
f 234/153/338 233/159/337 239/160/475 240/154/476
s 53
f 296/131/474 295/126/473 288/120/477 276/124/478
s 66
f 89/649/479 211/650/480 210/651/481 90/652/482
s 52
f 240/154/476 239/160/475 219/155/483 232/149/484
s 67
f 209/657/485 212/658/486 107/659/487 108/660/488
s 68
f 150/350/489 149/351/490 199/352/491 200/353/492
s 69
f 155/358/493 156/359/494 204/360/495 203/361/496
s off
f 324/209/497 299/201/498 320/204/499 318/210/500
f 266/192/501 254/194/502 262/188/503 268/187/504
s 70
f 169/366/505 170/367/506 197/368/507 198/369/508
s 71
f 188/374/509 187/375/510 202/376/511 201/377/512
s off
f 309/221/513 322/222/514 323/216/515 317/215/516
f 244/174/517 267/181/518 261/182/519 264/178/520
f 236/165/521 226/166/522 239/160/523 233/159/524
s 72
f 140/382/525 141/383/526 207/384/527 206/385/528
s 73
f 147/390/529 146/391/530 210/392/531 211/393/532
s off
f 282/136/533 292/138/534 290/132/535 296/131/536
f 215/145/537 238/148/538 234/153/539 240/154/540
s 74
f 162/398/541 163/399/542 205/400/543 208/401/544
s 75
f 181/406/545 180/407/546 212/408/547 209/409/548
s off
f 289/125/549 294/122/550 272/118/551 295/126/552
s 76
f 20/665/553 179/666/554 214/667/555 213/668/556
s 7
f 180/528/30 63/527/29 216/531/557 215/532/558
s 77
f 23/414/559 106/415/560 218/416/561 217/417/562
s 8
f 89/277/34 66/276/33 220/280/563 219/281/564
s 78
f 82/422/565 25/423/566 222/424/567 221/425/568
s 9
f 68/285/40 81/284/39 224/288/569 223/289/570
s 79
f 148/673/571 23/674/572 217/675/573 225/676/574
s 11
f 66/536/48 147/535/47 226/539/575 220/540/576
s 78
f 88/426/577 82/422/565 221/425/568 227/427/578
f 21/428/579 88/426/577 227/427/578 229/429/580
s 47
f 87/318/260 64/321/263 230/324/581 228/325/582
s 77
f 106/415/560 124/418/583 231/419/584 218/416/561
f 124/418/583 20/420/585 213/421/586 231/419/584
s 48
f 63/329/297 107/328/296 232/332/587 216/333/588
s 54
f 81/570/344 207/569/343 233/573/589 224/574/590
s 55
f 208/578/348 87/577/347 228/581/591 234/582/592
s 79
f 25/679/593 142/677/594 235/678/595 222/680/596
s 60
f 141/601/377 68/604/380 223/607/597 236/608/598
s 79
f 142/677/594 148/673/571 225/676/574 235/678/595
s 76
f 161/669/599 21/671/600 229/672/601 237/670/602
s 62
f 64/620/412 162/619/411 238/623/603 230/624/604
s 76
f 179/666/554 161/669/599 237/670/602 214/667/555
s 66
f 211/650/480 89/649/479 219/653/605 239/654/606
s 67
f 107/659/487 212/658/486 240/661/607 232/662/608
s 73
f 147/390/529 211/393/532 239/396/609 226/397/610
s 72
f 207/384/527 141/383/526 236/386/611 233/387/612
s 74
f 162/398/541 208/401/544 234/404/613 238/405/614
s 75
f 212/408/547 180/407/546 215/410/615 240/411/616
s 80
f 151/681/617 42/682/618 242/683/619 241/684/620
s 19
f 70/554/95 150/553/94 244/557/621 243/558/622
s 81
f 42/430/623 131/431/624 245/432/625 242/433/626
s 21
f 132/303/106 70/302/105 243/306/627 246/307/628
s 82
f 98/438/629 41/439/630 248/440/631 247/441/632
s 22
f 69/311/120 97/310/119 250/314/633 249/315/634
s 83
f 189/689/635 53/690/636 252/691/637 251/692/638
s 23
f 75/562/124 188/561/123 254/565/639 253/566/640
s 82
f 116/442/641 98/438/629 247/441/632 255/443/642
f 53/444/643 116/442/641 255/443/642 252/445/644
s 49
f 115/335/306 75/334/305 253/338/645 256/339/646
s 81
f 125/434/647 47/436/648 258/437/649 257/435/650
s 50
f 73/344/319 126/343/318 260/346/651 259/347/652
s 81
f 131/431/624 125/434/647 257/435/650 245/432/625
s 58
f 97/586/360 204/585/359 261/589/653 250/590/654
s 59
f 201/594/364 115/593/363 256/597/655 262/598/656
s 80
f 157/685/657 151/681/617 241/684/620 263/686/658
f 41/687/659 157/685/657 263/686/658 248/688/660
s 61
f 156/610/398 69/609/397 249/613/661 264/614/662
s 83
f 47/695/663 171/693/664 265/694/665 258/696/666
s 63
f 170/626/432 73/625/431 259/629/667 266/630/668
s 83
f 171/693/664 189/689/635 251/692/638 265/694/665
s 65
f 200/642/466 132/641/465 246/645/669 267/646/670
s 64
f 126/634/458 197/633/457 268/637/671 260/638/672
s 71
f 188/374/509 201/377/512 262/380/673 254/381/674
s 70
f 197/368/507 170/367/506 266/370/675 268/371/676
s 68
f 150/350/489 200/353/492 267/356/677 244/357/678
s 69
f 204/360/495 156/359/494 264/362/679 261/363/680
s 84
f 182/697/681 19/698/682 270/699/683 269/700/684
s 7
f 62/526/28 181/525/27 272/529/685 271/530/686
s 85
f 91/446/687 22/447/688 274/448/689 273/449/690
s 8
f 65/275/32 90/274/31 276/278/691 275/279/692
s 86
f 24/454/693 79/455/694 278/456/695 277/457/696
s 9
f 80/283/38 67/282/37 280/286/697 279/287/698
s 87
f 22/705/699 145/706/700 281/707/701 274/708/702
s 11
f 146/534/46 65/533/45 275/537/703 282/538/704
s 86
f 79/455/694 85/458/705 283/459/706 278/456/695
f 85/458/705 18/460/707 285/461/708 283/459/706
s 47
f 61/320/262 86/319/261 284/322/709 286/323/710
s 85
f 109/450/711 91/446/687 273/449/690 287/451/712
f 19/452/713 109/450/711 287/451/712 270/453/714
s 48
f 108/327/295 62/326/294 271/330/715 288/331/716
s 55
f 86/580/350 205/579/349 289/583/717 284/584/718
s 54
f 206/572/346 80/571/345 279/575/719 290/576/720
s 87
f 139/709/721 24/711/722 277/712/723 291/710/724
s 60
f 67/603/379 140/602/378 292/605/725 280/606/726
s 87
f 145/706/700 139/709/721 291/710/724 281/707/701
s 84
f 18/703/727 164/701/728 293/702/729 285/704/730
s 62
f 163/618/410 61/617/409 286/621/731 294/622/732
s 84
f 164/701/728 182/697/681 269/700/684 293/702/729
s 67
f 209/657/485 108/660/488 288/663/733 295/664/734
s 66
f 90/652/482 210/651/481 296/655/735 276/656/736
s 72
f 140/382/525 206/385/528 290/388/737 292/389/738
s 73
f 210/392/531 146/391/530 282/394/739 296/395/740
s 74
f 205/400/543 163/399/542 294/402/741 289/403/742
s 75
f 181/406/545 209/409/548 295/412/743 272/413/744
s 88
f 43/713/745 154/714/746 298/715/747 297/716/748
s 19
f 149/556/97 71/555/96 300/559/749 299/560/750
s 89
f 134/462/751 43/463/752 297/464/753 301/465/754
s 21
f 71/305/108 133/304/107 302/308/755 300/309/756
s 90
f 44/470/757 95/471/758 304/472/759 303/473/760
s 22
f 96/313/122 72/312/121 306/316/761 305/317/762
s 91
f 54/721/763 186/722/764 308/723/765 307/724/766
s 23
f 187/564/126 76/563/125 310/567/767 309/568/768
s 90
f 95/471/758 113/474/769 311/475/770 304/472/759
f 113/474/769 54/476/771 307/477/772 311/475/770
s 49
f 76/337/308 114/336/307 312/340/773 310/341/774
s 89
f 48/468/775 128/466/776 314/467/777 313/469/778
s 50
f 127/342/317 74/345/320 316/348/779 315/349/780
s 89
f 128/466/776 134/462/751 301/465/754 314/467/777
s 59
f 114/596/366 202/595/365 317/599/781 312/600/782
s 58
f 203/588/362 96/587/361 305/591/783 318/592/784
s 88
f 154/714/746 160/717/785 319/718/786 298/715/747
f 160/717/785 44/719/787 303/720/788 319/718/786
s 61
f 72/612/400 155/611/399 320/615/789 306/616/790
s 91
f 168/725/791 48/727/792 313/728/793 321/726/794
s 63
f 74/628/434 169/627/433 322/631/795 316/632/796
s 91
f 186/722/764 168/725/791 321/726/794 308/723/765
s 64
f 198/636/460 127/635/459 315/639/797 323/640/798
s 65
f 133/644/468 199/643/467 324/647/799 302/648/800
s 68
f 199/352/491 149/351/490 299/354/801 324/355/802
s 69
f 155/358/493 203/361/496 318/364/803 320/365/804
s 70
f 169/366/505 198/369/508 323/372/805 322/373/806
s 71
f 202/376/511 187/375/510 309/378/807 317/379/808
